<?xml version="1.0" encoding="utf-8"?>
<!-- Generator: Adobe Illustrator 24.1.3, SVG Export Plug-In . SVG Version: 6.00 Build 0)  -->
<svg version="1.1" id="Слой_1" xmlns="http://www.w3.org/2000/svg" xmlns:xlink="http://www.w3.org/1999/xlink" x="0px" y="0px"
	 viewBox="0 0 24 24" style="enable-background:new 0 0 24 24;" xml:space="preserve">
<style type="text/css">
	.st0{fill:none;stroke:#000000;stroke-miterlimit:10;}
	.st1{fill:none;stroke:#00364A;stroke-miterlimit:10;}
	.st2{fill:none;stroke:#00364A;stroke-linecap:round;stroke-miterlimit:10;}
</style>
<g id="Слой_1_1_">
</g>
<g id="Слой_2_1_">
	<g>
		<g>
			<path class="st0" d="M49.6-6.2"/>
		</g>
	</g>
	<path class="st1" d="M12.7,19.4"/>
	<path class="st1" d="M1.5,21.8c0-3.2-0.1-6.4-0.1-9.6C1.3,8.6,1.2,5.1,1.1,1.5c1.4-0.2,3.3-0.3,5.5,0c2,0.3,3.6,0.8,4.8,1.3
		c1.1-0.4,2.4-0.9,4-1.2c2.4-0.4,4.5-0.4,6-0.2c-0.3,2.8-0.4,6.1-0.2,9.7c0.2,4,0.7,7.6,1.4,10.6c-0.8-0.4-2.9-1.5-5.7-1.2
		c-1.8,0.2-3.2,0.9-4,1.3c-1.1-0.5-3.2-1.3-5.9-1.3C4.6,20.6,2.6,21.3,1.5,21.8z"/>
	<path class="st1" d="M12.2,14.7"/>
	<path class="st1" d="M13.1,21.9c-0.5-3.3-0.9-6.8-1.2-10.5c-0.2-3-0.4-5.8-0.4-8.5"/>
	<path class="st2" d="M3.5,12.2c0.8-0.2,1.9-0.5,3.3-0.5c1.3,0,2.3,0.2,3.1,0.4"/>
	<path class="st2" d="M3.2,9.1C3.9,8.9,5,8.6,6.3,8.5c1.4,0,2.5,0.3,3.2,0.5"/>
	<path class="st2" d="M2.9,5.3C3.8,5.2,5,5.1,6.5,5.2c1.1,0.1,2,0.3,2.8,0.5"/>
	<path class="st2" d="M14.1,16c0.5-0.2,1.5-0.7,2.9-0.6c1.3,0.1,2.2,0.6,2.6,0.8"/>
	<path class="st2" d="M13.8,13.2c0.5-0.2,1.5-0.6,2.8-0.6c1.3,0,2.2,0.4,2.8,0.6"/>
	<path class="st2" d="M13.6,10.3c0.5-0.2,1.5-0.7,2.9-0.6c1.3,0.1,2.2,0.6,2.6,0.8"/>
	<path class="st2" d="M14.2,7.5c0.4-0.2,1.2-0.6,2.2-0.7c1.2-0.1,2.1,0.2,2.5,0.4c-0.1-1-0.3-2-0.4-3C18,4,17.1,3.8,15.9,3.9
		C15,4,14.3,4.2,13.8,4.4C13.9,5.4,14,6.5,14.2,7.5z"/>
</g>
<path class="st2" d="M3.2,16.8c0.7-0.4,2-0.9,3.8-1c1.6,0,2.8,0.4,3.5,0.7"/>
</svg>
