<?xml version="1.0" encoding="utf-8"?>
<!-- Generator: Adobe Illustrator 24.1.3, SVG Export Plug-In . SVG Version: 6.00 Build 0)  -->
<svg version="1.1" id="Слой_1" xmlns="http://www.w3.org/2000/svg" xmlns:xlink="http://www.w3.org/1999/xlink" x="0px" y="0px"
	 viewBox="0 0 24 24" style="enable-background:new 0 0 24 24;" xml:space="preserve">
<style type="text/css">
	.st0{fill:none;stroke:#00364A;stroke-miterlimit:10;}
	.st1{fill:none;stroke:#00364A;stroke-linecap:round;stroke-linejoin:round;stroke-miterlimit:10;}
</style>
<path class="st0" d="M1.8,13.7"/>
<path class="st0" d="M8.9,13.4c-2.6,0.1-5.2,0.2-7.7,0.2c-0.1-0.4-0.6-2.1,0.2-4c0.7-1.5,1.9-2.2,2.3-2.4c0.5,0,1.1,0,1.6,0
	C5.9,7.6,7,8.4,7.8,9.8C8.7,11.3,8.8,12.7,8.9,13.4z"/>
<ellipse class="st0" cx="4.5" cy="4.8" rx="1.8" ry="1.9"/>
<path class="st1" d="M4.5,21.6C8.8,16.1,13,10.6,17.3,5"/>
<path class="st1" d="M12,20.2c-0.1-2.2-0.2-4.3-0.2-6.5c3.5-0.1,7-0.2,10.6-0.3c0.2,2.3,0.4,4.6,0.5,6.9
	C19.2,20.2,15.6,20.2,12,20.2z"/>
<path class="st1" d="M15.5,23.4c1,0,2.1,0,3.1,0"/>
<path class="st1" d="M16.8,20.2c0.1,1,0.1,1.9,0.2,2.9"/>
<path class="st1" d="M22.1,11.6"/>
</svg>
