<?xml version="1.0" encoding="utf-8"?>
<!-- Generator: Adobe Illustrator 24.1.3, SVG Export Plug-In . SVG Version: 6.00 Build 0)  -->
<svg version="1.1" id="Слой_1" xmlns="http://www.w3.org/2000/svg" xmlns:xlink="http://www.w3.org/1999/xlink" x="0px" y="0px"
	 viewBox="0 0 24 24" style="enable-background:new 0 0 24 24;" xml:space="preserve">
<style type="text/css">
	.st0{fill:#00364A;stroke:#00364A;stroke-miterlimit:10;}
	.st1{fill:#FFFFFF;stroke:#00364A;stroke-miterlimit:10;}
</style>
<path class="st0" d="M6.2,17.8c0.1-1.1,0.3-2.4,0.7-3.8c0.4-1.3,0.8-2.3,1.2-3.2c0.9-0.1,1.9-0.2,2.8-0.3c0.4,1,0.7,2.1,1.1,3.1
	c0.5,1.4,1,2.7,1.6,4C11.2,17.7,8.7,17.8,6.2,17.8z"/>
<ellipse class="st1" cx="9.4" cy="8.2" rx="3.2" ry="2.3"/>
<path class="st0" d="M14.1,19.2c0.1-1.1,0.3-2.4,0.7-3.8c0.4-1.3,0.8-2.3,1.2-3.2c0.9-0.1,1.9-0.2,2.8-0.3c0.4,1,0.7,2.1,1.1,3.1
	c0.5,1.4,1,2.7,1.6,4C19,19.1,16.6,19.1,14.1,19.2z"/>
<ellipse class="st1" cx="17" cy="10.1" rx="3.2" ry="2.3"/>
<path class="st0" d="M11.5,23.8c0.1-1.1,0.3-2.4,0.7-3.8c0.4-1.3,0.8-2.3,1.2-3.2c0.9-0.1,1.9-0.2,2.8-0.3c0.4,1,0.7,2.1,1.1,3.1
	c0.5,1.4,1,2.7,1.6,4C16.4,23.7,14,23.7,11.5,23.8z"/>
<ellipse class="st1" cx="14.4" cy="14.8" rx="3.2" ry="2.3"/>
<path class="st0" d="M2.5,22.4c0.1-1.1,0.3-2.4,0.7-3.8c0.4-1.3,0.8-2.3,1.2-3.2c0.9-0.1,1.9-0.2,2.8-0.3c0.4,1,0.7,2.1,1.1,3.1
	c0.5,1.4,1,2.7,1.6,4C7.5,22.3,5,22.4,2.5,22.4z"/>
<ellipse class="st1" cx="5.7" cy="12.8" rx="3.2" ry="2.3"/>
</svg>
