<?xml version="1.0" encoding="utf-8"?>
<!-- Generator: Adobe Illustrator 24.1.3, SVG Export Plug-In . SVG Version: 6.00 Build 0)  -->
<svg version="1.1" id="Слой_1" xmlns="http://www.w3.org/2000/svg" xmlns:xlink="http://www.w3.org/1999/xlink" x="0px" y="0px"
	 viewBox="0 0 24 24" style="enable-background:new 0 0 24 24;" xml:space="preserve">
<style type="text/css">
	.st0{fill:#00364A;stroke:#00364A;stroke-miterlimit:10;}
	.st1{fill:none;stroke:#00364A;stroke-miterlimit:10;}
	.st2{fill:none;stroke:#FFFFFF;stroke-miterlimit:10;}
</style>
<path class="st0" d="M10.9,21.3c-0.2-1.4-0.6-4.8,1.2-8.3c0.8-1.6,1.8-2.7,2.6-3.5c0.6-0.1,1.2-0.1,1.8-0.2c0.8-0.1,1.6-0.1,2.4-0.2
	c0.5,0.6,1,1.4,1.6,2.4c0.2,0.3,0.8,1.4,1.4,3.1c0.9,2.3,1.3,4.6,1.5,6.6C19.2,21.1,15.1,21.2,10.9,21.3z"/>
<path class="st0" d="M16.3,1.2c2.1,0.2,4.4,1.9,4.3,4.1c-0.1,2.1-2.4,3.6-4.3,3.7c-2.4,0.1-5-1.7-5-4C11.3,2.8,14,1,16.3,1.2z"/>
<path class="st0" d="M3.6,22.9C3.7,21.5,4,19.8,4.5,18c0.5-1.6,1-3,1.6-4.2c1.2-0.1,2.4-0.2,3.6-0.3c0.5,1.3,0.9,2.7,1.5,4
	c0.7,1.8,1.3,3.5,2,5.2C9.9,22.7,6.8,22.8,3.6,22.9z"/>
<ellipse class="st1" cx="7.7" cy="10.5" rx="4.2" ry="3"/>
<path class="st0" d="M31.5,1.8"/>
<path class="st2" d="M20.4,9.7c0,0.9-0.1,3.5-1.9,5.8c-2.9,3.8-7.6,3.8-8.2,3.8"/>
<path class="st2" d="M6.4,17.3"/>
<path class="st2" d="M6.1,17.8"/>
</svg>
