<?xml version="1.0" encoding="utf-8"?>
<!-- Generator: Adobe Illustrator 24.1.3, SVG Export Plug-In . SVG Version: 6.00 Build 0)  -->
<svg version="1.1" id="Слой_1" xmlns="http://www.w3.org/2000/svg" xmlns:xlink="http://www.w3.org/1999/xlink" x="0px" y="0px"
	 viewBox="0 0 24 24" style="enable-background:new 0 0 24 24;" xml:space="preserve">
<style type="text/css">
	.st0{fill:#00364A;stroke:#00364A;stroke-miterlimit:10;}
	.st1{fill:none;stroke:#00364A;stroke-miterlimit:10;}
</style>
<path class="st0" d="M7.3,21.2c0.1-1.8,0.5-4,1.2-6.4c0.5-1.7,1.1-3.2,1.7-4.5c0.6,0.1,1.5,0.3,2.6,0.2c1.2-0.1,2-0.5,2.5-0.8
	c0.2,0.5,0.4,1.2,0.7,2c0.2,0.5,0.5,1.4,1,2.7c0.9,2.3,1.7,4.6,2.6,6.7C15.6,21,11.5,21.1,7.3,21.2z"/>
<ellipse class="st1" cx="12" cy="6.6" rx="5.4" ry="3.9"/>
<line class="st1" x1="12" y1="13.9" x2="3" y2="11.2"/>
<path class="st1" d="M1.7,17.5c0.6-2,1.2-4.1,1.8-6.1"/>
<line class="st1" x1="15.1" y1="16.5" x2="20.8" y2="14.4"/>
<path class="st1" d="M20.9,9.3c-0.1,1.8-0.3,3.6-0.4,5.4"/>
</svg>
