<?xml version="1.0" encoding="utf-8"?>
<!-- Generator: Adobe Illustrator 24.1.3, SVG Export Plug-In . SVG Version: 6.00 Build 0)  -->
<svg version="1.1" id="Слой_1" xmlns="http://www.w3.org/2000/svg" xmlns:xlink="http://www.w3.org/1999/xlink" x="0px" y="0px"
	 viewBox="0 0 24 24" style="enable-background:new 0 0 24 24;" xml:space="preserve">
<style type="text/css">
	.st0{fill:none;stroke:#00364A;stroke-miterlimit:10;}
	.st1{fill:#00364A;stroke:#00364A;stroke-miterlimit:10;}
</style>
<path class="st0" d="M8,24.2C8.1,22.8,8.3,21,8.9,19c0.5-1.7,1.1-3.2,1.7-4.4c1.3-0.1,2.5-0.2,3.8-0.4c0.5,1.4,1,2.8,1.5,4.3
	c0.7,1.9,1.4,3.7,2.1,5.5C14.7,24.1,11.3,24.2,8,24.2z"/>
<ellipse transform="matrix(0.9986 -5.195150e-02 5.195150e-02 0.9986 -0.5345 0.6638)" class="st1" cx="12.5" cy="10.6" rx="3.9" ry="3.7"/>
<line class="st0" x1="2.6" y1="11.8" x2="8.9" y2="18.3"/>
<line class="st0" x1="21.9" y1="9.7" x2="15.8" y2="18.2"/>
<line class="st0" x1="21.3" y1="4" x2="21.9" y2="9.7"/>
<line class="st0" x1="2.2" y1="4.9" x2="2.6" y2="11.8"/>
<line class="st0" x1="23" y1="3.6" x2="1.2" y2="4.9"/>
<line class="st0" x1="1.2" y1="1.7" x2="22.8" y2="0.7"/>
<path class="st0" d="M22.8,0.7c-0.6,0.2-1.1,0.8-1.1,1.5c0,0.6,0.4,1.2,1,1.4"/>
<path class="st0" d="M1.2,1.7C1.9,1.9,2.4,2.4,2.5,3c0.1,0.8-0.4,1.6-1.3,1.9"/>
</svg>
