<?xml version="1.0" encoding="utf-8"?>
<!-- Generator: Adobe Illustrator 24.1.3, SVG Export Plug-In . SVG Version: 6.00 Build 0)  -->
<svg version="1.1" id="Слой_1" xmlns="http://www.w3.org/2000/svg" xmlns:xlink="http://www.w3.org/1999/xlink" x="0px" y="0px"
	 viewBox="0 0 24 24" style="enable-background:new 0 0 24 24;" xml:space="preserve">
<style type="text/css">
	.st0{fill:none;stroke:#00364A;stroke-miterlimit:10;}
	.st1{fill:none;stroke:#00364A;stroke-linecap:round;stroke-miterlimit:10;}
</style>
<path class="st0" d="M3.1,2.8C3.3,4.5,3.4,6.2,3.5,8c0.2,4.6,0.2,8.9,0,13c2.2,0.3,4.6,0.5,7.1,0.6c3.5,0.2,6.8,0.1,9.8-0.1
	c-0.1-3.8-0.2-7.7-0.4-11.8c-0.1-2.5-0.3-5-0.5-7.5C14,2.5,8.6,2.6,3.1,2.8z"/>
<path class="st0" d="M8.5,8.9H5.2V5.6c0.6-0.1,1.2-0.2,1.9-0.3C7.6,5.2,8.2,5.1,8.7,5C8.6,6.3,8.6,7.6,8.5,8.9z"/>
<path class="st0" d="M8.9,19.9c-1.2-0.1-2.5-0.2-3.7-0.2v-3.3h3.3C8.6,17.5,8.8,18.7,8.9,19.9z"/>
<path class="st0" d="M8.5,14.3H5.2V11c0.4-0.1,0.8-0.2,1.4-0.3c0.8,0,1.5,0.1,1.9,0.3c-0.1,0.4-0.3,0.9-0.3,1.6
	C8.2,13.3,8.4,13.9,8.5,14.3z"/>
<path class="st1" d="M5.7,6c0.6,0.7,1.1,1.5,1.7,2.2C8.1,7.1,8.7,6,9.4,5"/>
<path class="st1" d="M5,11.4c0.6,0.7,1.1,1.5,1.7,2.2c0.7-1.1,1.3-2.2,2-3.2"/>
<path class="st1" d="M5.7,16.6c0.6,0.7,1.1,1.5,1.7,2.2c0.7-1.1,1.3-2.2,2-3.2"/>
<line class="st0" x1="10.8" y1="5.9" x2="16.9" y2="5.7"/>
<line class="st0" x1="10.9" y1="9" x2="17" y2="8.8"/>
<line class="st0" x1="11" y1="12.6" x2="17.1" y2="12.4"/>
<line class="st0" x1="11.1" y1="14.9" x2="17.2" y2="14.7"/>
</svg>
