<?xml version="1.0" encoding="utf-8"?>
<!-- Generator: Adobe Illustrator 24.1.3, SVG Export Plug-In . SVG Version: 6.00 Build 0)  -->
<svg version="1.1" id="Слой_1" xmlns="http://www.w3.org/2000/svg" xmlns:xlink="http://www.w3.org/1999/xlink" x="0px" y="0px"
	 viewBox="0 0 24 24" style="enable-background:new 0 0 24 24;" xml:space="preserve">
<style type="text/css">
	.st0{fill:none;stroke:#00364A;stroke-miterlimit:10;}
	.st1{fill:#FFFFFF;stroke:#00364A;stroke-miterlimit:10;}
	.st2{fill:none;stroke:#00364A;stroke-linecap:round;stroke-linejoin:bevel;stroke-miterlimit:10;}
	.st3{fill:#FFFFFF;stroke:#00364A;stroke-linecap:round;stroke-linejoin:bevel;stroke-miterlimit:10;}
</style>
<path class="st0" d="M2.9,23.6h17.5c-0.2-0.4-0.9-1.5-0.7-3c0.1-1,0.5-1.8,0.7-2.2c-5.8,0-11.7,0-17.5,0c-0.2,0.2-1.1,1.1-1.1,2.6
	C1.8,22.5,2.7,23.4,2.9,23.6z"/>
<path class="st1" d="M5.4,15.5"/>
<path class="st0" d="M2.9,17.7h17.5c-0.2-0.4-0.9-1.5-0.7-3c0.1-1,0.5-1.8,0.7-2.2c-5.8,0-11.7,0-17.5,0c-0.2,0.2-1.1,1.1-1.1,2.6
	C1.8,16.6,2.7,17.6,2.9,17.7z"/>
<path class="st0" d="M2.9,11.7h17.5c-0.2-0.4-0.9-1.5-0.7-3c0.1-1,0.5-1.8,0.7-2.2c-5.8,0-11.7,0-17.5,0C2.7,6.8,1.8,7.7,1.8,9.1
	C1.8,10.6,2.7,11.6,2.9,11.7z"/>
<path class="st2" d="M6.5,4.6c-1.2,0.7-2.5,1.3-3.7,2c6,0,12-0.1,18-0.1c-1-0.6-2-1.3-3-1.9H6.5z"/>
<path class="st3" d="M7.7-3.3"/>
</svg>
