<?xml version="1.0" encoding="utf-8"?>
<!-- Generator: Adobe Illustrator 24.1.3, SVG Export Plug-In . SVG Version: 6.00 Build 0)  -->
<svg version="1.1" id="Слой_1" xmlns="http://www.w3.org/2000/svg" xmlns:xlink="http://www.w3.org/1999/xlink" x="0px" y="0px"
	 viewBox="0 0 24 24" style="enable-background:new 0 0 24 24;" xml:space="preserve">
<style type="text/css">
	.st0{fill:#FFFFFF;}
</style>
<path class="st0" d="M17.2,16.2c-1-1-2.6-1-3.5,0l-0.4,0.4c-2.1-1.8-4-3.7-5.8-5.8l0.4-0.4c1-1,1-2.6,0-3.5c0,0,0,0,0,0L5.7,4.7
	c-1-1-2.6-1-3.5,0L1,5.9c-1.2,1.2-1.4,3-0.4,4.4C4,15.5,8.5,20,13.7,23.4c1.4,0.9,3.2,0.7,4.4-0.4l1.2-1.2c1-1,1-2.6,0-3.5
	L17.2,16.2z"/>
<path class="st0" d="M11.5,0c-0.6,0-1,0.4-1,1s0.4,1,1,1C17.3,2,22,6.7,22,12.5c0,0.6,0.4,1,1,1s1-0.4,1-1C24,5.6,18.4,0,11.5,0z"/>
<path class="st0" d="M11.5,6c3.6,0,6.5,2.9,6.5,6.5c0,0.6,0.4,1,1,1s1-0.4,1-1C20,7.8,16.2,4,11.5,4c-0.6,0-1,0.4-1,1S10.9,6,11.5,6
	z"/>
<path class="st0" d="M11.5,10c1.4,0,2.5,1.1,2.5,2.5c0,0.6,0.4,1,1,1s1-0.4,1-1C16,10,14,8,11.5,8c-0.6,0-1,0.4-1,1S10.9,10,11.5,10
	z"/>
</svg>
