<svg id="Слой_1" data-name="Слой 1" xmlns="http://www.w3.org/2000/svg" viewBox="0 0 384 384"><defs><style>.cls-1{fill:#f77577;}</style></defs><path class="cls-1" d="M192,384c105.86,0,192-86.13,192-192a190.42,190.42,0,0,0-7.6-53.53,16,16,0,1,0-30.71,9A159,159,0,0,1,352,192c0,88.22-71.78,160-160,160S32,280.22,32,192,103.78,32,192,32a159,159,0,0,1,89.21,27.11A16,16,0,0,0,299.1,32.57,190.88,190.88,0,0,0,192,0C86.14,0,0,86.13,0,192S86.14,384,192,384Z"/><path class="cls-1" d="M356.69,36.69,192,201.37l-52.69-52.68a16,16,0,0,0-22.62,22.62l64,64a16,16,0,0,0,22.62,0l176-176a16,16,0,0,0-22.62-22.62Z"/></svg>