<?xml version="1.0" encoding="utf-8"?>
<!-- Generator: Adobe Illustrator 24.1.3, SVG Export Plug-In . SVG Version: 6.00 Build 0)  -->
<svg version="1.1" id="Слой_1" xmlns="http://www.w3.org/2000/svg" xmlns:xlink="http://www.w3.org/1999/xlink" x="0px" y="0px"
	 viewBox="0 0 64 64" style="enable-background:new 0 0 64 64;" xml:space="preserve">
<style type="text/css">
	.st0{display:none;fill:#FF0000;stroke:#FFFFFF;stroke-width:4;stroke-miterlimit:20;}
	.st1{fill:none;stroke:#FFFFFF;stroke-width:6;stroke-miterlimit:20;}
	.st2{fill:#FFFFFF;}
	.st3{fill:none;stroke:#FFFFFF;stroke-width:5;stroke-miterlimit:20;}
</style>
<polygon class="st0" points="-12.7,73.2 84.2,62.6 62.7,-8.9 -3.7,-8.9 "/>
<path class="st1" d="M32,3.1C16,3.1,3.1,16,3.1,32S16,60.9,32,60.9S60.9,48,60.9,32S48,3.1,32,3.1z"/>
<path class="st2" d="M60.8,35.1c0,0,0-0.1,0-0.1C60.8,35,60.8,35,60.8,35.1z M3.2,34.9c0,0.1,0,0.1,0,0.2C3.2,35,3.2,35,3.2,34.9z
	 M35.9,39.7h7.5l1.2-7.6h-8.7v-4.2c0-3.2,1-6,4-6h4.8v-6.6c-0.8-0.1-2.6-0.4-5.9-0.4c-7,0-11.1,3.7-11.1,12.1v5.1h-7.2v7.6h7.2v20.9
	c1.4,0.2,2.9,0.4,4.3,0.4c1.3,0,2.6-0.1,3.9-0.3V39.7z"/>
<path class="st3" d="M88.2,18"/>
</svg>
