<svg id="Группа_1" data-name="Группа 1" xmlns="http://www.w3.org/2000/svg" viewBox="0 0 1314.4 717.86"><defs><style>.cls-1{fill:none;stroke-width:29.24px;}.cls-1,.cls-3{stroke:#fff;}.cls-2{fill:#fff;}.cls-2,.cls-3{fill-rule:evenodd;}.cls-3{stroke-miterlimit:10;}</style></defs><circle id="Эллипс_4" data-name="Эллипс 4" class="cls-1" cx="310.47" cy="407.39" r="295.85"/><path id="Прямоугольник_7_копия_3" data-name="Прямоугольник 7 копия 3" class="cls-2" d="M766.24,228v24.89h48.09V278a56.73,56.73,0,0,1-16.55,10.15,54.85,54.85,0,0,1-21.63,4.35q-23.92,0-39.76-16.55T720.57,234q0-25.38,15.82-41.81t39.76-16.44a49.18,49.18,0,0,1,24.05,6A52.71,52.71,0,0,1,818,197.28l23.2-13.05q-23.45-33.58-65-33.59-35.77,0-60.18,23.08T691.57,234q0,37.21,24.4,60.42t60.18,23.2q40.11,0,66.46-29.24V228Zm240.22-53.78q-23.21-23.56-59.21-23.56T888,174.2q-23.19,23.57-23.2,59.81T888,293.83q23.21,23.55,59.21,23.56t59.21-23.56q23.2-23.56,23.2-59.82T1006.46,174.2ZM985.91,275.7q-14.74,16.56-38.66,16.56-24.16,0-38.79-16.44T893.84,234q0-25.37,14.62-41.8t38.79-16.44q23.93,0,38.66,16.44T1000.66,234Q1000.66,259.15,985.91,275.7Zm152.74-122.4h-35.29l-63.31,161.19h32.14L1084,283.56h74l11.84,30.93H1202ZM1092,258.66l29-76.85,29,76.85Zm155.87,30.94V153.3H1219.6V314.49h99.33V289.6ZM704.37,447V378.89H690.24v80.6H739.9V447Zm89.18-68.15H775.91l-31.66,80.6h16.07L766.24,444h37l5.92,15.46h16.07Zm-23.32,52.69,14.5-38.43,14.5,38.43Zm119.5-52.69v55.95l-41.2-55.95H834v80.6h14.14V402l42.05,57.51h13.65v-80.6Zm65,37.34v12.44h24v12.57a28.5,28.5,0,0,1-8.27,5.08,27.34,27.34,0,0,1-10.82,2.17,26.3,26.3,0,0,1-19.87-8.28q-7.92-8.26-7.92-21t7.92-20.9a26.44,26.44,0,0,1,19.87-8.22,24.78,24.78,0,0,1,12,3,26.43,26.43,0,0,1,8.88,7.74l11.6-6.53q-11.73-16.78-32.5-16.8-17.9,0-30.09,11.54T917.4,419.25q0,18.62,12.21,30.21t30.08,11.6q20.05,0,33.23-14.62V416.23Zm108.38-37.34v48.33q0,9.79-5.31,15.47t-15.23,5.69q-9.9,0-15.28-5.68t-5.38-15.47V378.89h-14.26v48.82q0,15.35,8.88,24.29t26,8.94q17,0,25.92-8.94t8.88-24.41v-48.7Zm72.26,0h-17.64l-31.66,80.6h16.07l5.92-15.47h37L1151,459.5H1167Zm-23.32,52.68,14.5-38.43,14.5,38.43Zm97.51-15.35v12.44h24v12.57a28.69,28.69,0,0,1-8.28,5.08,27.33,27.33,0,0,1-10.81,2.17,26.32,26.32,0,0,1-19.88-8.28q-7.92-8.26-7.91-21t7.91-20.9a26.46,26.46,0,0,1,19.88-8.22,24.72,24.72,0,0,1,12,3,26.54,26.54,0,0,1,8.88,7.74l11.6-6.53q-11.71-16.78-32.5-16.8-17.9,0-30.09,11.54t-12.2,30.15q0,18.6,12.2,30.21t30.09,11.6q20.06,0,33.23-14.62V416.23Zm108.15-24.89V378.89H1262.5v80.6h55.22V447h-41.09V424.69h40.24V412.24h-40.24v-20.9ZM766.45,604.84a25.78,25.78,0,0,0-8.79-9.18,60.74,60.74,0,0,0-12-5.63c-4.38-1.52-8.76-2.82-13.14-3.87s-8.37-2.14-12-3.25a26.73,26.73,0,0,1-8.78-4.35,8.17,8.17,0,0,1-3.4-6.65,11.29,11.29,0,0,1,4.82-9.58q4.83-3.57,13.07-3.57,18.53,0,30.56,12L767.47,557q-15.19-14.71-39.58-14.72-17.1,0-27.79,8.78t-10.68,22.09q0,10.77,6.33,17.58a34.93,34.93,0,0,0,15.44,9.66q9.09,2.85,18.13,4.91a57.17,57.17,0,0,1,15.35,5.62q6.35,3.55,6.34,9.58,0,5.85-5.3,10.13t-15.92,4.27a43.94,43.94,0,0,1-33.4-14.56l-10.3,14.25Q701.76,651.4,729,651.39q20.26,0,30.56-9.18t10.29-23.44A27.24,27.24,0,0,0,766.45,604.84Zm86.68,25.81a29.57,29.57,0,0,1-15.52,4.27q-15.68,0-26-10.76t-10.37-27.4q0-16.62,10.37-27.39t26-10.76a29.63,29.63,0,0,1,15.43,4.27A30.9,30.9,0,0,1,864.22,574l15.83-8.07q-14.88-23.75-42.43-23.75-23.76,0-39.59,15.28T782.2,596.76q0,24.07,15.83,39.35t39.59,15.28q27.23,0,42.43-23.75l-15.84-8.08A30.91,30.91,0,0,1,853.13,630.65ZM968.4,543.88v43.23H913.46V543.88H894.93V649.49h18.53V603.41H968.4v46.08h18.53V543.88Zm129,13.7q-15.2-15.45-38.79-15.44t-38.8,15.44q-15.2,15.43-15.2,39.18t15.2,39.19q15.2,15.43,38.8,15.44T1097.44,636q15.19-15.44,15.2-39.19T1097.44,557.58ZM1084,624.08q-9.66,10.84-25.33,10.85-15.84,0-25.42-10.77t-9.58-27.4q0-16.62,9.58-27.38t25.42-10.77q15.67,0,25.33,10.77t9.66,27.39Q1093.64,613.24,1084,624.08Zm134.58-66.5q-15.19-15.45-38.79-15.44T1141,557.58q-15.2,15.43-15.2,39.18T1141,636q15.19,15.43,38.79,15.44T1218.56,636q15.21-15.44,15.2-39.19T1218.56,557.58Zm-13.46,66.5q-9.66,10.84-25.33,10.85-15.84,0-25.41-10.77t-9.58-27.4q0-16.62,9.58-27.38t25.41-10.77q15.68,0,25.33,10.77t9.66,27.39Q1214.76,613.24,1205.1,624.08Zm65.08,9.1v-89.3h-18.53V649.49h65.08V633.18ZM618.58,40.29h0l3.54-3.54ZM29.16,389.38v35.93l60.26,1.43V387.66Zm513.64-1.49v40.38l60.76-2.11V389.41ZM334,120H298.06l-1.28,60.41H336ZM296.14,634.33l2,61,37-.1,1.5-61Z" transform="translate(-4.53 0.01)"/><path class="cls-2" d="M685.58,100.23l.17.17-64.34,64.35-.4-.4L566.26,179l-200,192.4a66.46,66.46,0,0,1,10.4,35.95c0,35.15-26.69,63.65-59.61,63.65s-59.61-28.5-59.61-63.65,26.69-63.66,59.61-63.66a56.8,56.8,0,0,1,34.65,11.85l191.52-198.4,14.92-55.66-.4-.4L658.89,0l-4.27,15.57,0,0L635.47,85.46l69.91-19.18-.4.4,19.49-5.35Z" transform="translate(-4.53 0.01)"/><path class="cls-3" d="M360.08,363.29" transform="translate(-4.53 0.01)"/></svg>