<?xml version="1.0" encoding="utf-8"?>
<!-- Generator: Adobe Illustrator 24.1.3, SVG Export Plug-In . SVG Version: 6.00 Build 0)  -->
<svg version="1.1" id="Слой_1" xmlns="http://www.w3.org/2000/svg" xmlns:xlink="http://www.w3.org/1999/xlink" x="0px" y="0px"
	 viewBox="0 0 1265.8 692.2" style="enable-background:new 0 0 1265.8 692.2;" xml:space="preserve">
<style type="text/css">
	.st0{fill-rule:evenodd;clip-rule:evenodd;fill:#00364A;}
	.st1{fill-rule:evenodd;clip-rule:evenodd;}
	.st2{fill:none;stroke:#000000;stroke-width:32;}
	.st3{fill-rule:evenodd;clip-rule:evenodd;fill:#00364A;stroke:#00364A;stroke-width:7;stroke-miterlimit:10;}
	.st4{fill-rule:evenodd;clip-rule:evenodd;stroke:#000000;stroke-width:2;stroke-miterlimit:10;}
</style>
<ellipse class="st0" cx="294.8" cy="397.5" rx="58.1" ry="62"/>
<g id="Слой_1_1_">
	<path id="Прямоугольник_7_копия_3" class="st1" d="M275,619.7l1.9,59.4l36-0.1l1.5-59.4L275,619.7z M311.9,118.7
		h-35l-1.3,58.8h38.2L311.9,118.7z M515.3,379.7V419l59.2-2v-35.8L515.3,379.7z M15,381.1v35l58.7,1.4v-38.1L15,381.1z M591.8,39.3
		L591.8,39.3l3.5-3.5L591.8,39.3z"/>
	<path class="st1" d="M694.9,59.7l-19,5.2l0.4-0.4l-68,18.7l18.7-68.1l0,0L631.1,0l-98.5,98.5l0.4,0.4l-14.5,54.2L288.4,391.4
		l13.2,13.2l239.3-230.2l53.3-14.3l0.4,0.4l62.7-62.7l-0.2-0.2L694.9,59.7z M546.3,147l-0.2-0.2l0.3-0.1L546.3,147z"/>
	<circle id="Эллипс_4" class="st2" cx="294.8" cy="397.5" r="278.8"/>
</g>
<path class="st3" d="M797.8,280.9V222h-74.4v24.2h46.8v24.5c-4.8,4.2-10.2,7.5-16.1,9.9c-6.7,2.8-13.8,4.3-21.1,4.2
	c-15.5,0-28.4-5.4-38.7-16.1c-10.3-10.7-15.4-24.4-15.4-40.8c0-16.5,5.1-30,15.4-40.7c10.3-10.7,23.2-16,38.7-16
	c8.2-0.1,16.2,2,23.4,5.9c6.8,3.7,12.7,8.8,17.3,15.1l22.6-12.7c-15.2-21.8-36.3-32.7-63.3-32.7c-23.2,0-42.8,7.5-58.6,22.5
	c-15.8,15-23.8,34.6-23.8,58.7c0,24.2,7.9,43.8,23.8,58.9c15.9,15.1,35.4,22.6,58.6,22.6C759.1,309.4,780.7,299.9,797.8,280.9
	L797.8,280.9z"/>
<path class="st3" d="M963.6,176.7c-1.9-2.5-4-4.8-6.2-7.1c-15.1-15.3-34.3-22.9-57.7-23c-23.4,0-42.6,7.7-57.7,23
	c-15.1,15.3-22.6,34.7-22.6,58.3c0,20.8,5.9,38.3,17.5,52.6c1.6,1.9,3.3,3.8,5.1,5.6c15.1,15.3,34.3,22.9,57.7,22.9
	c23.4,0,42.6-7.7,57.7-22.9s22.6-34.7,22.6-58.2v0C980,207.8,974.5,190.8,963.6,176.7z M860.5,266.9c-7.8-10.2-11.7-22.7-11.6-37.6
	c0-16.5,4.8-30.1,14.2-40.7s22.1-16,37.8-16c15.5,0,28.1,5.3,37.7,16c0.5,0.6,1.1,1.2,1.6,1.9c7.7,10.1,11.6,22.6,11.6,37.4
	c0,16.3-4.8,29.9-14.4,40.6s-22.1,16.1-37.7,16.1c-15.7,0-28.3-5.3-37.8-16v0C861.5,268.1,861,267.5,860.5,266.9
	C860.6,267,860.6,267,860.5,266.9z"/>
<path class="st3" d="M940.2,190.5c-0.5-0.6-1-1.3-1.6-1.9c-9.6-10.7-22.1-16-37.7-16c-15.7,0-28.3,5.3-37.8,16s-14.2,24.2-14.2,40.7
	c0,14.9,3.9,27.4,11.6,37.6c-8.5-10.4-12.8-23.4-12.8-39.1c0-16.5,4.8-30,14.2-40.7c9.5-10.7,22.1-16,37.8-16
	c15.5,0,28.1,5.3,37.7,16C938.4,188.2,939.3,189.3,940.2,190.5z"/>
<path class="st3" d="M1086.2,149.3h-34.4l-61.7,157h31.3l11.5-30.1h72l11.5,30.1h31.3L1086.2,149.3z M1040.7,251.9L1069,177
	l28.2,74.8H1040.7z"/>
<polygon class="st3" points="1261.7,282 1192.5,282 1192.5,149.3 1165,149.3 1165,306.3 1261.7,306.3 1261.7,282 "/>
<path id="Прямоугольник_7_копия_3_1_" class="st4" d="M1218.5,615.8v-86.5h-18v102.3h63v-15.8H1218.5z
	 M1168.5,542.6c-9.8-10-22.3-15-37.6-15c-15.2,0-27.8,5-37.6,15c-9.8,10-14.7,22.7-14.7,38c0,15.3,4.9,28,14.8,37.9
	c9.8,10,22.3,15,37.6,15c15.2,0,27.8-5,37.6-15c9.8-10,14.7-22.7,14.7-38S1178.3,552.6,1168.5,542.6L1168.5,542.6z M1155.5,607
	c-6.3,7-14.5,10.5-24.6,10.5c-10.2,0-18.4-3.5-24.6-10.4c-6.2-7-9.3-15.8-9.3-26.6c0-10.7,3.1-19.6,9.3-26.5
	c6.2-7,14.4-10.4,24.6-10.4c10.1,0,18.3,3.5,24.5,10.4c6.2,7,9.4,15.8,9.4,26.5C1164.8,591.2,1161.7,600,1155.5,607L1155.5,607z
	 M1051.2,542.6c-9.8-10-22.3-15-37.6-15c-15.2,0-27.8,5-37.6,15c-9.8,10-14.7,22.7-14.7,38c0,15.3,4.9,28,14.7,38
	c9.8,10,22.3,15,37.6,15c15.2,0,27.8-5,37.6-15c9.8-10,14.7-22.7,14.7-38C1065.9,565.3,1061,552.6,1051.2,542.6L1051.2,542.6z
	 M1038.2,607c-6.3,7-14.5,10.5-24.6,10.5c-10.2,0-18.4-3.5-24.6-10.4c-6.2-7-9.3-15.8-9.3-26.6c0-10.7,3.1-19.6,9.3-26.5
	c6.2-7,14.4-10.4,24.6-10.4c10.1,0,18.3,3.5,24.5,10.4c6.2,7,9.4,15.8,9.4,26.5C1047.4,591.2,1044.3,600,1038.2,607L1038.2,607z
	 M926.2,529.3v41.9h-53.3v-41.9h-18v102.3h18V587h53.2v44.6h18V529.3H926.2z M814.4,613.4c-4.5,2.7-9.7,4.2-15,4.2
	c-10.1,0-18.5-3.5-25.2-10.4c-6.7-7-10.1-15.8-10.1-26.6c0-10.7,3.4-19.6,10-26.5c6.7-7,15.1-10.4,25.2-10.4c5.3,0,10.5,1.4,15,4.1
	c4.5,2.6,8.2,6.3,10.8,10.8l15.3-7.8c-9.6-15.3-23.3-23-41.1-23c-15.3,0-28.1,4.9-38.4,14.8c-10.2,9.9-15.4,22.5-15.3,38
	c0,15.5,5.1,28.2,15.3,38.1s23,14.8,38.4,14.9c17.6,0,31.3-7.7,41.1-23l-15.3-7.8C822.6,607.1,818.9,610.8,814.4,613.4z
	 M730.4,588.4c-2-3.6-5-6.7-8.5-8.9c-3.7-2.2-7.5-4.1-11.6-5.5c-4.3-1.5-8.5-2.7-12.7-3.8s-8.1-2.1-11.6-3.1c-3.1-0.9-6-2.3-8.5-4.2
	c-2.1-1.5-3.3-3.9-3.3-6.5c-0.1-3.7,1.6-7.2,4.7-9.3c3.1-2.3,7.3-3.5,12.7-3.5c12,0,21.9,3.9,29.6,11.7l10.3-13.3
	c-9.8-9.5-22.6-14.3-38.4-14.3c-11,0-20,2.8-26.9,8.5c-6.9,5.7-10.4,12.8-10.3,21.4c0,7,2,12.6,6.1,17c4.1,4.4,9.3,7.6,15,9.4
	c5.9,1.9,11.7,3.4,17.6,4.8c5.2,1.1,10.2,2.9,14.8,5.5c4.1,2.3,6.1,5.4,6.1,9.3c0,3.9-1.7,7.1-5.1,9.8c-3.4,2.8-8.6,4.1-15.4,4.1
	c-12.3,0.2-24.1-4.9-32.4-14.1l-10,13.8c10.2,10.9,24,16.3,41.6,16.3c13.1,0,23-3,29.6-8.9s10-13.5,10-22.7
	C733.9,597.2,732.7,592.5,730.4,588.4L730.4,588.4z M1263.5,381.7v-12h-53.4v78h53.4v-12.1h-39.7v-21.6h38.9v-12h-38.9v-20.3H1263.5
	z M1158.9,405.7v12h23.3v12.2c-2.4,2.1-5.1,3.7-8,4.9c-3.3,1.4-6.9,2.1-10.5,2.1c-7.3,0.2-14.2-2.7-19.2-8
	c-5.1-5.3-7.7-12.1-7.7-20.3c0-8.2,2.6-14.9,7.7-20.2c5-5.3,12-8.2,19.2-8c4.1,0,8.1,1,11.6,2.9c3.4,1.8,6.3,4.4,8.6,7.5l11.2-6.3
	c-7.6-10.8-18-16.2-31.4-16.2c-11.5,0-21.2,3.7-29.1,11.2c-7.9,7.4-11.8,17.2-11.8,29.2c0,12,3.9,21.7,11.8,29.2
	s17.6,11.2,29.1,11.2c12.9,0,23.7-4.7,32.1-14.1v-29.2H1158.9z M1087.1,369.6h-17.1l-30.6,78h15.5l5.7-15h35.8l5.7,15h15.5
	L1087.1,369.6z M1064.6,420.6l14-37.2l14,37.2L1064.6,420.6z M1017.3,369.6v46.8c0,6.3-1.7,11.3-5.1,15c-3.4,3.7-8.3,5.5-14.7,5.5
	c-6.4,0-11.3-1.8-14.8-5.5c-3.5-3.7-5.2-8.7-5.2-15v-46.8h-13.8v47.2c0,9.9,2.9,17.7,8.6,23.5s14.1,8.7,25.2,8.6
	c11,0,19.3-2.9,25.1-8.6l0,0c5.7-5.8,8.6-13.6,8.6-23.6v-47.1H1017.3z M912.4,405.7v12h23.3v12.2c-2.4,2.1-5.1,3.7-8,4.9
	c-3.3,1.4-6.9,2.1-10.5,2.1c-7.3,0.2-14.3-2.7-19.2-8c-5.1-5.3-7.7-12.1-7.7-20.3s2.6-14.9,7.7-20.2c5-5.3,12-8.2,19.2-8
	c4.1,0,8.1,1,11.6,2.9c3.4,1.8,6.3,4.4,8.6,7.5l11.2-6.3c-7.6-10.8-18-16.2-31.4-16.2c-11.5,0-21.2,3.7-29.1,11.2
	s-11.8,17.2-11.8,29.2c0,12,3.9,21.7,11.8,29.2c7.9,7.5,17.6,11.2,29.1,11.2c12.9,0,23.6-4.7,32.1-14.1v-29.2H912.4z M849.6,369.6
	v54.1l-39.9-54.1h-14v78h13.6V392l40.7,55.6h13.2v-78L849.6,369.6z M756.6,369.6h-17.1l-30.6,78h15.5l5.7-15h35.8l5.7,15h15.5
	L756.6,369.6z M734,420.6l14-37.2l14,37.2L734,420.6z M670.3,435.6v-66h-13.7v78h48v-12.1L670.3,435.6z"/>
</svg>
