<?xml version="1.0" encoding="utf-8"?>
<!-- Generator: Adobe Illustrator 24.1.3, SVG Export Plug-In . SVG Version: 6.00 Build 0)  -->
<svg version="1.1" id="Слой_1" xmlns="http://www.w3.org/2000/svg" xmlns:xlink="http://www.w3.org/1999/xlink" x="0px" y="0px"
	 viewBox="0 0 1920 1139" style="enable-background:new 0 0 1920 1139;" xml:space="preserve">
<style type="text/css">
	.st0{fill-rule:evenodd;clip-rule:evenodd;fill:#FFFFFF;}
</style>
<path id="Фигура_9" class="st0" d="M936-35C872,3.9,808.6,25.1,745,28c-45.2,2.1-78-4.3-124,10c-57.5,17.8-89.2,50.7-129,87
	c-43.6,39.7-92.4,78.5-121,94c-56.5,30.7-128.5,51.1-218,52c-59.6,0.5-118.8-9.3-175-29C-70.4,110.3-73.9,4-27-70
	C77.9-235.6,452.8-269.1,936-35z M2224,672.4c-16.6-2.4-33.1-4.8-49.7-7.3c-39.3-22.7-77.5-45.9-115.2-69.8
	c-52.1-33.1-54.6-33.4-56.8-36.9c-55-87,384.8-404.5,344.3-474.7c-27.2-47.1-282.7-2.3-467,166.8c-147.2,135-98.3,221.1-225.2,329.4
	c-167,142.6-299.6,40.8-638,158.5c-265.8,92.4-210,164.2-450.3,233.5c-292.6,84.3-539.6,25.2-596.3,154.3
	c-13.2,30.1-12.3,61.7-8.3,76.7c29.9,113.9,469.6,170.5,2193-54C2177.6,990.1,2200.8,831.3,2224,672.4z"/>
</svg>
