<?xml version="1.0" encoding="utf-8"?>
<!-- Generator: Adobe Illustrator 24.1.3, SVG Export Plug-In . SVG Version: 6.00 Build 0)  -->
<svg version="1.1" id="Capa_1" xmlns="http://www.w3.org/2000/svg" xmlns:xlink="http://www.w3.org/1999/xlink" x="0px" y="0px"
	 viewBox="0 0 512 512" style="enable-background:new 0 0 512 512;" xml:space="preserve">
<style type="text/css">
	.st0{fill:#00364A;}
</style>
<g>
	<g>
		<g>
			<path class="st0" d="M256,0C114.5,0,0,114.5,0,256c0,141.5,114.5,256,256,256c141.5,0,256-114.5,256-256C512,114.5,397.5,0,256,0
				z M256,403.5c-13.8,0-25-11.2-25-25s11.2-25,25-25s25,11.2,25,25S269.8,403.5,256,403.5z M276,286v32.5c0,11-9,20-20,20
				s-20-9-20-20v-50c0-11,9-20,20-20c22.1,0,40-17.9,40-40s-17.9-40-40-40s-40,17.9-40,40c0,11-9,20-20,20s-20-9-20-20
				c0-44.1,35.9-80,80-80s80,35.9,80,80C336,245.7,310.5,277.1,276,286z"/>
		</g>
	</g>
</g>
</svg>
