<?xml version="1.0" encoding="utf-8"?>
<!-- Generator: Adobe Illustrator 24.1.3, SVG Export Plug-In . SVG Version: 6.00 Build 0)  -->
<svg version="1.1" id="Слой_1" xmlns="http://www.w3.org/2000/svg" xmlns:xlink="http://www.w3.org/1999/xlink" x="0px" y="0px"
	 viewBox="0 0 24 24" style="enable-background:new 0 0 24 24;" xml:space="preserve">
<style type="text/css">
	.st0{fill:#FFFFFF;}
</style>
<path class="st0" d="M23,0.6C23,0.4,22.9,0.1,22.6,0c-0.1,0-0.2,0-0.3,0L1.8,10.8c-0.7,0.4-1,1.3-0.6,2c0.1,0.2,0.3,0.4,0.5,0.6l0,0
	l4.6,2.9c0.1,0.1,0.2,0.1,0.3,0L18.7,5.3c0.1-0.1,0.3-0.1,0.4,0c0.1,0.1,0.1,0.2,0,0.3L9.3,17.9c-0.1,0.1-0.1,0.3,0,0.4c0,0,0,0,0,0
	l6.4,4.1c0.7,0.4,1.6,0.2,2-0.5c0.1-0.1,0.1-0.3,0.2-0.4L23,0.6z"/>
<path class="st0" d="M7.9,19.2c-0.1-0.1-0.3,0-0.3,0.1c0,0,0,0.1,0,0.1c0,1.1,0,3.6,0,3.6c0,0.6,0.4,1,1,1c0.3,0,0.5-0.1,0.7-0.3
	l2-2c0.1-0.1,0.1-0.3,0-0.4c0,0,0,0,0,0L7.9,19.2z"/>
</svg>
