<?xml version="1.0" encoding="UTF-8"?> <svg xmlns="http://www.w3.org/2000/svg" width="77" height="25" viewBox="0 0 77 25" fill="none"> <g clip-path="url(#clip0)"> <path d="M33.3666 24.6394H27.1291L31.0305 0.438721H37.2677L33.3666 24.6394Z" fill="#00579F"></path> <path d="M55.9782 1.03032C54.7479 0.540652 52.7965 0 50.3836 0C44.2239 0 39.8862 3.29524 39.8596 8.00643C39.8084 11.4823 42.9652 13.413 45.3263 14.5719C47.7395 15.7562 48.5598 16.5292 48.5598 17.5849C48.5353 19.2061 46.6098 19.9535 44.814 19.9535C42.3236 19.9535 40.9893 19.5682 38.9615 18.6662L38.1402 18.2795L37.2673 23.712C38.7302 24.3807 41.4256 24.974 44.2239 25C50.7687 25 55.0297 21.7558 55.0801 16.7352C55.105 13.9803 53.4381 11.8694 49.8444 10.1444C47.6628 9.0371 46.3267 8.29045 46.3267 7.15748C46.3523 6.1275 47.4567 5.07254 49.9194 5.07254C51.9472 5.02087 53.4371 5.50986 54.5658 5.99918L55.1299 6.25616L55.9782 1.03032Z" fill="#00579F"></path> <path d="M64.2685 16.0659C64.7821 14.6757 66.7588 9.2948 66.7588 9.2948C66.7328 9.34647 67.2714 7.87884 67.5794 6.97787L68.0153 9.06314C68.0153 9.06314 69.1965 14.856 69.453 16.0659C68.4782 16.0659 65.5005 16.0659 64.2685 16.0659ZM71.9679 0.438721H67.1432C65.6553 0.438721 64.525 0.876033 63.883 2.44666L54.618 24.639H61.1628C61.1628 24.639 62.2403 21.6521 62.4719 21.0088C63.1899 21.0088 69.5567 21.0088 70.4804 21.0088C70.6595 21.8585 71.2247 24.639 71.2247 24.639H77L71.9679 0.438721Z" fill="#00579F"></path> <path d="M21.9192 0.438721L15.8106 16.9413L15.1431 13.5943C14.0137 9.73245 10.4718 5.53659 6.51926 3.45029L12.1145 24.6137H18.7106L28.5149 0.438721H21.9192Z" fill="#00579F"></path> <path d="M10.1383 0.438721H0.102668L0 0.927702C7.82839 2.93598 13.013 7.77687 15.1431 13.5954L12.9615 2.47301C12.6023 0.92736 11.4985 0.489706 10.1383 0.438721Z" fill="#FAA61A"></path> </g> <defs> <clipPath id="clip0"> <rect width="77" height="25" fill="white"></rect> </clipPath> </defs> </svg> 