<?xml version="1.0" encoding="utf-8"?>
<!-- Generator: Adobe Illustrator 24.1.3, SVG Export Plug-In . SVG Version: 6.00 Build 0)  -->
<svg version="1.1" id="Layer_1" xmlns="http://www.w3.org/2000/svg" xmlns:xlink="http://www.w3.org/1999/xlink" x="0px" y="0px"
	 viewBox="0 0 283.5 189.6" style="enable-background:new 0 0 283.5 189.6;" xml:space="preserve">
<style type="text/css">
	.st0{fill-rule:evenodd;clip-rule:evenodd;fill:#00364A;}
</style>
<path class="st0" d="M271.1,184.4c-26.2,5.2-53.8,0-84.3,0c-37.9,0-74.1-2-110.3,0.9c-25.7,2.1-50.9,7.8-71.4,0.9
	c-5.5-8-3.7-18.5-3.7-28.7C1.4,107.4-2.3,57,2.4,7.4C3.1-0.4,13.4,0.8,19,1C29,1.2,38.8,0.2,49.6,0c16.2-0.2,32,3.8,50,6.5
	c32.4,4.9,66,3,99.2,3.7c10.9,0.2,22.4-1.1,31.5,0c5.9,0.7,11.9,3.9,20.4,5.5c12.4,2.3,25.3,2.8,29.6,7.4s1.9,14.5,1.9,24.1
	c0,18.3,2.1,39.1,0.9,54.7C280.8,132.9,271.8,160.9,271.1,184.4z M116.3,73.2c-0.6-20.5-2.7-37.5-3.7-59.3
	C87.1,5.5,61.2,4.2,28.3,4.6C57.3,27.9,88.8,48.6,116.3,73.2z M113.6,75.1C86.8,51.4,55.8,27.2,26.4,9.3
	C54.5,31.6,84.1,57.3,113.6,75.1z M152.5,13c0.5,26.7,2.6,51.7,2.8,78.8c13.1-0.1,20.7-0.3,33.4,0c22.4-17.8,50.5-31.4,76-45.4
	c4.6-2.5,12.8-5.3,13-12c-8.2-0.1-15.4,5.9-23.2,10.2C239.1,52.9,224,62.3,210,71.4c-7.5,4.8-17.2,11.6-23.2,13
	c-7.8,1.8-16.4-4.3-23.2-8.3c-2.4-23.3,2.4-44.7-6.5-63L152.5,13z M171,68.6c27.1-15.5,56.3-29,82.5-45.4
	C227.2,14.8,199,12.6,165.4,13C166,30.4,168.8,50.1,171,68.6z M10.7,13.9c1,7.4,9,9.7,13.9,13.9c20.9,17.8,43,34.6,66.7,49.1
	c-4.3-3.7-8.8-7.6-13.6-11.4c-5.8-4.6-11.5-8.8-17-12.7C43.7,40.2,29.6,24.7,10.7,13.9z M117.2,13.9c-2.5,23.5,3.5,44.3,5.6,68.6
	c-5.7-1.8-89.6-5.2-117.7-6.5v8.3c43.2,5.3,83.6,1.2,125.1,4.7c-3.4-26.8-4.3-45.3-6.5-75.1L117.2,13.9z M6,72.3
	c26.3,3.4,52,1.8,77.8,5.6C60.4,57.5,33.1,40.9,9.8,20.4C9.1,37.4,5.6,53.9,6,72.3z M192.3,62.1c-7.7,3.8-17.5,6.9-21.3,13.9
	c19.3-4.7,33.6-21.5,52.8-27.8c17.3-5.6,29.7-13.5,38.9-24.1C241.6,38.4,215.5,50.6,192.3,62.1L192.3,62.1z M275.6,43.6
	c-23.1,13.1-48.9,23.4-68.6,39.8c19.8-0.1,52.2-2.1,71.3-2.8C279.5,69.4,281.1,51.3,275.6,43.6L275.6,43.6z M234.9,85.3
	c-14.8,0.6-33.2-1.4-39.8,6.5c18.1-1.2,38.6-3.7,58.4-2.8c7.6,0.4,20.9,4.4,26-2.8C267,83.2,250.2,84.6,234.9,85.3L234.9,85.3z
	 M70.9,144.6c-9.9,7.2-19.1,15.2-28.7,22.3c-8.5,6.2-18.6,11.2-25,19.4c24.3-17.4,49.7-33.7,76-49.1c8-8.4,17.4-15.3,27.8-20.4
	c5.2,17.3,4.4,40.7,7.4,60.2h7.4c-0.9-21.9-2.1-45.9-4.6-68.6c-29.3-2.1-76.6-3.3-109.3-1.9c-6,0.3-15.2-1.3-17.6,4.6
	c29.2,9.6,76.3-5.1,107.5,5.6C101.7,129.9,84.4,134.7,70.9,144.6z M156.2,110.3c-0.1,16.6,1.7,34.3,3.7,49.1
	c0.9,6.5,0.1,15.6,4.6,17.6c7.3-2.9,2.4-13,1.9-20.4c-0.9-12.4-0.3-26.5,1.9-36.1c8.2,4.9,17.1,10.9,26.3,18.1
	c9.1,7.1,17,14.2,23.7,20.8c3.9,4.1,9,8.8,15.5,13.3c4.7,3.3,9.2,5.9,13.3,8c-20.1-26.2-51.7-41-75.1-63.9c9.3-5,19.7,0.7,30.6,1.9
	c25.6,2.7,54.1,0.1,74.1,0.9c0.3-3.1,1.5-5.3,0.9-9.3c-42.5-2.9-76.3-0.9-121.4-2.8L156.2,110.3z M5.1,116.8
	c-2,13.3-0.2,32.1-0.9,49.1c27.5-14.2,52.4-30.9,76-49.1C54.3,114.5,31,120.8,5.1,116.8z M32.9,152.9c-4.7,4.6-8.9,6.9-11.9,8.3
	c-1.7,0.7-5.1,2.1-8.3,5.4c-1.1,1.1-1.8,2.2-2.3,2.9c16.1-9.3,32.7-19.3,49.5-30c11.5-7.3,22.5-14.6,33.3-21.8
	C70.2,122.9,55.8,144.5,32.9,152.9z M119.1,122.4c-0.2-0.7-0.8-1.1-1.9-0.9c-28.3,24.8-65.7,40.6-93.6,65.8
	c5.1-1.5,10.8,0.6,16.7-0.9c2.8-0.7,5.3-3.8,8.3-4.6c14-3.8,36.3,0.4,51.9-2.8c6.7-1.3,15-0.7,22.2-0.9
	C119.6,161.6,121.8,138.7,119.1,122.4z M206.2,122.4c17.2,12.1,36.4,30.4,58.4,40.8c4.3-12.7,9.1-24.9,11.1-39.8
	C254.2,123.1,226.6,122.9,206.2,122.4z M262.5,170.7c-9.7-9.5-21.6-19.7-35.9-29.5c-7.3-5-14.5-9.4-21.3-13.2
	c7.9,7.3,14.8,12.9,19.9,16.9c11.8,9.2,21.2,13.8,26.5,18.8c0.7,0.7,3.3,3.2,7.4,5.4C260.5,169.9,261.8,170.4,262.5,170.7z
	 M172.8,176.1c18.6,2.1,45.2,3.9,62.1,1.9c-19.9-17.5-38-36.8-62.1-50.1C168.5,143.5,171.6,159.6,172.8,176.1L172.8,176.1z"/>
<path class="st0" d="M300,170"/>
</svg>
