<?xml version="1.0" encoding="utf-8"?>
<!-- Generator: Adobe Illustrator 24.1.3, SVG Export Plug-In . SVG Version: 6.00 Build 0)  -->
<svg version="1.1" id="Слой_1" xmlns="http://www.w3.org/2000/svg" xmlns:xlink="http://www.w3.org/1999/xlink" x="0px" y="0px"
	 viewBox="0 0 24 24" style="enable-background:new 0 0 24 24;" xml:space="preserve">
<style type="text/css">
	.st0{fill:none;stroke:#6CCDD6;stroke-width:1.5;stroke-linecap:round;stroke-linejoin:round;}
</style>
<line class="st0" x1="0.7" y1="23.3" x2="22.5" y2="23.3"/>
<path class="st0" d="M2.7,18.8h2.8C5.8,18.8,6,19,6,19.3v4l0,0H2.2l0,0v-4C2.2,19,2.5,18.8,2.7,18.8z"/>
<path class="st0" d="M10.2,9.8H13c0.3,0,0.5,0.2,0.5,0.5v13l0,0H9.7l0,0v-13C9.7,10,10,9.8,10.2,9.8z"/>
<path class="st0" d="M17.7,14.3h2.8c0.3,0,0.5,0.2,0.5,0.5v8.5l0,0h-3.8l0,0v-8.5C17.3,14.5,17.5,14.3,17.7,14.3z"/>
<line class="st0" x1="6.9" y1="5.1" x2="2.9" y2="9.1"/>
<line class="st0" x1="14.3" y1="6.3" x2="9.6" y2="5.1"/>
<line class="st0" x1="20.4" y1="2.9" x2="16.8" y2="5.7"/>
<circle class="st0" cx="8.2" cy="4.5" r="1.5"/>
<circle class="st0" cx="21.8" cy="2.3" r="1.5"/>
<circle class="st0" cx="15.8" cy="6.8" r="1.5"/>
<circle class="st0" cx="2.2" cy="10.5" r="1.5"/>
</svg>
