<?xml version="1.0" encoding="utf-8"?>
<!-- Generator: Adobe Illustrator 24.1.3, SVG Export Plug-In . SVG Version: 6.00 Build 0)  -->
<svg version="1.1" id="Слой_1" xmlns="http://www.w3.org/2000/svg" xmlns:xlink="http://www.w3.org/1999/xlink" x="0px" y="0px"
	 viewBox="0 0 24 24" style="enable-background:new 0 0 24 24;" xml:space="preserve">
<style type="text/css">
	.st0{fill:none;stroke:#6CCDD6;stroke-width:1.5;stroke-linecap:round;stroke-linejoin:round;}
</style>
<path class="st0" d="M2.2,0.8h19.5c0.8,0,1.5,0.7,1.5,1.5v15c0,0.8-0.7,1.5-1.5,1.5H2.2c-0.8,0-1.5-0.7-1.5-1.5v-15
	C0.7,1.4,1.4,0.8,2.2,0.8z"/>
<polygon class="st0" points="15.7,23.3 8.2,23.3 9,18.8 15,18.8 "/>
<line class="st0" x1="6" y1="23.3" x2="18" y2="23.3"/>
<line class="st0" x1="18.7" y1="7.5" x2="18.7" y2="9.8"/>
<path class="st0" d="M15.7,8.8v3.9c-1,0.9-2.4,1.5-3.7,1.5c-1.4,0-2.7-0.6-3.8-1.5V8.8"/>
<polygon class="st0" points="5.2,7.5 12,10.5 18.7,7.5 12,4.5 "/>
</svg>
