<?xml version="1.0" encoding="utf-8"?>
<!-- Generator: Adobe Illustrator 24.1.3, SVG Export Plug-In . SVG Version: 6.00 Build 0)  -->
<svg version="1.1" id="Слой_1" xmlns="http://www.w3.org/2000/svg" xmlns:xlink="http://www.w3.org/1999/xlink" x="0px" y="0px"
	 viewBox="0 0 24 24" style="enable-background:new 0 0 24 24;" xml:space="preserve">
<style type="text/css">
	.st0{fill:none;stroke:#6CCDD6;stroke-width:1.5;stroke-linecap:round;stroke-linejoin:round;}
</style>
<path class="st0" d="M20.8,12.8l-8.9,3l-1.2-1.2l-1.8,0.6c-0.4,0.1-0.6,0.6-0.5,0.9c0,0.1,0.1,0.2,0.2,0.3l2.4,2.7
	c0.4,0.4,1,0.6,1.6,0.4l2.6-0.9l-0.5,3.8c-0.1,0.4,0.2,0.8,0.6,0.8c0.1,0,0.2,0,0.3,0l1.4-0.5c0.2-0.1,0.4-0.2,0.5-0.4l2-5.1
	l2.5-0.8c1-0.3,1.5-1.4,1.2-2.4S21.8,12.5,20.8,12.8L20.8,12.8L20.8,12.8z"/>
<path class="st0" d="M18.3,13.6l-2.8-1.9c-0.2-0.1-0.4-0.2-0.7-0.1l-1.3,0.4c-0.4,0.1-0.6,0.6-0.5,1c0,0.1,0.1,0.2,0.2,0.3l1.5,1.5"
	/>
<path class="st0" d="M6,17.9C1.5,15.9-0.5,10.5,1.6,6S9-0.5,13.5,1.6c3.2,1.5,5.3,4.7,5.3,8.2"/>
<path class="st0" d="M4,2.8l5.3,2c0.7,0.3,1.1,1,0.9,1.7L9.9,8.1c-0.1,0.6-0.5,1-1.1,1.2L6.7,9.8l-1.1,2.9c-0.2,0.6-0.6,1-1.1,1.4
	l-1.8,1.3"/>
<path class="st0" d="M16,3.3l-1.5,2.9c-0.2,0.4-0.2,0.8-0.1,1.1L15,9"/>
</svg>
