<svg xmlns="http://www.w3.org/2000/svg" viewBox="0 0 200 205.69"><defs><style>.cls-1{fill:#e3f2fd;}.cls-2{fill:#2962ff;}.cls-3{fill:#42a5f5;}.cls-4{fill:#90caf9;}.cls-5{fill:#bbdefb;}.cls-6{fill:#2196f3;}</style></defs><g id="Слой_2" data-name="Слой 2"><g id="Слой_1-2" data-name="Слой 1"><g id="CUP"><g id="background"><circle class="cls-1" cx="100" cy="105.69" r="100"/></g><g id="noise"><rect class="cls-2" x="12.29" y="200.94" width="163.58" height="2"/><rect class="cls-2" x="182.14" y="200.94" width="5.56" height="2"/><rect class="cls-2" x="97.76" y="17.62" width="6.25" height="2" transform="translate(16.38 76.79) rotate(-45)"/><rect class="cls-2" x="99.89" y="15.5" width="2" height="6.25" transform="translate(16.38 76.8) rotate(-45)"/><path class="cls-2" d="M80.42,7.84,76.5,3.92,80.42,0l3.92,3.92Zm-1.1-3.92L80.42,5l1.09-1.09L80.42,2.83Z"/><path class="cls-2" d="M139.45,24.28l-3.92-3.92,3.92-3.92,3.92,3.92Zm-1.09-3.92,1.09,1.09,1.09-1.09-1.09-1.09Z"/><path class="cls-2" d="M121.35,7.34a3.42,3.42,0,1,1,3.42-3.42A3.42,3.42,0,0,1,121.35,7.34Zm0-4.84a1.42,1.42,0,1,0,1.42,1.42A1.42,1.42,0,0,0,121.35,2.5Z"/><path class="cls-2" d="M57.29,21.36a3.42,3.42,0,1,1,3.42-3.42A3.42,3.42,0,0,1,57.29,21.36Zm0-4.83a1.42,1.42,0,0,0,0,2.83,1.42,1.42,0,1,0,0-2.83Z"/></g><g id="CUP-2" data-name="CUP"><path class="cls-3" d="M100,140.36h0A42.71,42.71,0,0,1,57.29,97.65V40.7h85.42v57A42.71,42.71,0,0,1,100,140.36Z"/><path class="cls-4" d="M82,117.71h2.42a5.85,5.85,0,0,0,5.93-5.52,5.69,5.69,0,0,0-5.69-5.87H75.26a3.36,3.36,0,0,1-3.34-2.88v-.06a3.38,3.38,0,0,1,3.33-3.86h1.08A5.85,5.85,0,0,0,82.26,94a5.7,5.7,0,0,0-5.69-5.87H74.93a3.4,3.4,0,0,1-3.4-3.4h0a3.4,3.4,0,0,1,3.4-3.39H93.68a5.7,5.7,0,0,0,5.7-5.7h0A5.7,5.7,0,0,0,93.68,70H74.93a3.4,3.4,0,0,1-3.4-3.4h0a3.4,3.4,0,0,1,3.4-3.4H82.5a5.85,5.85,0,0,0,5.93-5.52,5.7,5.7,0,0,0-5.69-5.87H74.88a3.35,3.35,0,0,1-3.35-3.35V40.7H57.29v57a42.64,42.64,0,0,0,49.83,42.1A42.64,42.64,0,0,1,79.51,122.5,3,3,0,0,1,82,117.71Z"/><path class="cls-5" d="M78.42,114.13h5.91a2.07,2.07,0,0,0,2.08-1.66,2,2,0,0,0-2-2.34H71.74a7.06,7.06,0,0,1-7-6l0-.17a7,7,0,0,1,7-8h4.55a2.09,2.09,0,0,0,2.08-1.67,2,2,0,0,0-2-2.33h-5a7.12,7.12,0,0,1-7.11-7.12h0a7.11,7.11,0,0,1,7.11-7.11H93.61A2.08,2.08,0,0,0,95.69,76a2,2,0,0,0-2-2.34H71.4a7.11,7.11,0,0,1-7.11-7.11h0a7.11,7.11,0,0,1,7.11-7.11h12a2.08,2.08,0,0,0,2.08-1.67,2,2,0,0,0-2-2.33H71.4a7.12,7.12,0,0,1-7.11-7.12V40.7h-7v57A42.71,42.71,0,0,0,100,140.36c1.19,0,2.37-.06,3.54-.16a42.62,42.62,0,0,1-29.92-15.93A6.21,6.21,0,0,1,78.42,114.13Z"/><path class="cls-6" d="M132.71,40.7H57.29V46H129.8a2.9,2.9,0,0,1,2.91,2.9h0a2.9,2.9,0,0,1-2.91,2.9H109.05a5.85,5.85,0,0,0-5.93,5.52,5.69,5.69,0,0,0,5.69,5.87h20.48a3.42,3.42,0,0,1,3.42,3.42h0A3.42,3.42,0,0,1,129.29,70h-7.75a5.85,5.85,0,0,0-5.93,5.52,5.7,5.7,0,0,0,5.69,5.87h8a3.42,3.42,0,0,1,3.42,3.41h0a3.42,3.42,0,0,1-3.42,3.42H103.63a5.86,5.86,0,0,0-5.93,5.52,5.7,5.7,0,0,0,5.69,5.87H129a3.39,3.39,0,0,1,3.36,3.86l0,.09a3.34,3.34,0,0,1-3.31,2.89H112.85a5.85,5.85,0,0,0-5.93,5.51,5.69,5.69,0,0,0,5.69,5.87h8.87a3.38,3.38,0,0,1,2.73,5.38A42.64,42.64,0,0,1,95,140.05a41.3,41.3,0,0,0,5,.31h0a42.71,42.71,0,0,0,42.71-42.71V40.7Z"/><path class="cls-2" d="M100,141.36A43.76,43.76,0,0,1,56.29,97.65V39.71h87.42V97.65A43.76,43.76,0,0,1,100,141.36ZM58.29,41.71V97.65a41.71,41.71,0,0,0,83.42,0V41.71Z"/><path class="cls-5" d="M152.14,40.7H49.64A5.69,5.69,0,0,1,44,35h0a5.68,5.68,0,0,1,5.69-5.69h102.5A5.69,5.69,0,0,1,157.83,35h0A5.69,5.69,0,0,1,152.14,40.7Z"/><path class="cls-4" d="M44,34.48c0,.17,0,.35,0,.53a5.69,5.69,0,0,0,5.69,5.69h102.5A5.69,5.69,0,0,0,157.83,35a4.58,4.58,0,0,0,0-.53Z"/><path class="cls-2" d="M152.14,41.7H49.64a6.69,6.69,0,1,1,0-13.38h102.5a6.69,6.69,0,1,1,0,13.38ZM49.64,30.32a4.69,4.69,0,1,0,0,9.38h102.5a4.69,4.69,0,1,0,0-9.38Z"/><path class="cls-4" d="M131.25,193.89H68.75a5.7,5.7,0,0,1-5.69-5.7h0a5.69,5.69,0,0,1,5.69-5.69h62.5a5.69,5.69,0,0,1,5.69,5.69h0A5.7,5.7,0,0,1,131.25,193.89Z"/><path class="cls-6" d="M63.08,187.66c0,.17,0,.35,0,.53a5.7,5.7,0,0,0,5.69,5.7h62.5a5.7,5.7,0,0,0,5.69-5.7c0-.18,0-.36,0-.53Z"/><path class="cls-2" d="M131.25,194.89H68.75a6.7,6.7,0,0,1,0-13.39h62.5a6.7,6.7,0,0,1,0,13.39ZM68.75,183.5a4.7,4.7,0,0,0,0,9.39h62.5a4.7,4.7,0,0,0,0-9.39Z"/><path class="cls-6" d="M88.92,155a10.31,10.31,0,0,0-1.44-16.47c9.61,2.42,15.22,2.56,25,0A10.3,10.3,0,0,0,111.08,155Z"/><path class="cls-4" d="M100.21,147.27a10.29,10.29,0,0,0-2.77-7,57.5,57.5,0,0,1-10-1.76A10.31,10.31,0,0,1,88.92,155h7.83A10.27,10.27,0,0,0,100.21,147.27Z"/><path class="cls-2" d="M113.7,156H86.3l2-1.75A9.3,9.3,0,0,0,87,139.34L81.47,136l6.25,1.57c9.69,2.44,15.2,2.44,24.55,0l6.42-1.67-5.64,3.49a9.3,9.3,0,0,0-1.3,14.87Zm-22.53-2h17.66a11.32,11.32,0,0,1,.14-13.6,40.23,40.23,0,0,1-18,0A11.31,11.31,0,0,1,91.17,154Z"/><path class="cls-2" d="M160,99.07h-1v-2h1a30.19,30.19,0,0,0,30.15-30.15,24.13,24.13,0,0,0-7.22-17.11,22.65,22.65,0,0,0-16.43-6.63,23.31,23.31,0,0,0-22.75,23.2h-2a25.32,25.32,0,0,1,24.71-25.2,24.7,24.7,0,0,1,17.87,7.21,26.11,26.11,0,0,1,7.82,18.53A32.18,32.18,0,0,1,160,99.07Z"/><circle class="cls-4" cx="154.6" cy="98.07" r="5.08"/><path class="cls-5" d="M152.45,100.45a5.09,5.09,0,0,1,5.09-5.09,4.84,4.84,0,0,1,1.48.25,5.07,5.07,0,1,0-5.91,7.3A5.13,5.13,0,0,1,152.45,100.45Z"/><path class="cls-2" d="M154.6,104.15a6.08,6.08,0,1,1,6.08-6.08A6.09,6.09,0,0,1,154.6,104.15Zm0-10.16a4.08,4.08,0,1,0,4.08,4.08A4.09,4.09,0,0,0,154.6,94Z"/><path class="cls-2" d="M41.07,99.07H40A32.18,32.18,0,0,1,7.89,66.92,26.14,26.14,0,0,1,15.7,48.39a24.68,24.68,0,0,1,17.88-7.21,25.32,25.32,0,0,1,24.71,25.2h-2a23.32,23.32,0,0,0-22.75-23.2A22.67,22.67,0,0,0,17.1,49.81,24.16,24.16,0,0,0,9.89,66.92,30.19,30.19,0,0,0,40,97.07h1Z"/><circle class="cls-4" cx="45.5" cy="98.07" r="5.08"/><path class="cls-5" d="M43.79,101a5.07,5.07,0,0,1,5.08-5.08,4.71,4.71,0,0,1,1.31.19,5.08,5.08,0,1,0-6,6.86A5.13,5.13,0,0,1,43.79,101Z"/><path class="cls-2" d="M45.5,104.15a6.08,6.08,0,1,1,6.08-6.08A6.09,6.09,0,0,1,45.5,104.15ZM45.5,94a4.08,4.08,0,1,0,4.08,4.08A4.09,4.09,0,0,0,45.5,94Z"/><rect class="cls-4" x="78.65" y="154.96" width="42.71" height="27.54"/><path class="cls-6" d="M90.38,158.73h31V155H78.65V182.5h3.77V166.69A8,8,0,0,1,90.38,158.73Z"/><path class="cls-2" d="M122.35,183.5H77.65V154h44.7Zm-42.7-2h40.7V156H79.65Z"/><rect class="cls-2" x="87.07" y="163.19" width="25.86" height="2"/><rect class="cls-2" x="87.07" y="172.53" width="16.86" height="2"/><rect class="cls-2" x="109.09" y="172.53" width="3.86" height="2"/></g></g></g></g></svg>