<?xml version="1.0" encoding="utf-8"?>
<!-- Generator: Adobe Illustrator 24.1.3, SVG Export Plug-In . SVG Version: 6.00 Build 0)  -->
<svg version="1.1" id="Слой_1" xmlns="http://www.w3.org/2000/svg" xmlns:xlink="http://www.w3.org/1999/xlink" x="0px" y="0px"
	 viewBox="0 0 200 205.7" style="enable-background:new 0 0 200 205.7;" xml:space="preserve">
<style type="text/css">
	.st0{fill:#E3F2FD;}
	.st1{fill:#1270FF;}
	.st2{stroke:#000000;stroke-miterlimit:10;}
	.st3{fill:#BBDEFB;}
</style>
<g id="Слой_2_1_">
	<g id="Слой_1-2">
		<g id="CUP">
			<g id="background">
				<circle class="st0" cx="100" cy="105.7" r="100"/>
			</g>
			<g id="noise">
				<rect x="12.3" y="200.9" class="st1" width="163.6" height="2"/>
				<rect x="182.1" y="200.9" class="st1" width="5.6" height="2"/>
				
					<rect x="97.8" y="17.6" transform="matrix(0.7071 -0.7071 0.7071 0.7071 16.3817 76.7885)" class="st1" width="6.3" height="2"/>
				
					<rect x="99.9" y="15.5" transform="matrix(0.7071 -0.7071 0.7071 0.7071 16.3767 76.7965)" class="st1" width="2" height="6.3"/>
				<path class="st1" d="M80.4,7.8l-3.9-3.9L80.4,0l3.9,3.9L80.4,7.8z M79.3,3.9L80.4,5l1.1-1.1l-1.1-1.1L79.3,3.9z"/>
				<path class="st1" d="M139.4,24.3l-3.9-3.9l3.9-3.9l3.9,3.9L139.4,24.3z M138.4,20.4l1.1,1.1l1.1-1.1l-1.1-1.1L138.4,20.4z"/>
				<path class="st1" d="M121.3,7.3c-1.9,0-3.4-1.5-3.4-3.4c0-1.9,1.5-3.4,3.4-3.4c1.9,0,3.4,1.5,3.4,3.4c0,0,0,0,0,0
					C124.8,5.8,123.2,7.3,121.3,7.3z M121.3,2.5c-0.8,0-1.4,0.6-1.4,1.4c0,0.8,0.6,1.4,1.4,1.4c0.8,0,1.4-0.6,1.4-1.4c0,0,0,0,0,0
					C122.8,3.1,122.1,2.5,121.3,2.5z"/>
				<path class="st1" d="M57.3,21.4c-1.9,0-3.4-1.5-3.4-3.4s1.5-3.4,3.4-3.4s3.4,1.5,3.4,3.4v0C60.7,19.8,59.2,21.4,57.3,21.4z
					 M57.3,16.5c-0.8,0.1-1.4,0.8-1.3,1.5c0.1,0.7,0.6,1.2,1.3,1.3c0.8,0.1,1.5-0.5,1.5-1.3c0.1-0.8-0.5-1.5-1.3-1.5
					C57.4,16.5,57.4,16.5,57.3,16.5z"/>
			</g>
			<g id="CUP-2">
				<path class="st1" d="M117.1,42.2c-19.6-0.2-39.2-0.3-58.8-0.5c0,1.9,0,3.8,0,5.8c18.6,0,37.2,0,55.8,0c1.6,0,2.9,1.3,2.9,2.9
					c0,0,0,0,0,0c0,1.6-1.3,2.9-2.9,2.9c0,0,0,0,0,0H93.4c-3.1,0-5.8,2.4-5.9,5.5c-0.1,3.1,2.4,5.8,5.5,5.9c0.1,0,0.1,0,0.2,0h20.5
					c1.9,0,3.4,1.5,3.4,3.4c0,1.9-1.5,3.4-3.4,3.4h-7.8c-3.1,0-5.8,2.4-5.9,5.5c-0.1,3.1,2.4,5.8,5.5,5.9c0.1,0,0.1,0,0.2,0h8
					c1.9,0,3.4,1.5,3.4,3.4c0,1.9-1.5,3.4-3.4,3.4H88c-3.1,0-5.7,2.4-5.9,5.5c-0.1,3.1,2.4,5.8,5.5,5.9c0.1,0,0.1,0,0.2,0h25.6
					c1.9,0,3.4,1.5,3.4,3.4c0,0.2,0,0.3,0,0.5v0.1c-0.2,1.7-1.6,2.9-3.3,2.9H97.2c-3.1,0-5.7,2.4-5.9,5.5c-0.1,3.1,2.4,5.8,5.5,5.9
					c0.1,0,0.1,0,0.2,0h8.9c2.2,1.2,3,2.5,3.4,3.4c2.2,5.3-5,12-6.3,13.2c-2.7,2.4-5.4,3.7-7.1,4.4c2.7,0.2,19.4,1.2,33-11.5
					c12.4-11.5,13.5-26.3,13.7-29.4c0.1-19.2,0.1-38.4,0.2-57.7C134.1,41.9,125.6,42,117.1,42.2z"/>
				<path class="st2" d="M100,141.4c-24.1,0-43.7-19.6-43.7-43.7V39.7h87.4v57.9C143.7,121.8,124.1,141.3,100,141.4z M58.3,41.7
					v55.9c0,23,18.7,41.7,41.7,41.7c23,0,41.7-18.7,41.7-41.7V41.7H58.3z"/>
				<path class="st3" d="M152.1,40.7H49.6c-3.1,0-5.6-2.6-5.6-5.7l0,0c0-3.1,2.5-5.7,5.7-5.7c0,0,0,0,0,0h102.5
					c3.1,0,5.6,2.6,5.6,5.7l0,0C157.8,38.1,155.3,40.7,152.1,40.7C152.1,40.7,152.1,40.7,152.1,40.7z"/>
				<path class="st1" d="M44,34.5c0,0.2,0,0.3,0,0.5c0,3.1,2.5,5.7,5.7,5.7h102.5c3.1,0,5.6-2.6,5.6-5.7c0-0.2,0-0.4,0-0.5L44,34.5z
					"/>
				<path class="st2" d="M152.1,41.7H49.6c-3.7,0-6.7-3-6.7-6.7c0-3.7,3-6.7,6.7-6.7h102.5c3.7,0,6.7,3,6.7,6.7
					C158.8,38.7,155.8,41.7,152.1,41.7z M49.6,30.3c-2.6,0-4.7,2.1-4.7,4.7c0,2.6,2.1,4.7,4.7,4.7h102.5c2.6,0,4.7-2.1,4.7-4.7
					c0-2.6-2.1-4.7-4.7-4.7H49.6z"/>
				<path class="st1" d="M63.1,187.7c0,0.2,0,0.4,0,0.5c0,3.1,2.5,5.7,5.7,5.7h62.5c3.1,0,5.7-2.6,5.7-5.7c0-0.2,0-0.4,0-0.5H63.1z"
					/>
				<path class="st2" d="M131.3,194.9H68.8c-3.7-0.1-6.6-3.3-6.4-7c0.1-3.5,2.9-6.3,6.4-6.4h62.5c3.7,0.1,6.6,3.3,6.4,7
					C137.6,192,134.7,194.8,131.3,194.9z M68.8,183.5c-2.6,0.1-4.6,2.3-4.5,4.9c0.1,2.4,2.1,4.4,4.5,4.5h62.5
					c2.6-0.1,4.6-2.3,4.5-4.9c-0.1-2.4-2.1-4.4-4.5-4.5H68.8z"/>
				<path class="st1" d="M88.9,155c4.3-3.8,4.6-10.3,0.8-14.6c-0.7-0.7-1.4-1.4-2.3-1.9c9.6,2.4,15.2,2.6,25,0
					c-4.8,3-6.3,9.3-3.3,14.2c0.5,0.9,1.2,1.6,1.9,2.3H88.9z"/>
				<path class="st2" d="M113.7,156H86.3l2-1.8c3.9-3.4,4.2-9.3,0.8-13.1c-0.6-0.7-1.3-1.3-2.1-1.8l-5.5-3.3l6.3,1.6
					c9.7,2.4,15.2,2.4,24.6,0l6.4-1.7l-5.6,3.5c-4.4,2.7-5.7,8.4-3,12.8c0.5,0.8,1.1,1.5,1.7,2.1L113.7,156z M91.2,154h17.7
					c-3-4.1-2.9-9.6,0.1-13.6c-5.9,1.4-12.1,1.4-18,0C94.1,144.4,94.1,149.9,91.2,154z"/>
				<path class="st2" d="M160,99.1h-1v-2h1c16.6,0,30.1-13.5,30.1-30.2c0-6.4-2.6-12.6-7.2-17.1c-4.3-4.3-10.3-6.7-16.4-6.6
					c-12.6,0.3-22.7,10.6-22.8,23.2h-2c0.1-13.7,11-24.9,24.7-25.2c6.7-0.1,13.1,2.5,17.9,7.2c5,4.9,7.8,11.6,7.8,18.5
					C192.1,84.7,177.7,99.1,160,99.1z"/>
				<circle class="st1" cx="154.6" cy="98.1" r="5.1"/>
				<path class="st3" d="M152.4,100.4c0-2.8,2.3-5.1,5.1-5.1c0.5,0,1,0.1,1.5,0.3c-1.4-2.5-4.4-3.3-6.9-2s-3.3,4.4-2,6.9
					c0.6,1.2,1.7,2,3,2.4C152.7,102.2,152.5,101.3,152.4,100.4z"/>
				<path class="st2" d="M154.6,104.2c-3.4,0-6.1-2.7-6.1-6.1s2.7-6.1,6.1-6.1c3.4,0,6.1,2.7,6.1,6.1
					C160.7,101.4,158,104.1,154.6,104.2z M154.6,94c-2.3,0-4.1,1.8-4.1,4.1s1.8,4.1,4.1,4.1c2.3,0,4.1-1.8,4.1-4.1
					C158.7,95.8,156.8,94,154.6,94L154.6,94z"/>
				<path class="st2" d="M41.1,99.1H40C22.3,99,7.9,84.7,7.9,66.9c0-7,2.8-13.6,7.8-18.5c4.7-4.7,11.2-7.3,17.9-7.2
					c13.7,0.3,24.6,11.5,24.7,25.2h-2c-0.1-12.6-10.1-22.9-22.8-23.2c-6.2-0.1-12.1,2.3-16.4,6.6c-4.6,4.5-7.2,10.7-7.2,17.1
					C9.9,83.5,23.4,97,40,97.1h1L41.1,99.1z"/>
				<circle class="st1" cx="45.5" cy="98.1" r="5.1"/>
				<path class="st3" d="M43.8,101c0-2.8,2.3-5.1,5.1-5.1c0,0,0,0,0,0c0.4,0,0.9,0.1,1.3,0.2c-1.1-2.6-4.1-3.8-6.6-2.7
					s-3.8,4.1-2.7,6.6c0.6,1.5,1.9,2.5,3.4,3C43.9,102.3,43.8,101.7,43.8,101z"/>
				<path class="st2" d="M45.5,104.2c-3.4,0-6.1-2.7-6.1-6.1s2.7-6.1,6.1-6.1c3.4,0,6.1,2.7,6.1,6.1
					C51.6,101.4,48.9,104.1,45.5,104.2z M45.5,94c-2.3,0-4.1,1.8-4.1,4.1s1.8,4.1,4.1,4.1c2.3,0,4.1-1.8,4.1-4.1
					C49.6,95.8,47.8,94,45.5,94z"/>
				<path class="st1" d="M90.4,158.7h31V155H78.7v27.5h3.8v-15.8C82.4,162.3,86,158.8,90.4,158.7z"/>
				<path class="st2" d="M122.3,183.5H77.7V154h44.7L122.3,183.5z M79.6,181.5h40.7V156H79.7L79.6,181.5z"/>
				<path class="st2" d="M87.4,163.2h25.3c0.2,0,0.3,0.1,0.3,0.3v1.4c0,0.2-0.1,0.3-0.3,0.3H87.4c-0.2,0-0.3-0.1-0.3-0.3v-1.4
					C87.1,163.3,87.2,163.2,87.4,163.2z"/>
				<path class="st2" d="M87.4,172.5h16.3c0.2,0,0.3,0.1,0.3,0.3v1.4c0,0.2-0.1,0.3-0.3,0.3H87.4c-0.2,0-0.3-0.1-0.3-0.3v-1.4
					C87.1,172.7,87.2,172.5,87.4,172.5z"/>
				<path class="st2" d="M109.4,172.5h3.3c0.2,0,0.3,0.1,0.3,0.3v1.4c0,0.2-0.1,0.3-0.3,0.3h-3.3c-0.2,0-0.3-0.1-0.3-0.3v-1.4
					C109.1,172.7,109.2,172.5,109.4,172.5z"/>
			</g>
		</g>
	</g>
</g>
</svg>
