<svg xmlns="http://www.w3.org/2000/svg" viewBox="0 0 200 200"><defs><style>.cls-1{fill:#e3f2fd;}.cls-2{fill:#2962ff;}.cls-3{fill:#90caf9;}.cls-4{fill:#42a5f5;}.cls-5{fill:#fff;}</style></defs><g id="Слой_2" data-name="Слой 2"><g id="Слой_1-2" data-name="Слой 1"><g id="IDEA"><g id="background"><circle class="cls-1" cx="100" cy="100" r="100"/></g><g id="noise"><rect class="cls-2" x="12.29" y="195.25" width="163.58" height="2"/><rect class="cls-2" x="182.14" y="195.25" width="5.56" height="2"/><rect class="cls-2" x="30.35" y="47.31" width="2" height="6.25"/><rect class="cls-2" x="28.22" y="49.44" width="6.25" height="2"/><rect class="cls-2" x="49.33" y="161.47" width="6.25" height="2" transform="translate(-99.52 84.68) rotate(-45)"/><rect class="cls-2" x="51.46" y="159.35" width="2" height="6.25" transform="translate(-99.53 84.69) rotate(-45)"/><path class="cls-2" d="M148,168.1a3.32,3.32,0,1,1,3.32-3.31A3.32,3.32,0,0,1,148,168.1Zm0-4.63a1.32,1.32,0,1,0,1.32,1.32A1.32,1.32,0,0,0,148,163.47Z"/><path class="cls-2" d="M127.54,19.73l-3.92-3.92,3.92-3.92,3.92,3.92Zm-1.09-3.92,1.09,1.1,1.09-1.1-1.09-1.09Z"/><path class="cls-2" d="M180,120.28l-3.92-3.92,3.92-3.92,3.92,3.92Zm-1.09-3.92,1.09,1.1,1.09-1.1L180,115.27Z"/><path class="cls-2" d="M176.28,60.42A3.42,3.42,0,1,1,179.7,57,3.42,3.42,0,0,1,176.28,60.42Zm0-4.83A1.42,1.42,0,1,0,177.7,57,1.43,1.43,0,0,0,176.28,55.59Z"/><path class="cls-2" d="M20.19,120.54a3.42,3.42,0,1,1,3.41-3.42A3.42,3.42,0,0,1,20.19,120.54Zm0-4.84a1.42,1.42,0,1,0,1.41,1.42A1.43,1.43,0,0,0,20.19,115.7Z"/><path class="cls-2" d="M70,14.93a3.42,3.42,0,1,1,3.42-3.42A3.42,3.42,0,0,1,70,14.93Zm0-4.83a1.42,1.42,0,0,0,0,2.83,1.42,1.42,0,1,0,0-2.83Z"/></g><g id="idea-2" data-name="idea"><path class="cls-3" d="M122.14,144.34v5.53H77.86v-5.53c0-11.93-3.44-22.06-11.73-30.65A46.74,46.74,0,0,1,52.94,81.05c0-24.73,19.81-45.68,44.51-47a47,47,0,0,1,36.41,79.64C125.57,122.28,122.14,132.41,122.14,144.34Z"/><path class="cls-4" d="M88.27,113.69a46.8,46.8,0,0,1-13.2-32.64,47.51,47.51,0,0,1,36-45.72,47.32,47.32,0,0,0-13.64-1.26c-24.7,1.3-44.5,22.25-44.51,47a46.74,46.74,0,0,0,13.19,32.64c8.29,8.59,11.73,18.72,11.73,30.65v5.53H100v-5.53C100,132.41,96.56,122.28,88.27,113.69Z"/><circle class="cls-5" cx="100" cy="81.07" r="35.3"/><path class="cls-1" d="M74.7,81.07A35.3,35.3,0,0,1,105,46.13a35.77,35.77,0,0,0-5-.36,35.3,35.3,0,1,0,0,70.59,34.32,34.32,0,0,0,5-.36A35.29,35.29,0,0,1,74.7,81.07Z"/><path class="cls-1" d="M100,45.77a35.77,35.77,0,0,0-5,.36A35.29,35.29,0,0,1,95,116a34.32,34.32,0,0,0,5,.36,35.3,35.3,0,1,0,0-70.59Z"/><rect class="cls-2" x="99" y="11.51" width="2" height="11.07"/><path class="cls-2" d="M108.43,116.38l-.47-1.95A34.3,34.3,0,1,0,65.7,81.07a34.48,34.48,0,0,0,19.58,31l-.86,1.81a36.31,36.31,0,1,1,42.82-8.8A36.1,36.1,0,0,1,108.43,116.38Z"/><path class="cls-2" d="M92,116.47a34.3,34.3,0,0,1-4.07-1.17l.67-1.88a34.91,34.91,0,0,0,3.84,1.1Z"/><rect class="cls-2" x="28.05" y="79.69" width="13.84" height="2"/><rect class="cls-2" x="158.11" y="79.69" width="13.84" height="2"/><polygon class="cls-2" points="113.07 90.87 100 75.19 86.93 90.87 85.4 89.59 100 72.06 114.6 89.59 113.07 90.87"/><path class="cls-2" d="M100,158.94H83.4a6.54,6.54,0,0,1-6.54-6.53v-8.07A44.22,44.22,0,0,0,65,113.91a48.06,48.06,0,1,1,70.45-.39,45.56,45.56,0,0,0-12.27,30.82v6.53H99V73.63h2v75.24h20.14v-4.53a47.55,47.55,0,0,1,12.8-32.18,46.07,46.07,0,1,0-67.53.38,46.18,46.18,0,0,1,12.45,31.8v8.07a4.54,4.54,0,0,0,4.54,4.53H100Z"/><rect class="cls-2" x="139.79" y="34.03" width="11.74" height="2" transform="translate(17.89 113.25) rotate(-45)"/><rect class="cls-2" x="53.34" y="29.16" width="2" height="11.74" transform="translate(-8.86 48.68) rotate(-45)"/><rect class="cls-2" x="146.04" y="119.91" width="2" height="15.65" transform="translate(-47.25 141.4) rotate(-45)"/><rect class="cls-2" x="45.13" y="126.74" width="15.65" height="2" transform="translate(-74.81 74.86) rotate(-45)"/><path class="cls-2" d="M89.7,175.08H87.43a5,5,0,0,1,0-10.07H116.1a3,3,0,1,0,0-6.07H100v-2h16.1a5,5,0,1,1,0,10.07H87.43a3,3,0,0,0,0,6.07H89.7Z"/><path class="cls-2" d="M100.5,177.85a3.77,3.77,0,1,1,3.77-3.77A3.77,3.77,0,0,1,100.5,177.85Zm0-5.54a1.77,1.77,0,1,0,1.77,1.77A1.78,1.78,0,0,0,100.5,172.31Z"/><rect class="cls-2" x="92.5" y="173.08" width="1.87" height="2"/></g></g></g></g></svg>