<?xml version="1.0" encoding="utf-8"?>
<!-- Generator: Adobe Illustrator 24.1.3, SVG Export Plug-In . SVG Version: 6.00 Build 0)  -->
<svg version="1.1" id="Слой_1" xmlns="http://www.w3.org/2000/svg" xmlns:xlink="http://www.w3.org/1999/xlink" x="0px" y="0px"
	 viewBox="0 0 200 200" style="enable-background:new 0 0 200 200;" xml:space="preserve">
<style type="text/css">
	.st0{fill:#E3F2FD;}
	.st1{fill:#1270FF;}
	.st2{fill:#2962FF;}
	.st3{fill:#FFFFFF;}
	.st4{stroke:#000000;stroke-miterlimit:10;}
	.st5{stroke:#000000;stroke-width:2;stroke-miterlimit:10;}
</style>
<g id="Слой_2_1_">
	<g id="Слой_1-2">
		<g id="IDEA">
			<g id="background">
				<circle class="st0" cx="100" cy="100" r="100"/>
			</g>
			<g id="noise">
				<rect x="12.3" y="195.3" class="st1" width="163.6" height="2"/>
				<rect x="182.1" y="195.3" class="st1" width="5.6" height="2"/>
				<rect x="30.4" y="47.3" class="st2" width="2" height="6.3"/>
				<rect x="28.2" y="49.4" class="st2" width="6.3" height="2"/>
				
					<rect x="49.3" y="161.5" transform="matrix(0.7071 -0.7071 0.7071 0.7071 -99.5216 84.6783)" class="st2" width="6.3" height="2"/>
				
					<rect x="51.5" y="159.4" transform="matrix(0.7071 -0.7071 0.7071 0.7071 -99.5295 84.6791)" class="st2" width="2" height="6.3"/>
				<path class="st2" d="M148,168.1c-1.8,0-3.3-1.5-3.3-3.3s1.5-3.3,3.3-3.3s3.3,1.5,3.3,3.3c0,0,0,0,0,0
					C151.3,166.6,149.8,168.1,148,168.1z M148,163.5c-0.7,0-1.3,0.6-1.3,1.3s0.6,1.3,1.3,1.3c0.7,0,1.3-0.6,1.3-1.3
					C149.3,164.1,148.7,163.5,148,163.5L148,163.5z"/>
				<path class="st2" d="M127.5,19.7l-3.9-3.9l3.9-3.9l3.9,3.9L127.5,19.7z M126.5,15.8l1.1,1.1l1.1-1.1l-1.1-1.1L126.5,15.8z"/>
				<path class="st2" d="M180,120.3l-3.9-3.9l3.9-3.9l3.9,3.9L180,120.3z M178.9,116.4l1.1,1.1l1.1-1.1l-1.1-1.1L178.9,116.4z"/>
				<path class="st2" d="M176.3,60.4c-1.9,0-3.4-1.5-3.4-3.4s1.5-3.4,3.4-3.4c1.9,0,3.4,1.5,3.4,3.4v0
					C179.7,58.9,178.2,60.4,176.3,60.4z M176.3,55.6c-0.8,0-1.4,0.6-1.4,1.4s0.6,1.4,1.4,1.4c0.8,0,1.4-0.6,1.4-1.4c0,0,0,0,0,0
					C177.7,56.2,177.1,55.6,176.3,55.6z"/>
				<path class="st2" d="M20.2,120.5c-1.9,0-3.4-1.5-3.4-3.4c0-1.9,1.5-3.4,3.4-3.4s3.4,1.5,3.4,3.4c0,0,0,0,0,0
					C23.6,119,22.1,120.5,20.2,120.5z M20.2,115.7c-0.8,0-1.4,0.6-1.4,1.4c0,0.8,0.6,1.4,1.4,1.4s1.4-0.6,1.4-1.4c0,0,0,0,0,0
					C21.6,116.3,21,115.7,20.2,115.7z"/>
				<path class="st2" d="M70,14.9c-1.9,0-3.4-1.5-3.4-3.4c0-1.9,1.5-3.4,3.4-3.4c1.9,0,3.4,1.5,3.4,3.4c0,0,0,0,0,0
					C73.4,13.4,71.9,14.9,70,14.9z M70,10.1c-0.8,0.1-1.4,0.8-1.3,1.5c0.1,0.7,0.6,1.2,1.3,1.3c0.8,0.1,1.5-0.5,1.5-1.3
					c0.1-0.8-0.5-1.5-1.3-1.5C70.2,10.1,70.1,10.1,70,10.1z"/>
			</g>
			<g id="idea-2">
				<path class="st1" d="M122.1,144.3v5.5H77.9v-5.5c0-11.9-3.4-22.1-11.7-30.7c-8.5-8.7-13.2-20.5-13.2-32.6
					c0-24.7,19.8-45.7,44.5-47c25.9-1.5,48.1,18.3,49.6,44.3c0.7,13.1-4,25.9-13.2,35.4C125.6,122.3,122.1,132.4,122.1,144.3z"/>
				<path class="st1" d="M88.3,113.7c-8.5-8.7-13.2-20.5-13.2-32.6c0.2-21.7,15-40.5,36-45.7c-4.5-1.1-9.1-1.5-13.6-1.3
					c-24.7,1.3-44.5,22.3-44.5,47c0,12.2,4.7,23.9,13.2,32.6c8.3,8.6,11.7,18.7,11.7,30.6v5.5H100v-5.5
					C100,132.4,96.6,122.3,88.3,113.7z"/>
				<circle class="st3" cx="100" cy="81.1" r="35.3"/>
				<path class="st0" d="M74.7,81.1c0-17.6,12.9-32.5,30.3-34.9c-1.7-0.2-3.3-0.4-5-0.4C80.5,45.4,64.4,61,64.1,80.5
					s15.2,35.6,34.7,35.9c0.4,0,0.8,0,1.2,0c1.7,0,3.3-0.1,5-0.4C87.6,113.5,74.7,98.6,74.7,81.1z"/>
				<rect x="99" y="11.5" class="st2" width="2" height="11.1"/>
				<path class="st4" d="M108.4,116.1l-0.3-1.3c0-0.2,0.1-0.4,0.2-0.4c18.3-4.6,29.6-23.1,25-41.5C129.2,56.2,113.1,45,96.1,47
					C78.5,49,65.7,63.8,65.7,81.1c0,13.1,7.5,25.1,19.3,30.9c0.1,0.1,0.2,0.2,0.1,0.4l-0.6,1.3c-0.1,0.1-0.3,0.2-0.4,0.1
					C65.5,104.7,58,81.7,68.4,63.2c8.8-15.6,28.1-22.5,44.8-16c19.8,7.8,28.6,30.5,19.6,49.4c-1.4,3.1-3.3,5.9-5.6,8.4
					c-4.9,5.5-11.3,9.5-18.5,11.2C108.6,116.3,108.4,116.2,108.4,116.1z"/>
				<path class="st4" d="M91.7,116.4c-1.2-0.3-2.3-0.6-3.5-1c-0.2-0.1-0.2-0.2-0.2-0.4l0.5-1.3c0.1-0.2,0.2-0.2,0.4-0.2
					c1.1,0.4,2.2,0.7,3.3,0.9c0.2,0,0.3,0.2,0.2,0.4l-0.3,1.3C92,116.3,91.9,116.4,91.7,116.4z"/>
				<rect x="28" y="79.7" class="st2" width="13.8" height="2"/>
				<rect x="158.1" y="79.7" class="st2" width="13.8" height="2"/>
				<path class="st5" d="M118.8,96.5l-18-21.6c-0.4-0.5-1.3-0.5-1.7,0l-18,21.6c-0.4,0.5-1.1,0.5-1.6,0.1L79,96.1
					c-0.5-0.4-0.5-1.1-0.1-1.5l20.3-24.4c0.4-0.5,1.3-0.5,1.7,0l20.3,24.4c0.4,0.5,0.3,1.2-0.1,1.5l-0.6,0.5
					C119.9,97,119.2,96.9,118.8,96.5z"/>
				<path class="st4" d="M100,158.9H83.4c-3.6,0-6.5-2.9-6.5-6.5v-8.1c0.1-11.3-4.2-22.2-11.9-30.4C46.8,94.6,47.8,64.1,67.2,46
					s49.8-17.2,67.9,2.2c17.2,18.3,17.4,46.9,0.4,65.4c-7.8,8.4-12.2,19.4-12.3,30.8v6.5H99V73.6h2v75.2h20.1v-4.5
					c0.1-12,4.6-23.4,12.8-32.2c17.2-18.7,16-47.9-2.8-65.1s-47.9-16-65.1,2.8C49.8,67.6,49.9,95,66.4,112.5
					c8.1,8.6,12.5,20,12.4,31.8v8.1c0,2.5,2,4.5,4.5,4.5H100V158.9z"/>
				
					<rect x="139.8" y="34" transform="matrix(0.7071 -0.7071 0.7071 0.7071 17.8971 113.2531)" class="st2" width="11.7" height="2"/>
				
					<rect x="53.3" y="29.2" transform="matrix(0.7071 -0.7071 0.7071 0.7071 -8.8529 48.6788)" class="st2" width="2" height="11.7"/>
				
					<rect x="146" y="119.9" transform="matrix(0.7071 -0.7071 0.7071 0.7071 -47.2638 141.3936)" class="st2" width="2" height="15.6"/>
				
					<rect x="45.1" y="126.7" transform="matrix(0.7071 -0.7071 0.7071 0.7071 -74.8147 74.8633)" class="st2" width="15.6" height="2"/>
				<path class="st4" d="M89.7,175.1h-2.3c-2.8,0-5-2.3-5-5c0-2.8,2.3-5,5-5h28.7c1.7,0,3-1.4,3-3s-1.4-3-3-3H100v-2h16.1
					c2.8,0,5,2.3,5,5s-2.3,5-5,5H87.4c-1.7,0-3,1.4-3,3s1.4,3,3,3h2.3V175.1z"/>
				<path d="M100.5,177.9c-2.1,0-3.8-1.7-3.8-3.8c0-2.1,1.7-3.8,3.8-3.8c2.1,0,3.8,1.7,3.8,3.8S102.6,177.9,100.5,177.9L100.5,177.9
					z M100.5,172.3c-1,0-1.8,0.8-1.8,1.8c0,1,0.8,1.8,1.8,1.8c1,0,1.8-0.8,1.8-1.8C102.3,173.1,101.5,172.3,100.5,172.3L100.5,172.3
					z"/>
				<rect x="92.5" y="173.1" class="st4" width="1.9" height="2"/>
			</g>
		</g>
	</g>
</g>
</svg>
