<svg id="Слой_1" data-name="Слой 1" xmlns="http://www.w3.org/2000/svg" viewBox="0 0 100.13 98"><defs><style>.cls-1{fill:#fff;}.cls-2,.cls-3,.cls-4,.cls-5{stroke:#000;stroke-miterlimit:10;}.cls-2{stroke-width:0.5px;}.cls-3{stroke-width:0.25px;}.cls-4{font-size:4.7px;font-family:ProximaNova-Semibold, Proxima Nova;font-weight:600;}.cls-4,.cls-5{stroke-width:0.05px;}.cls-5{font-size:3.75px;font-family:Calibri;}.cls-6{fill:#00364a;}.cls-7{fill-rule:evenodd;}</style></defs><circle class="cls-1" cx="50" cy="49" r="47"/><path d="M50,5A45,45,0,1,1,5,50,45,45,0,0,1,50,5m0-4A49,49,0,1,0,99,50,49.05,49.05,0,0,0,50,1Z" transform="translate(0 -1)"/><rect x="4" y="47" width="10" height="4"/><rect x="86" y="47" width="10" height="4"/><rect x="48" y="3" width="4" height="10"/><rect x="48" y="85" width="4" height="10"/><path class="cls-2" d="M31.1,41.6a7,7,0,0,1-5-1.92,6.58,6.58,0,0,1-2-5,6.54,6.54,0,0,1,2-5,7,7,0,0,1,5-1.91,6.21,6.21,0,0,1,5.38,2.78l-1.92,1.08a4.26,4.26,0,0,0-1.47-1.28,4.11,4.11,0,0,0-2-.5,4.36,4.36,0,0,0-3.29,1.36,5.24,5.24,0,0,0,0,6.93,4.37,4.37,0,0,0,3.29,1.37,4.54,4.54,0,0,0,1.79-.36,4.71,4.71,0,0,0,1.37-.84V36.24h-4V34.18H36.6v5A7.1,7.1,0,0,1,31.1,41.6Z" transform="translate(0 -1)"/><path class="cls-2" d="M50.16,39.63a7.13,7.13,0,0,1-9.8,0,6.76,6.76,0,0,1-1.92-5,6.76,6.76,0,0,1,1.92-4.95,7.13,7.13,0,0,1,9.8,0,6.76,6.76,0,0,1,1.92,4.95A6.76,6.76,0,0,1,50.16,39.63Zm-4.9-.13a4.09,4.09,0,0,0,3.2-1.37,5,5,0,0,0,1.22-3.45,5,5,0,0,0-1.22-3.46,4.46,4.46,0,0,0-6.41,0,5,5,0,0,0-1.21,3.46,5,5,0,0,0,1.21,3.46A4.09,4.09,0,0,0,45.26,39.5Z" transform="translate(0 -1)"/><path class="cls-2" d="M66.34,41.34H63.68l-1-2.56H56.58l-1,2.56H52.94L58.18,28H61.1ZM62,36.72l-2.4-6.36-2.4,6.36Z" transform="translate(0 -1)"/><path class="cls-2" d="M76,41.34H67.8V28h2.34V39.28H76Z" transform="translate(0 -1)"/><path class="cls-3" d="M28.25,53.34h-4.1V46.67h1.16v5.64h2.94Z" transform="translate(0 -1)"/><path class="cls-3" d="M35.31,53.34H34l-.48-1.28H30.44l-.5,1.28H28.61l2.62-6.67h1.46ZM33.17,51,32,47.85,30.77,51Z" transform="translate(0 -1)"/><path class="cls-3" d="M41.83,53.34H40.69l-3.48-4.76v4.76H36V46.67h1.21l3.4,4.63V46.67h1.18Z" transform="translate(0 -1)"/><path class="cls-3" d="M46.44,53.47a3.5,3.5,0,0,1-2.49-1,3.6,3.6,0,0,1,0-5,3.53,3.53,0,0,1,2.49-.95A3.08,3.08,0,0,1,49.13,48l-1,.54a2.17,2.17,0,0,0-.73-.64,2,2,0,0,0-1-.25,2.19,2.19,0,0,0-1.64.68A2.38,2.38,0,0,0,44.14,50a2.42,2.42,0,0,0,.66,1.74,2.19,2.19,0,0,0,1.64.68,2.26,2.26,0,0,0,.9-.18,2.33,2.33,0,0,0,.68-.42v-1H46v-1h3.16v2.5A3.52,3.52,0,0,1,46.44,53.47Z" transform="translate(0 -1)"/><path class="cls-3" d="M53.3,53.46a2.92,2.92,0,0,1-2.15-.74,2.72,2.72,0,0,1-.74-2v-4h1.18v4A1.77,1.77,0,0,0,52,52a1.67,1.67,0,0,0,1.26.47A1.64,1.64,0,0,0,54.56,52,1.76,1.76,0,0,0,55,50.67v-4h1.19v4a2.74,2.74,0,0,1-.74,2A2.92,2.92,0,0,1,53.3,53.46Z" transform="translate(0 -1)"/><path class="cls-3" d="M63.6,53.34H62.27l-.49-1.28H58.72l-.49,1.28H56.9l2.62-6.67H61ZM61.45,51l-1.2-3.18L59.05,51Z" transform="translate(0 -1)"/><path class="cls-3" d="M67.53,53.47a3.5,3.5,0,0,1-2.49-1,3.6,3.6,0,0,1,0-5,3.53,3.53,0,0,1,2.49-.95A3.08,3.08,0,0,1,70.22,48l-1,.54a2.17,2.17,0,0,0-.73-.64,2,2,0,0,0-1-.25,2.19,2.19,0,0,0-1.64.68A2.38,2.38,0,0,0,65.23,50a2.42,2.42,0,0,0,.66,1.74,2.19,2.19,0,0,0,1.64.68,2.26,2.26,0,0,0,.9-.18,2.33,2.33,0,0,0,.68-.42v-1h-2v-1h3.16v2.5A3.52,3.52,0,0,1,67.53,53.47Z" transform="translate(0 -1)"/><path class="cls-3" d="M76.07,53.34H71.5V46.67h4.57v1h-3.4v1.73H76v1H72.67v1.85h3.4Z" transform="translate(0 -1)"/><path class="cls-3" d="M32.76,65.46a3.51,3.51,0,0,1-2.71-1.06l.65-.9a2.79,2.79,0,0,0,2.11.92,1.55,1.55,0,0,0,1-.27.78.78,0,0,0,.34-.64.66.66,0,0,0-.4-.6,3.44,3.44,0,0,0-1-.36c-.38-.09-.76-.19-1.14-.31a2.18,2.18,0,0,1-1-.61,1.56,1.56,0,0,1-.4-1.11,1.7,1.7,0,0,1,.68-1.39,2.61,2.61,0,0,1,1.75-.56,3.44,3.44,0,0,1,2.5.93l-.67.87a2.61,2.61,0,0,0-1.93-.76,1.33,1.33,0,0,0-.82.22.71.71,0,0,0-.31.61.51.51,0,0,0,.21.42,1.83,1.83,0,0,0,.56.27c.23.08.48.14.75.21s.56.15.83.24a4.1,4.1,0,0,1,.76.36,1.64,1.64,0,0,1,.56.58,1.76,1.76,0,0,1,.21.88,1.91,1.91,0,0,1-.65,1.48A2.8,2.8,0,0,1,32.76,65.46Z" transform="translate(0 -1)"/><path class="cls-3" d="M39.62,65.46a3.47,3.47,0,0,1-2.5-1,3.6,3.6,0,0,1,0-5,3.47,3.47,0,0,1,2.5-1,3,3,0,0,1,2.68,1.5l-1,.51a1.91,1.91,0,0,0-.71-.7,1.84,1.84,0,0,0-1-.27,2.18,2.18,0,0,0-1.64.68,2.6,2.6,0,0,0,0,3.46,2.18,2.18,0,0,0,1.64.68,1.88,1.88,0,0,0,1-.27,2,2,0,0,0,.7-.7l1,.51A3,3,0,0,1,39.62,65.46Z" transform="translate(0 -1)"/><path class="cls-3" d="M49.05,65.34H47.88V62.43H44.41v2.91H43.24V58.67h1.17V61.4h3.47V58.67h1.17Z" transform="translate(0 -1)"/><path class="cls-3" d="M56,64.48a3.55,3.55,0,0,1-4.9,0,3.66,3.66,0,0,1,0-4.94,3.55,3.55,0,0,1,4.9,0,3.66,3.66,0,0,1,0,4.94Zm-2.45-.06a2,2,0,0,0,1.6-.69,2.74,2.74,0,0,0,0-3.45,2.23,2.23,0,0,0-3.21,0,2.79,2.79,0,0,0,0,3.46A2.07,2.07,0,0,0,53.58,64.42Z" transform="translate(0 -1)"/><path class="cls-3" d="M63.68,64.48a3.55,3.55,0,0,1-4.9,0,3.66,3.66,0,0,1,0-4.94,3.55,3.55,0,0,1,4.9,0,3.66,3.66,0,0,1,0,4.94Zm-2.45-.06a2,2,0,0,0,1.6-.69,2.74,2.74,0,0,0,0-3.45,2.06,2.06,0,0,0-1.6-.68,2,2,0,0,0-1.6.68,2.76,2.76,0,0,0,0,3.46A2,2,0,0,0,61.23,64.42Z" transform="translate(0 -1)"/><path class="cls-3" d="M69.88,65.34H65.77V58.67h1.17v5.64h2.94Z" transform="translate(0 -1)"/><text class="cls-4" transform="translate(37.11 74.25)">SINCE 2020</text><text class="cls-5" transform="translate(29.83 80.61)">By Evgenija Nashutynskaja</text><path class="cls-6" d="M46.75,36.4a1.94,1.94,0,0,1-3,0,2.74,2.74,0,0,1-.58-1.8,2.71,2.71,0,0,1,.58-1.79,1.92,1.92,0,0,1,3,0,2.77,2.77,0,0,1,.58,1.79A2.8,2.8,0,0,1,46.75,36.4Z" transform="translate(0 -1)"/><path class="cls-7" d="M59,22.93l-.64.17h0l-2.3.63.63-2.3h0l.14-.51-3.33,3.33h0l-.49,1.84-7.79,8.07.45.44,8.1-7.79,1.8-.48h0l2.12-2.12h0Zm-5,2.95h0Z" transform="translate(0 -1)"/></svg>