<?xml version="1.0" encoding="utf-8"?>
<!-- Generator: Adobe Illustrator 24.1.3, SVG Export Plug-In . SVG Version: 6.00 Build 0)  -->
<svg version="1.1" id="Слой_1" xmlns="http://www.w3.org/2000/svg" xmlns:xlink="http://www.w3.org/1999/xlink" x="0px" y="0px"
	 viewBox="0 0 200 200" style="enable-background:new 0 0 200 200;" xml:space="preserve">
<style type="text/css">
	.st0{fill:#E3F2FD;}
	.st1{fill:#1270FF;}
	.st2{fill:#2962FF;}
	.st3{fill:#FFFFFF;}
</style>
<g id="Слой_2_1_">
	<g id="Слой_1-2">
		<g id="RESEARCH">
			<g id="background">
				<circle class="st0" cx="100" cy="100" r="100"/>
			</g>
			<g id="noise">
				<rect x="12.3" y="195.3" class="st1" width="163.6" height="2"/>
				<rect x="182.1" y="195.3" class="st1" width="5.6" height="2"/>
				<rect x="33.4" y="61.3" class="st2" width="2" height="6.3"/>
				<rect x="31.3" y="63.4" class="st2" width="6.3" height="2"/>
				
					<rect x="57.7" y="163.8" transform="matrix(0.7071 -0.7071 0.7071 0.7071 -98.7123 91.282)" class="st2" width="6.3" height="2"/>
				
					<rect x="59.8" y="161.7" transform="matrix(0.7071 -0.7071 0.7071 0.7071 -98.7144 91.277)" class="st2" width="2" height="6.3"/>
				<path class="st2" d="M127,177.1c-1.8,0-3.3-1.5-3.3-3.3c0-1.8,1.5-3.3,3.3-3.3c1.8,0,3.3,1.5,3.3,3.3l0,0
					C130.3,175.6,128.8,177.1,127,177.1z M127,172.5c-0.7,0-1.3,0.6-1.3,1.3c0,0.7,0.6,1.3,1.3,1.3c0.7,0,1.3-0.6,1.3-1.3l0,0
					C128.3,173.1,127.7,172.5,127,172.5z"/>
				<path class="st2" d="M135.9,19.4l-3.9-3.9l3.9-3.9l3.9,3.9L135.9,19.4z M134.8,15.4l1.1,1.1l1.1-1.1l-1.1-1.1L134.8,15.4z"/>
				<path class="st2" d="M159.7,120.7l-3.9-3.9l3.9-3.9l3.9,3.9L159.7,120.7z M158.6,116.7l1.1,1.1l1.1-1.1l-1.1-1.1L158.6,116.7z"
					/>
				<path class="st2" d="M178.6,58.8c-1.9,0-3.4-1.5-3.4-3.4s1.5-3.4,3.4-3.4c1.9,0,3.4,1.5,3.4,3.4c0,0,0,0,0,0
					C182,57.3,180.5,58.8,178.6,58.8z M178.6,54c-0.8,0-1.4,0.6-1.4,1.4s0.6,1.4,1.4,1.4c0.8,0,1.4-0.6,1.4-1.4c0,0,0,0,0,0
					C180,54.6,179.4,54,178.6,54L178.6,54z"/>
				<path class="st2" d="M29.3,129.1c-1.9,0-3.4-1.5-3.4-3.4c0-1.9,1.5-3.4,3.4-3.4c1.9,0,3.4,1.5,3.4,3.4c0,0,0,0,0,0
					C32.7,127.6,31.1,129.1,29.3,129.1z M29.3,124.3c-0.8,0-1.4,0.6-1.4,1.4c0,0.8,0.6,1.4,1.4,1.4s1.4-0.6,1.4-1.4l0,0
					C30.7,124.9,30,124.3,29.3,124.3z"/>
				<path class="st2" d="M65.6,18.1c-1.9,0-3.4-1.5-3.4-3.4s1.5-3.4,3.4-3.4c1.9,0,3.4,1.5,3.4,3.4c0,0,0,0,0,0
					C69,16.6,67.5,18.1,65.6,18.1C65.6,18.1,65.6,18.1,65.6,18.1z M65.6,13.3c-0.8,0-1.4,0.6-1.4,1.4c0,0.8,0.6,1.4,1.4,1.4
					c0.8,0,1.4-0.6,1.4-1.4c0,0,0,0,0,0C67,13.9,66.4,13.3,65.6,13.3z"/>
			</g>
			<g id="research-2">
				<circle class="st1" cx="100" cy="100" r="51.6"/>
				<path class="st1" d="M144.5,144.5h9.4l28.1,28.1l0,0c0,5.2-4.2,9.4-9.4,9.4l0,0l-28.1-28.1L144.5,144.5z"/>
				<polygon points="146.3,157.1 143.5,154.3 143.5,148.5 145.5,148.5 145.5,153.5 147.7,155.7 				"/>
				<path d="M172.7,183h-0.4l-23.7-23.7l1.4-1.4l23.1,23.1c4.3-0.2,7.8-3.7,8-8l-27.5-27.5h-9.4l-7.7-7.7
					c-20.9,20.2-54.2,19.6-74.3-1.3s-19.6-54.2,1.3-74.3s54.2-19.6,74.3,1.3c9.5,9.8,14.7,22.9,14.7,36.5h-2
					c0-27.9-22.6-50.6-50.6-50.6S49.4,72.1,49.4,100s22.6,50.6,50.6,50.6c13.4,0,26.3-5.3,35.8-14.8l0.7-0.7l8.5,8.5h9.4l28.7,28.7
					v0.4C183,178.4,178.4,183,172.7,183z"/>
				<rect x="155.6" y="147.3" width="2" height="6.2"/>
				<rect x="168.4" y="160" width="2" height="6.2"/>
				<circle class="st3" cx="100" cy="100" r="40"/>
				<circle class="st0" cx="100" cy="100" r="34.1"/>
				<path d="M122,73.9c11.2,15.2,8,36.5-7.2,47.7c-12.7,9.4-30.2,8.8-42.2-1.3c11.2,15.2,32.6,18.4,47.7,7.2s18.4-32.6,7.2-47.7
					C125.9,77.6,124.1,75.6,122,73.9z"/>
				<path class="st0" d="M71,104.4c0.6-18.8,16.3-33.6,35.2-33.1c7.8,0.2,15.2,3.1,21.1,8.2c-11.4-15-32.8-18-47.8-6.6
					s-18,32.8-6.6,47.8c1.5,1.9,3.1,3.7,4.9,5.2C73.2,119.8,70.7,112.2,71,104.4z"/>
				<polygon points="100.9,76.7 107.6,91.4 123.5,94.3 111.6,105.2 113.8,121.2 99.8,113.2 85.2,120.3 88.4,104.5 77.2,92.8 
					93.3,91 				"/>
				<polygon class="st1" points="100.8,80.6 106.3,92.8 119.5,95.1 109.6,104.1 111.5,117.3 99.9,110.7 87.9,116.6 90.5,103.5 
					81.3,93.9 94.5,92.4 				"/>
				<path class="st3" d="M100.6,72.6l-0.3-2c1.9-0.3,3.9-0.4,5.8-0.3l-0.1,2C104.3,72.3,102.5,72.4,100.6,72.6z"/>
				<path class="st3" d="M72,104.4l-2-0.1c0.6-15.5,11.1-28.8,26-32.8l0.5,1.9C82.5,77.3,72.5,89.8,72,104.4z"/>
				<path d="M100,135.1h-1.1c-19.7-0.3-35.4-16.5-35.1-36.2c0.3-19.7,16.5-35.4,36.2-35.1c19.7,0.3,35.4,16.5,35.1,36.2
					C134.8,119.3,119.3,134.8,100,135.1L100,135.1z M100,66.9c-18.3,0-33.1,14.8-33.1,33.1c0,18.3,14.8,33.1,33.1,33.1
					c17.9,0,32.6-14.2,33.1-32.1l0,0c0.6-18.3-13.8-33.6-32.1-34.1c0,0,0,0,0,0L100,66.9z"/>
				<path class="st2" d="M68.7,76.7l-1.6-1.2c2.4-3.2,5.2-6,8.4-8.4l1.2,1.6C73.7,71,71,73.7,68.7,76.7z"/>
				<path d="M100,141h-1.3c-22.6-0.7-40.4-19.6-39.7-42.3c0.1-4.5,1-9,2.6-13.2l1.9,0.7c-7.6,20.1,2.5,42.7,22.7,50.3
					c4,1.5,8.3,2.4,12.6,2.5h1.2c21.5,0,39-17.5,39-39s-17.5-39-39-39c-4.8,0-9.5,0.9-14,2.6l-0.7-1.9c21.1-8.2,44.9,2.4,53,23.5
					s-2.4,44.9-23.5,53C110,140.1,105,141,100,141z"/>
			</g>
		</g>
	</g>
</g>
</svg>
