<svg xmlns="http://www.w3.org/2000/svg" viewBox="0 0 200 200"><defs><style>.cls-1{fill:#e3f2fd;}.cls-2{fill:#2962ff;}.cls-3{fill:#90caf9;}.cls-4{fill:#1e88e5;}.cls-5{fill:#2196f3;}.cls-6{fill:#64b5f6;}.cls-7{fill:#fff;}</style></defs><g id="Слой_2" data-name="Слой 2"><g id="Слой_1-2" data-name="Слой 1"><g id="RESEARCH"><g id="background"><circle class="cls-1" cx="100" cy="100" r="100"/></g><g id="noise"><rect class="cls-2" x="12.29" y="195.25" width="163.58" height="2"/><rect class="cls-2" x="182.14" y="195.25" width="5.56" height="2"/><rect class="cls-2" x="33.38" y="61.3" width="2" height="6.25"/><rect class="cls-2" x="31.26" y="63.43" width="6.25" height="2"/><rect class="cls-2" x="57.71" y="163.79" width="6.25" height="2" transform="translate(-98.71 91.29) rotate(-45)"/><rect class="cls-2" x="59.83" y="161.66" width="2" height="6.25" transform="translate(-98.71 91.29) rotate(-45)"/><path class="cls-2" d="M127,177.11a3.31,3.31,0,1,1,3.31-3.31A3.32,3.32,0,0,1,127,177.11Zm0-4.62a1.31,1.31,0,1,0,1.31,1.31A1.32,1.32,0,0,0,127,172.49Z"/><path class="cls-2" d="M135.85,19.36l-3.92-3.92,3.92-3.92,3.92,3.92Zm-1.1-3.92,1.1,1.09,1.09-1.09-1.09-1.1Z"/><path class="cls-2" d="M159.68,120.67l-3.92-3.93,3.92-3.92,3.92,3.92Zm-1.09-3.93,1.09,1.1,1.1-1.1-1.1-1.09Z"/><path class="cls-2" d="M178.59,58.82A3.42,3.42,0,1,1,182,55.4,3.42,3.42,0,0,1,178.59,58.82Zm0-4.84A1.42,1.42,0,1,0,180,55.4,1.43,1.43,0,0,0,178.59,54Z"/><path class="cls-2" d="M29.25,129.12a3.42,3.42,0,1,1,3.42-3.41A3.42,3.42,0,0,1,29.25,129.12Zm0-4.83a1.42,1.42,0,1,0,1.42,1.42A1.42,1.42,0,0,0,29.25,124.29Z"/><path class="cls-2" d="M65.58,18.08A3.42,3.42,0,1,1,69,14.67,3.41,3.41,0,0,1,65.58,18.08Zm0-4.83A1.42,1.42,0,1,0,67,14.67,1.42,1.42,0,0,0,65.58,13.25Z"/></g><g id="research-2" data-name="research"><circle class="cls-3" cx="100" cy="100" r="51.56"/><path class="cls-4" d="M144.53,144.53h9.38L182,172.66h0a9.38,9.38,0,0,1-9.37,9.37h0l-28.13-28.12Z"/><polygon class="cls-5" points="169.42 160.04 153.91 144.53 144.53 144.53 144.53 153.91 169.42 178.79 169.42 160.04"/><polygon class="cls-6" points="156.63 147.25 153.91 144.53 144.53 144.53 144.53 153.91 156.63 166 156.63 147.25"/><polygon class="cls-2" points="146.29 157.08 143.53 154.32 143.53 148.53 145.53 148.53 145.53 153.5 147.71 155.67 146.29 157.08"/><polygon class="cls-2" points="151.56 106.37 145 99.81 146.41 98.4 151.56 103.55 156.71 98.4 158.12 99.81 151.56 106.37"/><path class="cls-2" d="M172.66,183h-.42L148.51,159.3l1.42-1.41L173.06,181a8.37,8.37,0,0,0,8-8l-27.53-27.53h-9.37l-7.67-7.66A52.57,52.57,0,1,1,152.56,100h-2a50.56,50.56,0,1,0-14.81,35.75l.71-.7,8.48,8.48h9.38L183,172.24v.42A10.38,10.38,0,0,1,172.66,183Z"/><rect class="cls-2" x="99" y="148.36" width="2" height="7.05"/><rect class="cls-2" x="131.75" y="62.31" width="9.87" height="2" transform="translate(-4.73 115.2) rotate(-45)"/><rect class="cls-2" x="99" y="44.59" width="2" height="7.05"/><rect class="cls-2" x="62.31" y="58.38" width="2" height="9.87" transform="translate(-26.22 63.31) rotate(-45)"/><rect class="cls-2" x="44.59" y="99" width="7.05" height="2"/><rect class="cls-2" x="58.38" y="135.69" width="9.87" height="2" transform="translate(-78.11 84.8) rotate(-45)"/><rect class="cls-2" x="155.63" y="147.25" width="2" height="6.2"/><rect class="cls-2" x="168.42" y="160.04" width="2" height="6.18"/><circle class="cls-7" cx="100" cy="100" r="40" transform="translate(-32.41 50.34) rotate(-24.44)"/><circle class="cls-5" cx="100" cy="100" r="34.13" transform="translate(-16.66 179.94) rotate(-79.42)"/><path class="cls-4" d="M122,73.88a34.13,34.13,0,0,1-49.4,46.42A34.13,34.13,0,1,0,122,73.88Z"/><path class="cls-6" d="M71,104.38a34.13,34.13,0,0,1,56.28-24.89A34.13,34.13,0,1,0,77.84,126,34,34,0,0,1,71,104.38Z"/><polygon class="cls-4" points="100.6 80.63 106.13 92.76 119.26 95.09 109.43 104.1 111.27 117.31 99.67 110.73 87.67 116.57 90.34 103.5 81.08 93.9 94.33 92.39 100.6 80.63"/><path class="cls-7" d="M100.64,72.61l-.27-2a35.56,35.56,0,0,1,5.84-.3l-.06,2A32.67,32.67,0,0,0,100.64,72.61Z"/><path class="cls-7" d="M72,104.41l-2-.06A35.36,35.36,0,0,1,96,71.51l.52,1.93A33.35,33.35,0,0,0,72,104.41Z"/><path class="cls-2" d="M100,135.13H98.91a35.67,35.67,0,1,1,1.12,0ZM100,66.87A33.13,33.13,0,1,0,133.12,101h0A33.13,33.13,0,0,0,101,66.88Z"/><path class="cls-2" d="M68.7,76.72l-1.6-1.19a41.23,41.23,0,0,1,8.39-8.4l1.19,1.61A39.44,39.44,0,0,0,68.7,76.72Z"/><path class="cls-2" d="M100,141l-1.3,0A41,41,0,0,1,61.63,85.52l1.87.71A39,39,0,0,0,98.79,139l1.23,0a39,39,0,1,0-14.1-75.38l-.72-1.87A41,41,0,1,1,100,141Z"/></g></g></g></g></svg>