<?xml version="1.0" encoding="utf-8"?>
<!-- Generator: Adobe Illustrator 24.1.3, SVG Export Plug-In . SVG Version: 6.00 Build 0)  -->
<svg version="1.1" id="Слой_1" xmlns="http://www.w3.org/2000/svg" xmlns:xlink="http://www.w3.org/1999/xlink" x="0px" y="0px"
	 viewBox="0 0 200 200" style="enable-background:new 0 0 200 200;" xml:space="preserve">
<style type="text/css">
	.st0{fill:#E3F2FD;}
	.st1{fill:#2962FF;}
	.st2{fill-rule:evenodd;clip-rule:evenodd;fill:#FFFFFF;}
	.st3{fill-rule:evenodd;clip-rule:evenodd;}
	.st4{fill-rule:evenodd;clip-rule:evenodd;fill:#1270FF;}
	.st5{clip-path:url(#SVGID_2_);}
	.st6{clip-path:url(#SVGID_4_);}
</style>
<g id="Слой_2_1_">
	<g id="Слой_1-2">
		<g id="RESEARCH">
			<g id="background">
				<circle class="st0" cx="100" cy="100" r="100"/>
			</g>
			<g id="noise">
				<rect x="12.3" y="195.3" class="st1" width="163.6" height="2"/>
				<rect x="182.1" y="195.3" class="st1" width="5.6" height="2"/>
			</g>
		</g>
	</g>
</g>
<g>
	<g>
		<path class="st2" d="M141.2,167.7c0,0-1.3-0.3-1.5-0.2c-0.2,0.1-2.6,0.8-2.6,0.8l-1.6,2.1l-0.8,2.5l0.4,3.8l-0.4,1.7l-1.9,2
			l-0.7,1.3l-0.5,1.8l0.3,1.3l0.8,1.5l1.3,0.9l1.3,0.7c0,0,1.5,0.4,2.7-0.2c1.3-0.7,2.4-2.5,2.7-4.4c0.3-1.9-0.8-3.4-0.5-4.8
			c0.3-1.3,1-2.3,1-2.3l1-1.9L141.2,167.7z"/>
	</g>
	<g>
		<path class="st2" d="M127,173.9c1.3-0.7,3.7,0.3,3.8,2c0,0.8,0.1,2.2-0.6,3.2c-0.9,1.2-2.6,1.9-2.7,3.2c0,0-0.1,1.6,1.1,3.2
			c1.2,1.6-2.8,5.6-6.4,2.6c-3.6-3,0.9-3.6,1-5.9C123.4,180,121,177.1,127,173.9z"/>
	</g>
	<g>
		<path class="st2" d="M176,153.5l2.3,1.6l1.1,1.8l0.3,2.1l-0.2,1.9l-0.7,2.3l-1.6,1.4l-1.8,1.1l-0.9,0.9l0.4,2.3l0.3,2.3l-0.6,1.7
			l-2.1,1.4l-2.3,0.8l-0.8,1.1v2.1l-0.3,1.9l-1.9,1.4l-1.7,0.5c0,0-3.2,0.6-5.7-6.8l0.5-1.6l1.3-0.9l2.2-1l1-1.5l0.4-1.7l-0.7-3.1
			l0.1-1.8l0.4-1.4l1.2-0.6l1.8-0.6h1.4l1-1.4l0.5-3.3l1.3-2.2l1.9-0.5C173.7,153.5,175.3,153,176,153.5z"/>
	</g>
	<g>
		<g>
			<g>
				<path d="M162.6,99.3c0.5,0.1,0.8,0.7,0.6,1.1c-0.2,0.5-0.7,0.7-1.1,0.6c-0.5-0.2-0.7-0.7-0.6-1.1
					C161.7,99.4,162.1,99.1,162.6,99.3z"/>
			</g>
		</g>
		<g>
			<g>
				<path d="M163.5,95.8c0.5,0.1,0.8,0.6,0.7,1.1c-0.1,0.5-0.6,0.8-1.1,0.7c-0.5-0.1-0.7-0.6-0.6-1.1C162.5,96,163,95.7,163.5,95.8z
					"/>
			</g>
		</g>
		<g>
			<g>
				<path d="M164.2,92.3c0.5,0.1,0.8,0.5,0.7,1c-0.1,0.5-0.5,0.8-1,0.7c-0.5-0.1-0.8-0.6-0.7-1C163.2,92.5,163.7,92.2,164.2,92.3z"
					/>
			</g>
		</g>
		<g>
			<g>
				<path d="M164.6,88.7c0.5,0,0.8,0.5,0.8,1c-0.1,0.5-0.5,0.9-1,0.8c-0.5-0.1-0.8-0.5-0.8-1C163.7,89,164.2,88.7,164.6,88.7z"/>
			</g>
		</g>
		<g>
			<g>
				<path d="M164.8,85.1c0.5,0,0.9,0.4,0.9,0.9c0,0.5-0.5,0.9-0.9,0.9c-0.5,0-0.9-0.4-0.8-0.9C164,85.5,164.3,85.1,164.8,85.1z"/>
			</g>
		</g>
		<g>
			<g>
				<path d="M164.8,81.5c0.5,0,0.9,0.4,0.9,0.9c0,0.5-0.4,0.9-0.9,0.9c-0.5,0-0.9-0.4-0.9-0.9C163.9,82,164.3,81.6,164.8,81.5z"/>
			</g>
		</g>
		<g>
			<g>
				<path d="M164.5,77.9c0.5-0.1,0.9,0.3,1,0.8c0.1,0.5-0.3,1-0.8,1c-0.5,0-0.9-0.3-1-0.8C163.6,78.5,164,78,164.5,77.9z"/>
			</g>
		</g>
		<g>
			<g>
				<path d="M163.8,74.4c0.5-0.1,1,0.2,1.1,0.7c0.1,0.5-0.2,1-0.7,1.1c-0.5,0.1-0.9-0.2-1-0.7C163,75,163.3,74.5,163.8,74.4z"/>
			</g>
		</g>
		<g>
			<g>
				<path d="M162.8,71c0.5-0.2,1,0.1,1.1,0.6c0.2,0.5-0.1,1-0.6,1.1c-0.5,0.1-1-0.1-1.1-0.6C162.1,71.6,162.4,71.1,162.8,71z"/>
			</g>
		</g>
		<g>
			<g>
				<path d="M161.4,67.7c0.4-0.2,1-0.1,1.2,0.4c0.3,0.5,0,1-0.4,1.2c-0.4,0.2-1,0-1.2-0.4C160.8,68.5,160.9,67.9,161.4,67.7z"/>
			</g>
		</g>
		<g>
			<g>
				<path d="M159.3,64.7c0.4-0.3,0.9-0.3,1.3,0.1c0.3,0.4,0.2,1-0.2,1.3c-0.4,0.3-0.9,0.2-1.2-0.2C158.9,65.6,159,65.1,159.3,64.7z"
					/>
			</g>
		</g>
		<g>
			<g>
				<path d="M156.8,62.2c0.3-0.4,0.9-0.4,1.3-0.1c0.4,0.4,0.4,0.9,0.1,1.3c-0.3,0.4-0.9,0.4-1.3,0.1
					C156.5,63.2,156.5,62.6,156.8,62.2z"/>
			</g>
		</g>
		<g>
			<g>
				<path d="M153.8,60.2c0.2-0.4,0.8-0.6,1.3-0.3c0.4,0.3,0.5,0.9,0.3,1.3c-0.3,0.4-0.8,0.5-1.2,0.2
					C153.7,61.2,153.6,60.6,153.8,60.2z"/>
			</g>
		</g>
		<g>
			<g>
				<path d="M150.5,58.7c0.2-0.5,0.7-0.7,1.2-0.5c0.5,0.2,0.7,0.7,0.5,1.2c-0.2,0.4-0.7,0.7-1.2,0.5
					C150.6,59.7,150.4,59.2,150.5,58.7z"/>
			</g>
		</g>
		<g>
			<g>
				<path d="M147.1,57.8c0.1-0.5,0.6-0.9,1.1-0.7c0.5,0.1,0.8,0.6,0.7,1.1c-0.1,0.5-0.6,0.8-1.1,0.7C147.3,58.7,147,58.3,147.1,57.8
					z"/>
			</g>
		</g>
		<g>
			<g>
				<path d="M143.5,57.5c0-0.5,0.4-0.9,1-0.9c0.5,0,0.9,0.5,0.8,1c0,0.5-0.5,0.8-0.9,0.8C143.9,58.4,143.5,58,143.5,57.5z"/>
			</g>
		</g>
		<g>
			<g>
				<path d="M139.9,57.6c0-0.5,0.3-0.9,0.8-1c0.5,0,0.9,0.3,0.9,0.8c0,0.5-0.4,0.9-0.8,1C140.4,58.4,139.9,58.1,139.9,57.6z"/>
			</g>
		</g>
		<g>
			<g>
				<path d="M136.3,58c-0.1-0.5,0.3-0.9,0.8-1c0.5-0.1,1,0.3,1,0.8c0.1,0.5-0.3,0.9-0.8,1C136.9,58.8,136.4,58.5,136.3,58z"/>
			</g>
		</g>
		<g>
			<g>
				<path d="M132.8,58.7c-0.1-0.5,0.2-1,0.7-1.1c0.5-0.1,1,0.2,1.1,0.7c0.1,0.5-0.2,1-0.7,1.1C133.4,59.5,132.9,59.2,132.8,58.7z"/>
			</g>
		</g>
		<g>
			<g>
				<path d="M129.3,59.6c-0.1-0.5,0.2-1,0.6-1.1c0.5-0.1,1,0.2,1.1,0.6c0.1,0.5-0.2,1-0.6,1.1C129.9,60.4,129.4,60.1,129.3,59.6z"/>
			</g>
		</g>
		<g>
			<g>
				<path d="M125.9,60.6c-0.1-0.5,0.1-1,0.6-1.1c0.5-0.1,1,0.1,1.1,0.6c0.1,0.5-0.1,1-0.6,1.1C126.5,61.3,126,61.1,125.9,60.6z"/>
			</g>
		</g>
		<g>
			<g>
				<path d="M122.4,61.7c-0.2-0.5,0.1-1,0.6-1.1c0.5-0.2,1,0.1,1.1,0.6c0.2,0.5-0.1,1-0.6,1.1C123.1,62.4,122.6,62.2,122.4,61.7z"/>
			</g>
		</g>
		<g>
			<g>
				<path d="M119,62.9c-0.2-0.5,0.1-1,0.6-1.1c0.5-0.2,1,0.1,1.1,0.5c0.2,0.5-0.1,1-0.6,1.1C119.7,63.6,119.2,63.3,119,62.9z"/>
			</g>
		</g>
		<g>
			<g>
				<path d="M115.7,64.1c-0.2-0.5,0.1-1,0.5-1.2c0.5-0.2,1,0.1,1.2,0.5c0.2,0.5-0.1,1-0.5,1.2C116.3,64.8,115.8,64.6,115.7,64.1z"/>
			</g>
		</g>
		<g>
			<g>
				<path d="M112.3,65.3c-0.2-0.5,0.1-1,0.5-1.2c0.5-0.2,1,0.1,1.2,0.5c0.2,0.5-0.1,1-0.5,1.1C113,66,112.5,65.8,112.3,65.3z"/>
			</g>
		</g>
		<g>
			<g>
				<path d="M108.9,66.6c-0.2-0.5,0.1-1,0.5-1.2c0.5-0.2,1,0.1,1.2,0.5c0.2,0.5-0.1,1-0.5,1.2C109.6,67.3,109.1,67.1,108.9,66.6z"/>
			</g>
		</g>
		<g>
			<g>
				<path d="M105.5,67.7c-0.1-0.5,0.2-1,0.7-1c0.4-0.1,0.9,0.1,1.1,0.6c0.2,0.5-0.1,1-0.6,1.1C106.1,68.5,105.6,68.1,105.5,67.7z"/>
			</g>
		</g>
		<g>
			<g>
				<path d="M101.9,68.1c0-0.5,0.4-0.9,0.8-0.9c0.5-0.1,0.9,0.3,1,0.8c0.1,0.5-0.3,0.9-0.8,1C102.4,69,101.9,68.6,101.9,68.1z"/>
			</g>
		</g>
		<g>
			<g>
				<path d="M98.3,68c0-0.5,0.5-0.8,0.9-0.8c0.5,0,0.9,0.4,0.9,0.9c0,0.5-0.4,0.9-0.9,0.9C98.7,68.9,98.3,68.5,98.3,68z"/>
			</g>
		</g>
		<g>
			<g>
				<path d="M94.8,67.6c0.1-0.5,0.5-0.8,1-0.8c0.5,0.1,0.8,0.5,0.8,1c-0.1,0.5-0.5,0.8-1,0.8C95,68.5,94.7,68,94.8,67.6z"/>
			</g>
		</g>
		<g>
			<g>
				<path d="M91.2,66.9c0.1-0.5,0.6-0.8,1.1-0.7c0.5,0.1,0.8,0.6,0.7,1c-0.1,0.5-0.6,0.8-1.1,0.7C91.4,67.8,91.1,67.3,91.2,66.9z"/>
			</g>
		</g>
		<g>
			<g>
				<path d="M87.8,66c0.1-0.5,0.6-0.8,1.1-0.6c0.5,0.1,0.8,0.6,0.6,1.1c-0.1,0.5-0.6,0.8-1.1,0.6C87.9,66.9,87.6,66.5,87.8,66z"/>
			</g>
		</g>
		<g>
			<g>
				<path d="M84.3,65c0.1-0.5,0.6-0.7,1.1-0.6c0.5,0.1,0.7,0.6,0.6,1.1c-0.1,0.5-0.6,0.7-1.1,0.6C84.4,66,84.2,65.5,84.3,65z"/>
			</g>
		</g>
		<g>
			<g>
				<path d="M80.9,63.9c0.2-0.5,0.7-0.7,1.1-0.6c0.5,0.1,0.7,0.7,0.6,1.1c-0.1,0.5-0.7,0.7-1.1,0.6C81,64.9,80.7,64.4,80.9,63.9z"/>
			</g>
		</g>
		<g>
			<g>
				<path d="M77.4,62.8c0.2-0.5,0.7-0.7,1.1-0.6c0.5,0.2,0.7,0.7,0.6,1.1c-0.2,0.5-0.7,0.7-1.1,0.6C77.5,63.8,77.3,63.3,77.4,62.8z"
					/>
			</g>
		</g>
		<g>
			<g>
				<path d="M74,61.7c0.2-0.5,0.7-0.7,1.1-0.6c0.5,0.2,0.7,0.7,0.6,1.1c-0.2,0.5-0.7,0.7-1.1,0.6C74.1,62.7,73.9,62.2,74,61.7z"/>
			</g>
		</g>
		<g>
			<g>
				<path d="M70.6,60.6c0.2-0.5,0.7-0.7,1.1-0.6c0.5,0.2,0.7,0.7,0.6,1.1c-0.2,0.5-0.7,0.7-1.1,0.6C70.7,61.5,70.5,61,70.6,60.6z"/>
			</g>
		</g>
		<g>
			<g>
				<path d="M67.2,59.5c0.1-0.5,0.7-0.7,1.1-0.6c0.5,0.2,0.7,0.7,0.6,1.1c-0.1,0.5-0.7,0.7-1.1,0.6C67.3,60.4,67,60,67.2,59.5z"/>
			</g>
		</g>
		<g>
			<g>
				<path d="M63.7,58.5c0.1-0.5,0.6-0.7,1.1-0.6c0.5,0.1,0.8,0.6,0.6,1.1c-0.1,0.5-0.6,0.7-1.1,0.6C63.9,59.4,63.6,58.9,63.7,58.5z"
					/>
			</g>
		</g>
		<g>
			<g>
				<path d="M60.3,57.5c0.1-0.5,0.6-0.8,1.1-0.6c0.5,0.1,0.8,0.6,0.6,1.1c-0.1,0.5-0.6,0.8-1.1,0.6C60.4,58.5,60.1,58,60.3,57.5z"/>
			</g>
		</g>
		<g>
			<g>
				<path d="M56.8,56.7c0.1-0.5,0.6-0.8,1.1-0.7c0.5,0.1,0.8,0.6,0.7,1.1c-0.1,0.5-0.6,0.8-1.1,0.7C57,57.6,56.7,57.1,56.8,56.7z"/>
			</g>
		</g>
		<g>
			<g>
				<path d="M53.2,56c0.1-0.5,0.6-0.8,1.1-0.7c0.5,0.1,0.8,0.6,0.7,1c-0.1,0.5-0.6,0.8-1,0.7C53.5,56.9,53.2,56.4,53.2,56z"/>
			</g>
		</g>
		<g>
			<g>
				<path d="M49.7,55.4c0.1-0.5,0.5-0.8,1-0.8c0.5,0.1,0.8,0.5,0.8,1c-0.1,0.5-0.5,0.8-1,0.8C50,56.4,49.6,55.9,49.7,55.4z"/>
			</g>
		</g>
		<g>
			<g>
				<path d="M46.1,55.1c0-0.5,0.5-0.9,1-0.9c0.5,0,0.9,0.5,0.8,1c0,0.5-0.5,0.8-1,0.8C46.5,56.1,46.1,55.6,46.1,55.1z"/>
			</g>
		</g>
		<g>
			<g>
				<path d="M42.5,55.1c0-0.5,0.4-0.9,0.9-0.9c0.5,0,0.9,0.4,0.9,0.9c0,0.5-0.4,0.9-0.9,0.9C42.9,56,42.5,55.6,42.5,55.1z"/>
			</g>
		</g>
		<g>
			<g>
				<path d="M38.9,55.4c-0.1-0.5,0.3-0.9,0.8-1c0.5,0,1,0.3,1,0.8c0,0.5-0.3,0.9-0.8,1C39.4,56.2,39,55.9,38.9,55.4z"/>
			</g>
		</g>
		<g>
			<g>
				<path d="M35.4,56.1c-0.1-0.5,0.2-1,0.7-1.1c0.5-0.1,1,0.2,1.1,0.7c0.1,0.5-0.2,1-0.7,1.1C36,56.8,35.5,56.5,35.4,56.1z"/>
			</g>
		</g>
		<g>
			<g>
				<path d="M32,57.2c-0.2-0.5,0-1,0.5-1.2c0.5-0.2,1,0.1,1.2,0.6c0.1,0.5-0.1,1-0.6,1.1C32.7,57.8,32.2,57.6,32,57.2z"/>
			</g>
		</g>
		<g>
			<g>
				<path d="M28.8,58.9c-0.3-0.4-0.2-1,0.3-1.2c0.4-0.3,1-0.1,1.2,0.3c0.2,0.4,0.1,0.9-0.3,1.2C29.7,59.4,29.1,59.3,28.8,58.9z"/>
			</g>
		</g>
		<g>
			<g>
				<path d="M26,61.2c-0.3-0.4-0.3-0.9,0.1-1.3c0.4-0.3,1-0.3,1.3,0.1c0.3,0.4,0.3,0.9-0.1,1.3C26.9,61.5,26.4,61.5,26,61.2z"/>
			</g>
		</g>
		<g>
			<g>
				<path d="M23.6,63.8c-0.4-0.3-0.4-0.9-0.1-1.3c0.3-0.4,0.9-0.4,1.3-0.1c0.4,0.3,0.4,0.9,0.1,1.3C24.5,64.1,24,64.1,23.6,63.8z"/>
			</g>
		</g>
		<g>
			<g>
				<path d="M21.4,66.7c-0.4-0.3-0.5-0.8-0.2-1.3c0.3-0.4,0.9-0.5,1.3-0.2c0.4,0.3,0.5,0.9,0.2,1.2C22.4,66.8,21.8,66.9,21.4,66.7z"
					/>
			</g>
		</g>
		<g>
			<g>
				<path d="M19.5,69.7c-0.4-0.2-0.6-0.8-0.3-1.2c0.2-0.4,0.8-0.6,1.2-0.3c0.4,0.3,0.5,0.8,0.3,1.2C20.5,69.8,20,70,19.5,69.7z"/>
			</g>
		</g>
		<g>
			<g>
				<path d="M17.9,72.9c-0.4-0.2-0.6-0.8-0.4-1.2c0.2-0.5,0.8-0.6,1.2-0.4c0.4,0.2,0.6,0.8,0.4,1.2C18.9,72.9,18.4,73.1,17.9,72.9z"
					/>
			</g>
		</g>
		<g>
			<g>
				<path d="M16.5,76.2C16,76,15.8,75.5,16,75.1c0.2-0.5,0.7-0.7,1.2-0.5c0.5,0.2,0.7,0.7,0.5,1.2C17.5,76.2,17,76.4,16.5,76.2z"/>
			</g>
		</g>
		<g>
			<g>
				<path d="M15.3,79.6c-0.5-0.1-0.7-0.6-0.6-1.1c0.1-0.5,0.7-0.7,1.1-0.6c0.5,0.2,0.7,0.7,0.6,1.1C16.3,79.5,15.8,79.8,15.3,79.6z"
					/>
			</g>
		</g>
		<g>
			<g>
				<path d="M14.4,83.1c-0.5-0.1-0.8-0.6-0.7-1.1c0.1-0.5,0.6-0.8,1.1-0.7c0.5,0.1,0.8,0.6,0.6,1.1C15.4,82.9,14.9,83.2,14.4,83.1z"
					/>
			</g>
		</g>
		<g>
			<g>
				<path d="M13.7,86.6c-0.5-0.1-0.8-0.5-0.7-1c0.1-0.5,0.6-0.8,1-0.7c0.5,0.1,0.8,0.6,0.7,1C14.7,86.4,14.2,86.7,13.7,86.6z"/>
			</g>
		</g>
		<g>
			<g>
				<path d="M13.3,90.2c-0.5,0-0.9-0.5-0.8-1c0-0.5,0.5-0.9,1-0.8c0.5,0.1,0.8,0.5,0.8,1C14.3,89.9,13.8,90.2,13.3,90.2z"/>
			</g>
		</g>
		<g>
			<g>
				<path d="M13.2,93.8c-0.5,0-0.9-0.4-0.9-0.9c0-0.5,0.4-0.9,0.9-0.9c0.5,0,0.9,0.4,0.9,0.9C14.1,93.4,13.7,93.8,13.2,93.8z"/>
			</g>
		</g>
		<g>
			<g>
				<path d="M13.3,97.4c-0.5,0-0.9-0.3-1-0.8c0-0.5,0.3-0.9,0.8-1c0.5,0,0.9,0.4,1,0.8C14.2,96.9,13.8,97.3,13.3,97.4z"/>
			</g>
		</g>
		<g>
			<g>
				<path d="M13.8,101c-0.5,0.1-1-0.2-1-0.8c-0.1-0.5,0.3-1,0.8-1c0.5-0.1,0.9,0.3,1,0.8C14.6,100.4,14.3,100.9,13.8,101z"/>
			</g>
		</g>
		<g>
			<g>
				<path d="M14.6,104.5c-0.5,0.1-1-0.2-1.1-0.7c-0.1-0.5,0.2-1,0.7-1.1c0.5-0.1,1,0.2,1.1,0.7C15.3,103.8,15,104.3,14.6,104.5z"/>
			</g>
		</g>
		<g>
			<g>
				<path d="M15.7,107.9c-0.5,0.2-1-0.1-1.2-0.5c-0.2-0.5,0.1-1,0.5-1.2c0.5-0.2,1,0.1,1.1,0.5C16.4,107.2,16.2,107.7,15.7,107.9z"
					/>
			</g>
		</g>
		<g>
			<g>
				<path d="M17.2,111.1c-0.4,0.2-1,0.1-1.2-0.4c-0.2-0.5,0-1,0.4-1.2c0.5-0.2,1,0,1.2,0.4C17.8,110.4,17.7,110.9,17.2,111.1z"/>
			</g>
		</g>
		<g>
			<g>
				<path d="M19.1,114.2c-0.4,0.3-1,0.2-1.2-0.3c-0.3-0.4-0.2-1,0.3-1.2c0.4-0.3,1-0.1,1.2,0.3C19.6,113.3,19.5,113.9,19.1,114.2z"
					/>
			</g>
		</g>
		<g>
			<g>
				<path d="M21.4,116.9c-0.3,0.4-0.9,0.3-1.3,0c-0.4-0.4-0.3-1,0.1-1.3c0.4-0.3,0.9-0.3,1.3,0.1C21.8,116,21.8,116.6,21.4,116.9z"
					/>
			</g>
		</g>
		<g>
			<g>
				<path d="M24.1,119.3c-0.3,0.4-0.9,0.5-1.3,0.2c-0.4-0.3-0.4-0.9-0.1-1.3c0.3-0.4,0.9-0.4,1.2-0.1
					C24.4,118.3,24.4,118.9,24.1,119.3z"/>
			</g>
		</g>
		<g>
			<g>
				<path d="M27.1,121.3c-0.3,0.4-0.8,0.5-1.2,0.3c-0.4-0.3-0.6-0.8-0.3-1.2c0.3-0.4,0.8-0.5,1.2-0.3
					C27.2,120.3,27.4,120.9,27.1,121.3z"/>
			</g>
		</g>
		<g>
			<g>
				<path d="M30.3,123c-0.2,0.4-0.8,0.6-1.2,0.4c-0.5-0.2-0.6-0.8-0.4-1.2c0.2-0.4,0.8-0.6,1.2-0.4C30.3,122,30.5,122.6,30.3,123z"
					/>
			</g>
		</g>
		<g>
			<g>
				<path d="M33.5,124.5c-0.2,0.5-0.7,0.7-1.2,0.5c-0.5-0.2-0.7-0.7-0.5-1.2c0.2-0.4,0.7-0.7,1.2-0.5
					C33.5,123.5,33.7,124.1,33.5,124.5z"/>
			</g>
		</g>
		<g>
			<g>
				<path d="M36.9,125.8c-0.2,0.5-0.7,0.7-1.2,0.5c-0.5-0.2-0.7-0.7-0.5-1.2c0.2-0.5,0.7-0.7,1.2-0.5
					C36.8,124.9,37,125.4,36.9,125.8z"/>
			</g>
		</g>
		<g>
			<g>
				<path d="M40.3,127c-0.1,0.5-0.7,0.7-1.1,0.6c-0.5-0.1-0.7-0.7-0.6-1.1c0.2-0.5,0.7-0.7,1.1-0.6C40.2,126,40.4,126.5,40.3,127z"
					/>
			</g>
		</g>
		<g>
			<g>
				<path d="M43.7,128c-0.1,0.5-0.6,0.7-1.1,0.6c-0.5-0.1-0.8-0.6-0.6-1.1c0.1-0.5,0.6-0.7,1.1-0.6C43.6,127.1,43.9,127.6,43.7,128z
					"/>
			</g>
		</g>
		<g>
			<g>
				<path d="M47.2,128.9c-0.1,0.5-0.6,0.8-1.1,0.6c-0.5-0.1-0.8-0.6-0.6-1.1c0.1-0.5,0.6-0.8,1.1-0.6C47,128,47.3,128.5,47.2,128.9z
					"/>
			</g>
		</g>
		<g>
			<g>
				<path d="M50.7,129.8c-0.1,0.5-0.6,0.8-1.1,0.7c-0.5-0.1-0.8-0.6-0.7-1.1c0.1-0.5,0.6-0.8,1.1-0.7
					C50.5,128.8,50.8,129.3,50.7,129.8z"/>
			</g>
		</g>
		<g>
			<g>
				<path d="M54.2,130.5c-0.1,0.5-0.6,0.8-1.1,0.7c-0.5-0.1-0.8-0.6-0.7-1.1c0.1-0.5,0.6-0.8,1.1-0.7C54,129.5,54.3,130,54.2,130.5z
					"/>
			</g>
		</g>
		<g>
			<g>
				<path d="M57.8,131.1c-0.1,0.5-0.6,0.8-1,0.7c-0.5-0.1-0.8-0.6-0.7-1c0.1-0.5,0.6-0.8,1-0.7C57.5,130.2,57.9,130.7,57.8,131.1z"
					/>
			</g>
		</g>
		<g>
			<g>
				<path d="M61.3,131.7c-0.1,0.5-0.5,0.8-1,0.7c-0.5-0.1-0.8-0.5-0.7-1c0.1-0.5,0.5-0.8,1-0.7C61.1,130.8,61.4,131.3,61.3,131.7z"
					/>
			</g>
		</g>
		<g>
			<g>
				<path d="M64.9,132.3c-0.1,0.5-0.5,0.8-1,0.8c-0.5-0.1-0.8-0.5-0.8-1c0.1-0.5,0.5-0.8,1-0.8C64.6,131.3,64.9,131.8,64.9,132.3z"
					/>
			</g>
		</g>
		<g>
			<g>
				<path d="M68.4,132.8c-0.1,0.5-0.5,0.8-1,0.8c-0.5-0.1-0.8-0.5-0.8-1c0.1-0.5,0.5-0.8,1-0.8C68.1,131.8,68.5,132.3,68.4,132.8z"
					/>
			</g>
		</g>
		<g>
			<g>
				<path d="M72,133.2c-0.1,0.5-0.5,0.8-1,0.8c-0.5-0.1-0.8-0.5-0.8-1c0.1-0.5,0.5-0.8,1-0.8C71.7,132.2,72.1,132.7,72,133.2z"/>
			</g>
		</g>
		<g>
			<g>
				<path d="M75.6,133.6c-0.1,0.5-0.5,0.8-1,0.8c-0.5-0.1-0.9-0.5-0.8-1c0.1-0.5,0.5-0.8,1-0.8C75.3,132.6,75.6,133.1,75.6,133.6z"
					/>
			</g>
		</g>
		<g>
			<g>
				<path d="M79.2,133.9c0,0.5-0.5,0.9-1,0.8c-0.5,0-0.9-0.5-0.8-1c0-0.5,0.5-0.9,1-0.8C78.8,133,79.2,133.4,79.2,133.9z"/>
			</g>
		</g>
		<g>
			<g>
				<path d="M82.7,134.3c0,0.5-0.5,0.9-1,0.8c-0.5,0-0.9-0.5-0.8-1c0-0.5,0.5-0.9,1-0.8C82.4,133.3,82.8,133.8,82.7,134.3z"/>
			</g>
		</g>
		<g>
			<g>
				<path d="M86.3,134.6c0,0.5-0.5,0.9-1,0.8c-0.5,0-0.9-0.5-0.8-1c0-0.5,0.5-0.9,1-0.8C86,133.6,86.4,134.1,86.3,134.6z"/>
			</g>
		</g>
		<g>
			<g>
				<path d="M89.9,134.8c0,0.5-0.5,0.9-1,0.8c-0.5,0-0.9-0.5-0.8-1c0-0.5,0.5-0.9,1-0.8C89.6,133.9,89.9,134.3,89.9,134.8z"/>
			</g>
		</g>
		<g>
			<g>
				<path d="M93.5,135.1c0,0.5-0.5,0.9-1,0.8c-0.5,0-0.9-0.5-0.8-1c0-0.5,0.5-0.9,1-0.8C93.2,134.2,93.5,134.6,93.5,135.1z"/>
			</g>
		</g>
		<g>
			<g>
				<path d="M97.1,135.4c0,0.5-0.4,0.9-1,0.8c-0.5,0-0.9-0.5-0.8-1c0-0.5,0.5-0.9,1-0.8C96.7,134.4,97.1,134.9,97.1,135.4z"/>
			</g>
		</g>
		<g>
			<g>
				<path d="M100.7,135.3c0,0.5-0.4,0.9-0.9,0.9c-0.5,0-0.9-0.4-0.9-0.9c0-0.5,0.4-0.9,0.9-0.9C100.2,134.4,100.6,134.8,100.7,135.3
					z"/>
			</g>
		</g>
		<g>
			<g>
				<path d="M104.3,135c0.1,0.5-0.3,0.9-0.8,1c-0.5,0.1-0.9-0.3-1-0.8c0-0.5,0.3-0.9,0.8-1C103.8,134.2,104.2,134.5,104.3,135z"/>
			</g>
		</g>
		<g>
			<g>
				<path d="M107.8,134.5c0.1,0.5-0.3,1-0.8,1c-0.5,0.1-1-0.3-1-0.8c-0.1-0.5,0.3-0.9,0.8-1C107.3,133.7,107.7,134.1,107.8,134.5z"
					/>
			</g>
		</g>
		<g>
			<g>
				<path d="M111.4,133.9c0.1,0.5-0.2,1-0.7,1.1c-0.5,0.1-1-0.2-1.1-0.7c-0.1-0.5,0.2-1,0.7-1C110.8,133.1,111.3,133.4,111.4,133.9z
					"/>
			</g>
		</g>
		<g>
			<g>
				<path d="M114.9,133.1c0.1,0.5-0.2,1-0.7,1.1c-0.5,0.1-1-0.2-1.1-0.7c-0.1-0.5,0.2-1,0.7-1.1
					C114.3,132.4,114.8,132.6,114.9,133.1z"/>
			</g>
		</g>
		<g>
			<g>
				<path d="M118.4,132.2c0.1,0.5-0.2,1-0.6,1.1c-0.5,0.1-1-0.2-1.1-0.6c-0.1-0.5,0.2-1,0.6-1.1
					C117.7,131.5,118.2,131.7,118.4,132.2z"/>
			</g>
		</g>
		<g>
			<g>
				<path d="M121.8,131.2c0.1,0.5-0.1,1-0.6,1.1c-0.5,0.1-1-0.1-1.1-0.6c-0.1-0.5,0.1-1,0.6-1.1
					C121.2,130.5,121.7,130.7,121.8,131.2z"/>
			</g>
		</g>
		<g>
			<g>
				<path d="M125.2,130.1c0.2,0.5-0.1,1-0.6,1.1c-0.5,0.2-1-0.1-1.1-0.6c-0.2-0.5,0.1-1,0.6-1.1
					C124.5,129.4,125.1,129.6,125.2,130.1z"/>
			</g>
		</g>
		<g>
			<g>
				<path d="M128.6,128.8c0.2,0.5-0.1,1-0.5,1.2c-0.5,0.2-1-0.1-1.2-0.5c-0.2-0.5,0.1-1,0.5-1.2
					C127.9,128.1,128.4,128.4,128.6,128.8z"/>
			</g>
		</g>
		<g>
			<g>
				<path d="M131.9,127.5c0.2,0.5,0,1-0.5,1.2c-0.5,0.2-1,0-1.2-0.5c-0.2-0.5,0-1,0.5-1.2C131.2,126.8,131.7,127,131.9,127.5z"/>
			</g>
		</g>
		<g>
			<g>
				<path d="M135.2,126c0.2,0.4,0,1-0.4,1.2c-0.5,0.2-1,0-1.2-0.5c-0.2-0.5,0-1,0.4-1.2C134.5,125.4,135,125.6,135.2,126z"/>
			</g>
		</g>
		<g>
			<g>
				<path d="M138.4,124.4c0.2,0.4,0,1-0.4,1.2c-0.4,0.2-1,0.1-1.2-0.4c-0.2-0.4,0-1,0.4-1.2C137.7,123.8,138.2,124,138.4,124.4z"/>
			</g>
		</g>
		<g>
			<g>
				<path d="M141.6,122.7c0.2,0.4,0.1,1-0.4,1.2c-0.4,0.2-1,0.1-1.2-0.3c-0.2-0.4-0.1-1,0.4-1.2
					C140.8,122.1,141.4,122.3,141.6,122.7z"/>
			</g>
		</g>
		<g>
			<g>
				<path d="M144.7,120.9c0.3,0.4,0.1,1-0.3,1.2c-0.4,0.3-1,0.1-1.2-0.3c-0.3-0.4-0.1-1,0.3-1.2
					C143.9,120.3,144.4,120.5,144.7,120.9z"/>
			</g>
		</g>
		<g>
			<g>
				<path d="M147.7,118.9c0.3,0.4,0.2,1-0.2,1.3c-0.4,0.3-1,0.2-1.2-0.2c-0.3-0.4-0.2-1,0.2-1.3
					C146.8,118.4,147.4,118.5,147.7,118.9z"/>
			</g>
		</g>
		<g>
			<g>
				<path d="M150.5,116.7c0.3,0.4,0.3,1-0.2,1.3c-0.4,0.3-1,0.2-1.3-0.2c-0.3-0.4-0.2-1,0.2-1.3
					C149.7,116.3,150.2,116.3,150.5,116.7z"/>
			</g>
		</g>
		<g>
			<g>
				<path d="M153.2,114.3c0.3,0.4,0.3,0.9-0.1,1.3c-0.4,0.4-0.9,0.3-1.3-0.1c-0.3-0.4-0.3-0.9,0.1-1.3
					C152.3,114,152.9,114,153.2,114.3z"/>
			</g>
		</g>
		<g>
			<g>
				<path d="M155.8,111.8c0.4,0.3,0.4,0.9,0,1.3c-0.4,0.4-0.9,0.4-1.3,0c-0.4-0.3-0.4-0.9,0-1.3
					C154.8,111.5,155.4,111.5,155.8,111.8z"/>
			</g>
		</g>
		<g>
			<g>
				<path d="M158,109c0.4,0.3,0.5,0.9,0.2,1.3c-0.3,0.4-0.9,0.5-1.3,0.2c-0.4-0.3-0.4-0.9-0.2-1.3C157.1,108.8,157.6,108.7,158,109z
					"/>
			</g>
		</g>
		<g>
			<g>
				<path d="M160,106c0.4,0.2,0.6,0.8,0.3,1.2c-0.3,0.4-0.8,0.6-1.3,0.3c-0.4-0.3-0.5-0.8-0.3-1.2C159,105.9,159.5,105.7,160,106z"
					/>
			</g>
		</g>
		<g>
			<g>
				<path d="M161.5,102.7c0.5,0.2,0.7,0.7,0.5,1.2c-0.2,0.5-0.7,0.7-1.2,0.5c-0.4-0.2-0.7-0.7-0.5-1.2
					C160.5,102.7,161,102.5,161.5,102.7z"/>
			</g>
		</g>
	</g>
	<g>
		<g>
			<path class="st3" d="M122.9,188.1c0.5-0.9,1.4-1.6,1.5-3c0-0.9-0.2-1.8-0.2-2.8c0-1.8,0.9-3,1.9-4c0.2-0.2,1.2-1.3,1.4-0.4
				c0.1,0.4-0.3,0.6-0.6,0.8c-0.9,0.8-1.8,1.9-1.8,3.4c0,0.9,0.2,1.9,0.2,2.7c0,2.6-2.2,2.9-2,5.7c0.1,1.3,0.6,2.5,1.1,3.5
				c0.2,0.3,0.5,0.7,0.5,1.1c-0.2,0.1-0.6,0-0.9,0c-0.8-1.6-2-3.9-1.4-6.2c-1-0.7-2-1.4-2-2.9c0-0.6,0.2-1.2,0.4-1.6
				c0.4-0.7,1.5-1.3,1.6-2c0.2-0.8-0.3-1.6-0.3-2.3c-0.2-2.2,0.7-3.6,1.8-4.8c0.9-0.9,2.2-1.8,3.6-1.9c2.7-0.2,4.3,2.6,3.2,5
				c-0.4,0.8-1.1,1.5-1.6,2.1c-0.6,0.6-1.5,1.3-1.6,2.1c-0.1,0.7,0.4,1.3,0.7,1.8c0.4,0.7,0.9,1.4,0.7,2.4c-0.2,0.8-1,1.5-1.8,1.9
				c-0.2,0.1-0.7,0.4-1.3,0.6c-0.4,0.2-1.1,0.4-1.2-0.1c0-0.4,0.5-0.5,0.8-0.7c0.4-0.2,0.7-0.3,1-0.5c0.5-0.3,1.4-0.8,1.5-1.4
				c0.1-0.8-0.5-1.5-0.8-2c-0.3-0.6-0.7-1.3-0.7-2.1c0.1-1,0.9-1.8,1.5-2.4c0.8-0.8,1.9-1.6,2-3.1c0.1-1.6-0.9-2.8-2.3-2.8
				c-1.4,0-2.5,0.8-3.3,1.6c-1,0.9-1.8,2.1-1.7,4.1c0.1,0.9,0.5,1.6,0.3,2.5c-0.2,1.2-1.5,1.7-1.9,2.7
				C121.1,186.6,122,187.5,122.9,188.1z"/>
		</g>
	</g>
	<g>
		<g>
			<path class="st3" d="M139.9,167.2c0.1,0,0.3,0,0.4,0c2.1,0.2,2.6,1.6,3.1,3.4c0.4,1.4,0.7,2.9,0,4.1c-0.4,0.6-0.9,1.1-1.4,1.6
				c-0.6,0.6-1.4,1.2-1.4,2.2c-0.1,1,0.4,2.1,0.5,3.3c0.2,3.2-1.1,4.9-3,6.2c-0.3,0.2-1,0.7-1.2,0.1c-0.1-0.4,0.5-0.6,0.8-0.9
				c1.6-1.1,2.8-2.9,2.5-5.8c-0.1-1.2-0.7-2.4-0.3-3.7c0.6-1.8,2.4-2.4,3-4c0.4-1.1-0.1-2.5-0.5-3.6c-0.3-1-0.7-1.7-1.4-2
				c-1.1-0.5-2.6,0.2-3.3,0.7c-1.2,0.8-2.3,1.8-2.4,3.4c-0.2,2.1,0.8,4.5-0.1,6.2c-0.7,1.3-2,2-2.7,3.3c-0.5,0.9-0.6,2.4-0.1,3.4
				c0.4,1,1.4,1.5,2.3,1.9c-0.3-1.7-0.2-3.4,0.3-4.6s1.6-2.1,2-3.3c0.4-1.4-0.4-3.4,0.2-4.8c0.4-0.9,1.4-1.7,2.4-2.2
				c0.3-0.2,0.9-0.3,1,0.2c0.1,0.5-1,0.8-1.4,1.1c-0.7,0.5-1.3,1.1-1.4,2c-0.1,0.8,0.1,1.6,0.2,2.3c0.2,2.4-1.5,3.5-2.2,5.1
				c-0.6,1.2-0.4,2.9-0.2,4.2c0.3,2.3,0.8,5,0.5,7.8c0,0.3,0,0.7-0.5,0.7c-0.7-0.1-0.4-1.1-0.4-1.6c0.1-2.1-0.1-4.2-0.4-5.9
				c-1.9-0.7-3.5-1.8-3.7-4.2c0-0.2,0-0.4,0-0.6c0.1-1.3,0.7-2.3,1.4-3c0.6-0.7,1.6-1.4,2-2.4c0.7-1.6-0.2-3.7-0.1-5.6
				c0.1-1.5,1-2.6,1.9-3.4C137.2,168,138.4,167.3,139.9,167.2z"/>
		</g>
	</g>
	<g>
		<g>
			<path class="st3" d="M163.4,180.2c0.9-1.8-0.3-4.1,0.5-5.7c0.5-0.9,1.4-1.5,2.3-2.1c0.6-0.4,1.4-0.9,1.7-1.5
				c0.8-1.8-1.1-4-0.2-5.8c0.2-0.4,0.7-0.8,1-0.9c1.4-0.8,3.6-1,4.5-2.2c0.3-0.4,0.6-1.1,0.8-1.7c0.1-0.4,0.1-1.8,0.7-1.8
				c0.6,0,0.5,0.7,0.4,1.2c-0.3,1.5-0.9,2.7-1.8,3.5c-0.6,0.5-1.5,0.9-2.4,1.1c-0.8,0.3-2,0.5-2.3,1.2c-0.2,0.6,0,1.6,0.1,2.2
				c0.2,1.1,0.6,2.5,0,3.6c-0.4,0.8-1.3,1.3-2,1.8c-0.8,0.5-1.7,1-2,1.8c-0.3,0.8-0.1,1.9,0,2.8c0.1,1,0,1.9-0.3,2.6
				c-0.3,0.7-0.8,1.2-1.1,1.9c-1.5,2.4-1.4,6.8-1.2,10.7c0,0.4,0.1,0.9,0.1,1.4c0,0.3,0.1,1-0.3,1c-0.6,0-0.5-0.8-0.6-1.4
				c-0.4-4.7-0.4-10.4,1.8-13c-0.7-0.9-1.4-1.7-2-2.7c-0.7-1.1-1.8-2.9-1.1-4.5c0.4-0.9,1.5-1.7,2.4-2.3c0.8-0.5,2.1-1.2,2.4-2.2
				c0.3-1.1-0.4-2.3-0.6-3.5c-0.4-1.8-0.2-3.7,1.1-4.4c1.4-0.8,3.8-0.6,4.5-1.8c0.4-0.7,0.4-1.6,0.5-2.3c0.1-1,0.3-2,0.8-2.7
				c0.6-0.9,1.9-1.5,3.3-1.6c2.1-0.1,3.6,0.8,4.5,1.9c1,1.1,1.7,2.7,1.7,4.6c0,2.1-0.7,3.6-1.7,4.7c-0.4,0.5-1.1,1-1.8,1.4
				c-0.6,0.3-1.7,0.7-1.8,1.3c-0.2,0.5,0.1,1.3,0.3,1.8c0.2,0.6,0.3,1.3,0.3,1.8c0,1.7-0.9,2.9-1.9,3.5c-0.5,0.4-1.2,0.6-1.8,0.9
				c-0.7,0.2-1.5,0.4-1.8,0.9c-0.4,0.9,0.1,2.7-0.3,3.9c-0.4,1-1.4,1.7-2.3,2.1c-0.3,0.1-0.8,0.3-1.3,0.5c-0.5,0.1-1.2,0.3-1.2-0.2
				c-0.1-0.5,0.5-0.5,0.9-0.7c1.6-0.5,3.1-1.1,3.2-3c0.1-1.3-0.2-2.6,0.5-3.4c0.5-0.6,1.6-0.8,2.4-1.1c1.2-0.4,2.3-1.3,2.6-2.6
				c0.2-0.8,0-1.6-0.2-2.4c-0.2-0.6-0.5-1.6-0.2-2.4c0.4-1.2,1.8-1.5,2.7-2.1c0.9-0.6,1.7-1.5,2.1-2.7c1-2.8-0.2-5.9-1.9-7
				c-1.5-1-4.5-1.2-5.5,0.4c-1.1,1.7-0.4,4.5-1.9,5.7c-0.6,0.4-1.4,0.7-2.3,0.9c-1,0.2-2.1,0.4-2.5,1.2c-0.9,1.9,0.6,4.2,0.6,6
				c0,1.7-1.4,2.5-2.6,3.2c-1,0.7-2.4,1.4-2.5,2.7c-0.1,1.2,0.6,2.3,1.1,3.1C162.1,178.8,162.7,179.5,163.4,180.2z"/>
		</g>
	</g>
	<g>
		<path class="st2" d="M104.3,49v6.2c2.3,0,4.1,1.8,4.1,4.1c0,2.3-1.9,4.1-4.1,4.1v8.4h-7.2c0,2.3-1.9,4.1-4.1,4.1
			c-2.3,0-4.1-1.8-4.1-4.1h-7.3v22.9h22.8h0.1h22.8V71.9c0,0,0-22.9,0-22.9H104.3z"/>
	</g>
	<g>
		<path d="M127.2,95.2H81.5c-0.2,0-0.4-0.2-0.4-0.4V71.9c0-0.2,0.2-0.4,0.4-0.4h7.3c0.2,0,0.4,0.2,0.4,0.4c0,2,1.7,3.7,3.7,3.7
			c2,0,3.7-1.7,3.7-3.7c0-0.2,0.2-0.4,0.4-0.4h6.8v-8c0-0.2,0.2-0.4,0.4-0.4c2,0,3.7-1.7,3.7-3.7c0-2-1.7-3.7-3.7-3.7
			c-0.2,0-0.4-0.2-0.4-0.4V49c0-0.2,0.2-0.4,0.4-0.4h22.9c0.2,0,0.4,0.2,0.4,0.4v22.9c0,0,0,0.1,0,0.1v22.8
			C127.6,95,127.4,95.2,127.2,95.2z M82,94.4h44.8V71.9c0,0,0-0.1,0-0.1V49.4h-22v5.3c2.3,0.2,4.1,2.2,4.1,4.5
			c0,2.4-1.8,4.3-4.1,4.5v8c0,0.2-0.2,0.4-0.4,0.4h-6.8c-0.2,2.3-2.2,4.1-4.5,4.1c-2.4,0-4.3-1.8-4.5-4.1H82V94.4z"/>
	</g>
	<g>
		<path d="M115.8,76.4c-2.3,0-4.3-1.8-4.5-4.1H104c-0.2,0-0.4-0.2-0.4-0.4c0-0.2,0.2-0.4,0.4-0.4h7.7c0.2,0,0.4,0.2,0.4,0.4
			c0,2,1.7,3.6,3.7,3.6s3.7-1.6,3.7-3.6c0-0.2,0.2-0.4,0.4-0.4h7.3c0.2,0,0.4,0.2,0.4,0.4c0,0.2-0.2,0.4-0.4,0.4h-6.9
			C120.1,74.6,118.1,76.4,115.8,76.4z"/>
	</g>
	<g>
		<path d="M104.5,95.2c-0.2,0-0.4-0.2-0.4-0.4v-6.5c-2.3-0.2-4.1-2.2-4.1-4.5c0-2.3,1.8-4.3,4.1-4.5v-7.3c0-0.2,0.2-0.4,0.4-0.4
			c0.2,0,0.4,0.2,0.4,0.4v7.7c0,0.2-0.2,0.4-0.4,0.4c-2,0-3.6,1.7-3.6,3.7c0,2,1.6,3.7,3.6,3.7c0.2,0,0.4,0.2,0.4,0.4v6.9
			C105,95,104.8,95.2,104.5,95.2z"/>
	</g>
	<g>
		<path class="st4" d="M99.2,51.3c-0.3-2.3-2.4-3.8-4.7-3.5l-0.8-6.1L71,44.7l3.1,22.7l7.3-1c0.3,2.3,2.4,3.9,4.7,3.6
			c2.3-0.3,3.8-2.4,3.5-4.7c0,0,7.3-1,7.3-1l-1.1-8.4C97.9,55.6,99.5,53.5,99.2,51.3z"/>
	</g>
	<g>
		<path d="M85.5,70.6c-1,0-2-0.3-2.8-0.9c-0.9-0.7-1.4-1.6-1.7-2.6L74.2,68c-0.2,0-0.5-0.1-0.5-0.4l-3.1-22.7c0-0.1,0-0.2,0.1-0.3
			c0.1-0.1,0.2-0.2,0.3-0.2l22.7-3.1c0.1,0,0.2,0,0.3,0.1c0.1,0.1,0.2,0.2,0.2,0.3l0.8,5.7c1.1,0,2.1,0.3,2.9,0.9
			c1,0.7,1.6,1.8,1.8,3c0.3,2.4-1.2,4.5-3.5,5.1l1.1,8c0,0.1,0,0.2-0.1,0.3c-0.1,0.1-0.2,0.2-0.3,0.2L90,65.8
			c0.1,2.3-1.6,4.4-3.9,4.7C85.9,70.6,85.7,70.6,85.5,70.6z M81.4,66.1c0.1,0,0.2,0,0.3,0.1c0.1,0.1,0.2,0.2,0.2,0.3
			c0.1,1,0.6,1.9,1.4,2.5c0.8,0.6,1.8,0.9,2.7,0.7c2-0.3,3.4-2.1,3.2-4.2c0-0.2,0.1-0.5,0.4-0.5l6.8-0.9l-1.1-7.9
			c0-0.2,0.1-0.5,0.4-0.5c2-0.3,3.4-2.1,3.2-4.2c-0.1-1-0.6-1.8-1.4-2.4c-0.8-0.6-1.8-0.9-2.7-0.7c-0.1,0-0.2,0-0.3-0.1
			c-0.1-0.1-0.2-0.2-0.2-0.3l-0.8-5.7l-21.8,3l3,21.8L81.4,66.1C81.3,66.1,81.4,66.1,81.4,66.1z"/>
	</g>
	<g>
		<path class="st2" d="M142.4,137.2c0,0,13.4,20.7,14.5,21.9c1.1,1.2,3.5,3.5,2.4,6.2c-1.1,2.6-4.8,8.2-7.4,10.4
			c-2.6,2.3-3.4,1.6-4.1,1c-0.6-0.6-0.6-1.9-0.6-1.9s-3.6,3.6-4.8,3.7c-1.2,0.1-2.6-2.6-2.1-4.4c0.4-1.8,1.4-8.3,1.4-8.3
			s-17.7-18.5-22.1-22.2c-4.4-3.7-6.5-7.4-6.4-9.4c0.1-2.1,1-5.4,3.5-6.6c2.5-1.2,16.8-3.6,16.8-3.6l4.6-7.5c0,0-1.9-0.9-2.2-2
			c-0.3-1.2-1-4-1-4s-1.6-0.5-2.2-0.9c-0.6-0.4-1.1-1.2-1.1-1.2s-6.6,2.7-8.3,0.7c-1.7-2-6.7-14.3-6.7-14.3l-1.4-1.6
			c0,0-2.2-1-2.1-2.1c0.1-1.1,1.1-2.2,1.1-2.2s1.2-1.1,1.5-1.1c0.3,0,0.7,0.2,0.7,0.2s0.4-1,0.8-1c0.4,0,0.6-0.1,0.6-0.1
			s-2.2-4.9-1.7-5.4c0.5-0.5,0.9-1,1.4-0.1c0.5,0.9,3.2,7,3.2,7s0.6-2.6,1.1-2.4c0.6,0.2,0.7,0.1,0.7,0.6c0,0.5-0.2,2.6-0.2,3.4
			c0,0.8,0.1,3.2,0.1,3.2l4.8,7.9c0,0,4.1-3.4,6-3.7c1.9-0.3,4.3-0.6,4.5-1.1c0.1-0.4,0.5-5,0.5-5s-2.3,0.6-3.3-0.9
			c-1-1.5-1.4-3.3-1.4-3.3s-0.5-0.4-0.7-0.9c-0.2-0.5-0.2-0.5,0.1-0.8c0.2-0.2,1.1-0.4,2-2.9c0.9-2.5,3.4-4.3,6.7-3.1
			c3.3,1.2,4.4,0.5,6.9,11c2.6,10.5,5.7,20.2,5.2,20.7c-0.6,0.5-1.7,0.4-1.7,0.4s5.3,12.4,6.6,15.4c1.3,2.9,2.3,5.1,2.2,6
			c-0.2,0.9,0.1,1.3-0.7,1.4c-0.8,0.1-18,0.8-18,0.8L142.4,137.2z"/>
	</g>
	<g>
		<g>
			<path class="st3" d="M136.3,83.8c-0.3-0.1-0.6,0.1-0.7,0.4l-0.2,0.6c-0.1,0.3,0.1,0.6,0.4,0.7c0.3,0.1,0.6-0.1,0.7-0.4l0.2-0.6
				C136.8,84.2,136.6,83.8,136.3,83.8z"/>
		</g>
	</g>
	<g>
		<g>
			<path class="st2" d="M156.3,129.5c-0.4-2.3-1.2-4.5-2.1-6.7c-0.3-0.8-0.7-1.5-1-2.3c-0.4-0.8-0.8-1.6-1.1-2.5
				c-0.2-0.6-0.5-1.3-0.7-1.9c0,0-11.5,0.5-11.5,0.5l-5.1,8.9c0,0-10.7,0.1-17.9,3.5c-7.2,3.4-1.1,9.6-1.1,9.6l22.5,22.4
				c0.1-0.7,0.3-1.4,0.5-2.1c0.2-0.5,0.4-1.1,0.8-1.6c0.2-0.3,0.4-0.6,0.7-0.8c0.3-0.2,0.5-0.4,0.8-0.6c0.4-0.2,0.7-0.5,1.1-0.6
				c0.5-0.2,1-0.5,1.5-0.6c0.6-0.2,1.1-0.2,1.7-0.2c0-0.1,0.1-0.3,0.2-0.4c0.2-0.4,0.5-0.7,0.8-1c0.2-0.2,0.4-0.3,0.6-0.5
				c0.2-0.1,0.5-0.2,0.7-0.3c0.4-0.2,0.8-0.2,1.2-0.4c0.2-0.2,0.4-0.3,0.5-0.4c0.4-0.2,0.7-0.3,1.2-0.4c0.2,0,0.4,0,0.5,0
				c0.2,0,0.5,0,0.7,0c-0.3-0.4-0.5-0.8-0.8-1.2c-0.4-0.4-0.7-0.8-1-1.2c-0.3-0.4-0.5-0.8-0.7-1.2c-0.1-0.2-0.2-0.4-0.3-0.6
				c-0.3-0.3-0.5-0.6-0.7-0.9c-0.5-0.6-0.8-1.3-1.2-2c-0.2-0.4-0.5-0.8-0.7-1.2c-0.4-0.5-0.8-0.9-1.1-1.4c-0.4-0.5-0.7-1.1-0.9-1.7
				c0,0,0-0.1,0-0.1c-0.2-0.2-0.5-0.4-0.6-0.7c-0.3-0.6-0.3-1.3,0.1-1.9l-1.3-2l11-0.4c0.1-0.2,0.3-0.4,0.6-0.5
				c0.4-0.3,0.7-0.5,1.1-0.8c0.1-0.1,0.3-0.2,0.4-0.3c0-0.1,0-0.3,0-0.4c0.2-0.8,0.5-1.6,0.7-2.4C156.3,130,156.3,129.7,156.3,129.5
				z"/>
		</g>
	</g>
	<g>
		<g>
			<path class="st2" d="M140.3,122.3c0,0-0.2,3.1,1,4.5c1.2,1.5,3.3,2.7,3.3,2.7s2.4-1.3,2.7-3.1c0.3-1.8-0.2-3.9-0.2-3.9
				L140.3,122.3z"/>
		</g>
		<g>
			<path class="st2" d="M151.3,122.3c0,0-0.5,2.6,0.7,4.2c1.2,1.6,3.3,2.8,3.3,2.8l0.7-0.6c0,0,0.2-1.1-0.7-3.1
				c-0.9-2-1.7-3.6-1.7-3.6L151.3,122.3z"/>
		</g>
	</g>
	<g>
		<path class="st3" d="M152.3,119.8c0.7,0,1.4,0.1,2,0c0,0,1.1-0.3,1.2-0.3l-3.7-8.6l-3,0.6l2.1,5.5L152.3,119.8z"/>
	</g>
	<g>
		<defs>
			<path id="SVGID_1_" d="M136.1,107.5c0,0,0.9-1.4,1.4-4.2c0.5-2.9,0.4-5.6,0.4-5.6l-1-0.1c0,0-3.6,0.7-4.8,1.5
				c-1.2,0.8-4.5,3-4.5,3l-2.3-3.9c0,0-2.8-0.3-4.1,1.5c-1.3,1.8-0.8,2.5-0.8,2.5l2.7,6.7c0,0,0.6,2.7,2.8,2.3
				C128.2,110.6,136.1,107.5,136.1,107.5z"/>
		</defs>
		<clipPath id="SVGID_2_">
			<use xlink:href="#SVGID_1_"  style="overflow:visible;"/>
		</clipPath>
		<g class="st5">
			<path class="st3" d="M135.6,106.8c0,0,0.9-1.4,1.4-4.2c0.5-2.9,0.4-5.6,0.4-5.6l-1-0.4c0,0-3.1,0.8-4.8,1.8c-1.7,1-4.5,3-4.5,3
				l-2.3-3.9c0,0-2.6-0.6-3.9,1.2c-1.3,1.8-1.3,2.4-1.3,2.4l3,7.1c0,0,0.6,2.7,2.8,2.3C127.7,109.9,135.6,106.8,135.6,106.8z"/>
		</g>
	</g>
	<g>
		<g>
			<path d="M119.7,101.6c-0.2,0-0.5-0.2-0.5-0.4c-0.3-1.3,0.8-3,2.4-3.9c1.1-0.6,2.2-0.8,3.1-0.5c0.5,0.2,0.9,0.5,1.2,1
				c0.1,0.3,0,0.6-0.2,0.7c-0.3,0.1-0.6,0-0.7-0.2c-0.1-0.2-0.3-0.3-0.5-0.4c-0.6-0.2-1.5,0-2.3,0.5c-1.3,0.7-2.1,2-1.9,2.8
				c0.1,0.3-0.1,0.6-0.4,0.6C119.8,101.6,119.8,101.6,119.7,101.6z"/>
		</g>
	</g>
	<g>
		<g>
			<path d="M138.5,159.5c-0.1,0-0.2,0-0.3-0.1c-0.8-0.9-19.8-21.3-21.7-24.7c-0.6-1.1-0.8-2.1-0.4-3c0.7-1.6,2.7-2.2,3.5-2.5
				c1-0.3,2.7-0.6,7-1.2c2.1-0.3,4.6-0.5,6.4-0.7c1.1-0.1,2.1-0.2,2.5-0.2l3.5-9.3c0.1-0.2,0.3-0.3,0.6-0.3c0.2,0.1,0.3,0.3,0.3,0.6
				l-3.5,9.5c0,0,0,0.1-0.1,0.1c-0.2,0.2-0.2,0.2-3.1,0.5c-1.8,0.2-4.2,0.4-6.3,0.7c-4.2,0.5-5.9,0.9-6.9,1.1
				c-0.6,0.1-2.4,0.7-2.9,1.9c-0.3,0.6-0.1,1.4,0.4,2.3c1.9,3.2,21.4,24.3,21.6,24.5c0.2,0.2,0.2,0.4,0,0.6
				C138.7,159.4,138.6,159.5,138.5,159.5z"/>
		</g>
	</g>
	<g>
		<g>
			<path d="M136.2,160.7c-0.2,0-0.4-0.1-0.4-0.3c0-0.1-0.7-2.1,1.2-4.6c3.3-4.4,6.7-3.4,6.8-3.4c0.2,0.1,0.4,0.3,0.3,0.5
				c-0.1,0.2-0.3,0.4-0.5,0.3c-0.1,0-3-0.8-5.9,3.1c-1.6,2.1-1.1,3.7-1.1,3.8c0.1,0.2-0.1,0.5-0.3,0.5
				C136.3,160.6,136.3,160.7,136.2,160.7z"/>
		</g>
	</g>
	<g>
		<g>
			<path d="M138.1,162.5c-0.2,0-0.4-0.1-0.4-0.3c0-0.1-0.7-2.1,1.2-4.6c3.3-4.4,6.7-3.4,6.8-3.4c0.2,0.1,0.4,0.3,0.3,0.5
				c-0.1,0.2-0.3,0.4-0.5,0.3c-0.1,0-3-0.8-5.9,3.1c-1.6,2.1-1.1,3.7-1.1,3.8c0.1,0.2-0.1,0.5-0.3,0.5
				C138.2,162.5,138.1,162.5,138.1,162.5z"/>
		</g>
	</g>
	<g>
		<g>
			<path d="M143.5,152.5c-0.1,0-0.1,0-0.2-0.1c-0.2-0.1-0.3-0.4-0.2-0.6c0.1-0.1,1.4-2.5,4.2-3.2c2-0.5,3.1,0.1,3.1,0.1
				c0.2,0.1,0.3,0.4,0.2,0.6c-0.1,0.2-0.4,0.3-0.6,0.2c0,0-0.8-0.4-2.5,0c-2.5,0.6-3.7,2.8-3.7,2.8
				C143.8,152.4,143.6,152.5,143.5,152.5z"/>
		</g>
	</g>
	<g>
		<g>
			<path d="M145,154.7c-0.1,0-0.1,0-0.2-0.1c-0.2-0.1-0.3-0.4-0.2-0.6c0.1-0.1,1.4-2.5,4.2-3.2c2-0.5,3.1,0.1,3.1,0.1
				c0.2,0.1,0.3,0.4,0.2,0.6c-0.1,0.2-0.4,0.3-0.6,0.2c0,0-0.8-0.4-2.5,0c-2.5,0.6-3.7,2.8-3.7,2.8
				C145.3,154.7,145.1,154.7,145,154.7z"/>
		</g>
	</g>
	<g>
		<g>
			<path class="st3" d="M160,163.1c0,0-1.6-1.3-3.2,0.3c-1.7,1.6-3.3,3.5-5.8,7.1c-2.5,3.6-3.1,4.9-2.8,5.5c0.3,0.6,0.2,0.8,0.2,0.8
				l-1.3-1.9c0,0,4.1-6,4.9-7.5c0.8-1.5,0.8-2.8,0.8-2.8s0.1-4.1,1.2-5c1-0.9,2.7-0.8,2.7-0.8s1.8,1.9,2.3,2.6
				C159.4,162,160,163.1,160,163.1z"/>
		</g>
		<g>
			<path class="st3" d="M152.9,164.2c0,0-2-0.9-4.1,2.5c-2.1,3.4-4.8,6.7-5.9,8.2c-1.1,1.4-1.7,2.7-1.4,2.9c0.3,0.2-1.3-1.4-1.1-2.6
				c0.1-1.3,0.4-3.8,0.4-3.8l1.3,0.7l3.8-5.6c0,0,0.1-4.2,1-5.1c0.9-0.9,1.4-1.9,2.2-1.2C149.9,160.8,152.9,164.2,152.9,164.2z"/>
		</g>
	</g>
	<g>
		<g>
			<path class="st3" d="M139.9,88.3l-1.4,21.4c0,0-0.5,1.6,0.8,1.8c1.3,0.2,13.4,0,13.4,0s1.5,0,1.4-1c-0.2-0.9-7.3-27.4-7.3-27.4
				s-0.7-3.3-4.7-4.1c-4.1-0.8-5.5,1-5.5,1c0,0,0.4,2.2,1,3.1c0.6,0.9,1.3,2.3,1.3,2.3s1.9-0.7,2.4,0.6
				C141.7,87.3,139.9,88.3,139.9,88.3z"/>
		</g>
	</g>
	<g>
		<g>
			<path class="st3" d="M152.7,112c2.6,5.9,5.2,11.6,7.7,17.6c0.3,0.8,0.9,1.8,1,2.6c0.1,1.1-0.3,2.2-1,2.6
				c-0.8,0.4-2.4,0.4-3.5,0.4c-0.6,0-1.3,0-1.9,0c-0.6,0-1.3-0.1-1.9,0c-0.2,0-0.5,0.2-0.9,0.3c-1.1,0.1-2.4,0-3.7,0
				c-7.3,0-14.6,0-21.8,0c-0.2,0-1.1,0-1.8,0c-0.5,0-1.3,0-1.2-0.6c0-0.5,0.6-0.5,1.4-0.5c8.5,0,16.9,0.1,25.4,0.1
				c0.6,0,1.3,0.1,1.8,0c0.4-0.1,0.9-0.5,1.2-0.8c1.2-0.9,2-2.1,2-4c-0.8,0.2-1.8-0.6-2.4-1.1c-1.4-1.1-2.3-2.7-2.4-5.1
				c0-0.5-0.1-1.1,0.1-1.4c0.3-0.3,1.4-0.1,1.9-0.2c-0.5-1.2-1.1-2.5-1.7-3.7c-4.3,0.1-9.1,0.1-13.5,0.1c-1,1.6-2.1,3.4-3.2,5.2
				c-0.2,0.3-0.3,0.7-0.5,0.8c-0.2,0.1-0.7,0.1-1.1,0.2c-4.2,0.6-8.1,1.3-12,2.2c-1.5,0.3-3,0.6-4.1,1.2c-1,0.6-1.6,1.6-2.2,2.8
				c-0.5,1.2-0.9,2.6-0.7,4.2c0.1,1,0.6,1.9,1,2.7c0.4,0.8,1.1,1.5,1.6,2.1c8,8.7,16.5,16.7,24.9,25.1c0.3,0.3,0.8,0.7,0.9,1
				c0.1,0.4-0.1,1-0.2,1.4c-0.2,1.2-0.5,2.7-0.7,3.9c0.3,0.1,0.6,0.3,0.9,0.5c1.1-1.8,2.2-3.6,3.3-5.4c0.3-2.8,0.4-5.9,3-6.3
				c-5.4-7.3-11.5-14.6-17.5-21.6c-0.4-0.4-1.1-1-1-1.6c0-0.2,0.2-0.4,0.4-0.4c0.6-0.1,1.3,1.2,1.6,1.5c6.1,7,12,14.2,17.6,21.7
				c0.9,1.1,1.7,2.3,2.7,3.3c0.3-2.2,1-4,3.3-4.2c-4.1-6.3-8.6-13-12.8-19.5c-0.3-0.4-1.2-1.6-0.3-1.7c0.6-0.1,1.1,1,1.4,1.4
				c2.6,3.9,5.1,7.9,7.7,11.7c1.5,2.3,2.9,4.2,4.4,6.6c0.7,1.1,1.5,2,2.4,3.1c0.8,0.9,2,2.2,1.6,4c-0.3,1.5-1.2,2.8-1.9,4
				c-1.5,2.4-3.3,4.7-5.2,6.7c-0.8,0.8-2.1,2.3-3.3,2.7c-1.1,0.4-2.3-0.5-2.7-1.1c-0.1-0.2-0.2-0.4-0.3-0.7
				c-0.6,0.5-1.1,1.1-1.7,1.6c-0.6,0.5-1.4,1.3-2.2,1.4c-1.3,0.2-2.3-0.7-2.6-1.6c-0.4-1-0.4-2.6-0.2-3.7c0.2-1.8,0.5-3.7,0.8-5.5
				c0.1-0.6,0.4-1.3,0.3-1.8c0-0.2-0.5-0.7-0.8-1c-7.2-7.2-14.3-14.1-21.4-21.4c-1.2-1.2-2.4-2.5-3.6-3.8c-0.5-0.6-1.2-1.3-1.6-2.2
				c-0.4-0.8-0.8-1.8-0.9-2.8c-0.1-1.3,0.1-2.6,0.4-3.6c0.5-2,1.6-3.9,3.4-4.6c0.9-0.4,1.9-0.7,3.1-0.9c4.3-1,8.9-1.7,13.5-2.5
				c1.5-2.3,2.8-4.6,4.2-6.9c-2.2-0.7-2.3-3.4-2.8-5.7c-1.6-0.2-2.7-0.9-3.3-2.1c-1.1,0.4-1.9,0.7-2.9,1.1c-1,0.4-2,0.8-3.2,0.8
				c-1.2,0-1.9-0.7-2.4-1.6c-1.5-2.5-2.6-5.2-3.9-8c-0.6-1.3-1.2-2.7-1.9-4.1c-0.2-0.5-0.4-1-0.6-1.4c-0.2-0.3-0.7-0.5-0.9-0.8
				c-0.2-0.3-0.2-0.7-0.5-1c-1.2-0.4-2.3-1.5-2.3-2.9c0-1,0.7-2,1.7-2.3c0.4-0.5,0.6-1.1,1.5-1c0.4-0.4,0.6-0.8,1.2-0.9
				c-0.2-0.6-0.5-1.2-0.8-1.9c-0.3-0.6-0.6-1.3-0.7-2c-0.1-1,0.4-2.1,1.4-2c1,0.1,1.6,2,1.9,2.8c0.5,1.2,1,2.2,1.4,3.3
				c0.3-0.3,0.4-0.7,0.8-1c0.5-0.3,1.5-0.3,1.8,0.2c0.2,0.3,0.1,1,0,1.6c-0.1,1.1-0.1,2.2-0.1,3.5c0,0.6,0,1.2,0.1,1.7
				c0.1,0.3,0.3,0.6,0.5,1c1.2,2.3,2.4,4.6,3.6,6.8c1.5-0.9,2.9-2,4.5-2.8c1.6-0.8,3.6-1.2,5.8-1.5c0.2-1.4,0.2-2.8,0.3-4.3
				c-2.5,0.3-3.8-1.2-4.4-3.3c-0.2-0.5-0.6-1.8,0.2-1.8c0.6,0,0.5,0.7,0.7,1.2c0.4-0.1,0.6-0.7,1.1-0.7c0.2,0,0.4,0.2,0.5,0.4
				c0.1,0.7-0.9,0.9-1.2,1.3c0.4,0.9,0.9,1.8,2.2,1.9c0.6,0,1.5-0.3,1.9,0c0.4,0.3,0.1,2.3,0,3c0,0.5-0.1,1-0.1,1.5
				c-0.1,1.1-0.1,1.8-1.1,1.9c0.3,0.2,1,0.4,1.4,0.6c0.2-3,0.4-5.9,0.7-8.9c-0.3-0.2-0.9-0.2-0.9-0.5c-0.1-1,2.2-0.5,1.8-2.1
				c0-0.2-0.3-0.6-0.7-0.6c-0.6,0-1.1,0.9-1.8,0.7c-0.1,0-0.3-0.3-0.3-0.4c-0.1-0.4,0.3-0.5,0.4-0.7c-0.4-0.7-0.8-1.4-1.5-1.8
				c-1.1,0.4-1-1.1,0.1-0.9c-0.2-0.4-0.3-0.9-0.5-1.3c-0.5,0.4-0.8,1.1-1,1.9c-0.3,0.8-0.4,2-1,2.4c-0.5,0.3-2,0.7-2-0.1
				c0-0.7,0.9-0.5,1.4-0.8c0.6-1.4,0.8-3,1.8-4.1c0.9-1,2-2,3.7-2.1c1.9-0.1,3.6,0.4,4.9,1c2.7,1.3,3.5,4.3,4.3,7.6
				c1.2,4.8,2.2,9.6,3.4,14.3c0.6,2.2,1.2,4.6,1.9,7c0.2,0.8,0.6,1.6,0.6,2.4C154.2,111.6,153.8,112,152.7,112z M152,106.4
				c-0.4-1.5-0.8-3-1.2-4.5c-1.2-4.5-2.2-9.1-3.3-13.7c-0.7-3.1-1.3-6.3-3.7-7.6c-1.6-0.9-5.2-1.7-6.6-0.2c0.5,1.6,1.2,3,1.9,4.3
				c1.1-0.5,2.1,0.2,2.4,1.1c0.4,1.1-0.3,2.2-1.1,2.6c-0.4,5.6-0.8,11.2-1.2,16.8c-0.1,1.9-0.3,3.8-0.3,5.6c0.5,0.2,1.1,0.1,1.7,0.1
				c4.2,0,8.5,0.1,12.6-0.1C152.9,109.3,152.4,107.9,152,106.4z M114.5,92.1c-0.3-0.4-0.4-1.2,0.2-1.2c0.6,0,0.8,1,1,1.5
				c0.1,0.3,0.3,0.6,0.4,0.9c0.1,0.3,0.2,0.7,0.4,0.9c0.2,0.2,0.6,0.4,0.8,0.6c0.3,0.5,0.6,1.2,0.9,1.8c0.9,1.9,1.7,3.8,2.6,5.7
				c0.8,1.8,1.7,3.8,2.7,5.6c0.4,0.6,0.7,1.3,1.2,1.5c0.8,0.3,2.2-0.2,3-0.5c2.2-0.8,4.2-1.5,6.3-2.4c0.6-0.2,1.7-0.9,1.7,0.1
				c0,0.5-1.1,0.8-1.5,0.9c-0.7,0.3-1.2,0.4-1.8,0.7c0.3,0.7,0.8,1.1,1.6,1.3c0.4,0.1,1,0,1.4,0.2c0.4,0.2,0.6,1.9,0.7,2.4
				c0.4,1.7,0.7,3.1,2.3,3.4c0.9,0.2,2.1,0.1,3.1,0c2.8-0.1,5.7-0.1,8.4-0.3c-0.4-1.1-0.9-2.1-1.3-3.3c-2.2,0-5.1,0-7.4,0
				c-0.8,0-1.8,0.1-2.4-0.1c-1-0.3-0.9-1.3-0.9-2.5c0.2-3.7,0.8-7.2,1-10.8c-0.4-0.2-1-0.5-1.5-0.7c-0.4-0.2-0.9-0.6-1.4-0.6
				c-0.5,0-1.2,0.2-1.8,0.4c-1.8,0.5-3.2,1.5-4.4,2.3c-1.3,0.9-2.6,1.8-3.9,2.8c-0.3,0.2-1,0.9-1.4,0.8c-0.2,0-0.4-0.2-0.3-0.5
				c0-0.5,0.8-0.9,1.1-1.1c0.5-0.4,0.9-0.7,1.2-1c-1.2-2.2-2.6-4.7-3.8-7c-0.2-0.3-0.4-0.7-0.5-1c-0.1-0.5-0.1-1.1-0.1-1.6
				c0-1.7-0.2-3.4,0.1-4.8c-0.4,0-0.6,0.4-0.7,0.7c-0.1,0.3-0.2,0.8-0.2,1.2c0,0.4,0.4,0.6,0.3,1c0,0.3-0.3,0.4-0.5,0.4
				c-0.4,0-0.5-0.4-0.7-0.8c-0.8-1.9-1.5-3.6-2.3-5.3c-0.3-0.7-0.5-1.5-1.1-2c-0.5,0.8,0.1,1.8,0.4,2.5c0.3,0.8,0.7,1.7,0.9,2.4
				c0.3,0.2,0.7,0.3,0.7,0.8c0,0.3-0.2,0.5-0.5,0.5c-0.4,0-1-0.8-1.5-0.2c0.1,0.3,0.4,0.3,0.4,0.7c-0.1,0.8-0.9,0.3-1.3,0.2
				c-0.4-0.1-0.5-0.1-0.7,0.2c0.2,0.3,0.6,0.3,0.6,0.8c-0.1,0.9-1.2,0.1-1.5,0C113.6,90,113.8,91.6,114.5,92.1z M149.7,112
				c0.9,2.6,2,5,3.2,7.4c0.7,0,1.4,0,2.1,0c-1.1-2.5-2.2-4.9-3.3-7.4C150.9,112,150.3,112,149.7,112z M150,116.3
				c-1.7,0.2-3.7,0.1-5.7,0.2c-2,0.1-4,0.1-5.8,0.1c-0.1,0.2-0.4,0.5-0.3,0.7c4.1-0.1,8.2-0.1,12.3-0.1
				C150.4,116.7,150.3,116.3,150,116.3z M155.9,125.7c0.4,0.9,0.7,1.9,0.8,3c0,1.1-0.1,2.2-0.5,3.3c0.2,0.1,0.4,0.2,0.4,0.5
				c0,0.8-1.6,1-1.9,1.6c1.1,0,2,0,3.1-0.1c0.7,0,1.8,0,2.2-0.3c0.3-0.2,0.5-1,0.4-1.6c-0.1-0.4-0.4-1-0.6-1.5
				c-1.4-3.4-3-7-4.4-10.1c-0.7,0-1.5,0-2.1,0C154.1,122.1,155.1,123.9,155.9,125.7z M151.6,122.7c0,3.2,1.4,5,3.5,6.1
				c0.8-0.2,0.2-1.4,0-2c-0.6-1.5-1.3-2.9-1.9-4.1C152.7,122.6,152.2,122.7,151.6,122.7z M152.3,167.6c-1.3,2.2-2.4,3.9-3.9,5.9
				c-0.3,0.4-0.8,0.9-0.8,1.1c0,0.3,0.2,0.9,0.3,1.1c0.2,0.4,0.9,0.8,1.3,0.8c0.5,0,1.3-0.8,1.7-1.1c1.6-1.4,2.8-2.9,4-4.5
				c1.2-1.6,2.4-3.3,3.4-5.1c0.3-0.6,0.7-1.4,0.7-2.2c0-1.6-1.2-2.5-2-3.4c-0.2-0.2-0.4-0.6-0.7-0.7c-0.3-0.1-1.1,0-1.2,0
				c-1.5,0.5-1.8,2.5-2,4.3C154,165.2,152.9,166.6,152.3,167.6z M141.4,177c0.2,0.4,0.8,0.8,1.3,0.7c0.5,0,1.3-0.8,1.7-1.1
				c1.6-1.4,2.8-3,4-4.6c1.2-1.8,2.3-3.3,3.3-5.2c0.3-0.5,0.9-1.4,0.9-2c0-0.8-0.9-1.4-1.4-1.9c-0.3-0.3-0.5-0.6-0.7-0.9
				c-0.2-0.3-0.5-0.7-0.8-0.9c-0.3-0.2-1-0.4-1.3-0.3c-1.1,0.7-1.3,1.9-1.5,3.4c-0.1,0.6-0.1,1.5-0.3,2.1c-0.1,0.5-0.6,1.1-1,1.7
				c-0.7,1.2-1.3,2.1-2,3.2c-0.3,0.5-0.7,1.5-1.2,1.5c-0.5,0-0.6-0.6-1.1-0.7C141.1,173.3,140.6,175.8,141.4,177z"/>
		</g>
		<g>
			<path class="st3" d="M138.3,87.3c-0.1-0.2-0.2-0.4,0-0.6c0.1-0.1,1-0.5,1.3-0.5c0.3-0.1,0.6,0.2,0.6,0.4
				C140.1,87.2,138.8,87.5,138.3,87.3z"/>
		</g>
		<g>
			<path class="st3" d="M140.3,122c0.4-0.1,1.3-0.1,1.8,0c1.1,0,2.2,0,3.4,0c0.5,0,1.3-0.1,1.6,0.1c0.4,0.2,0.4,0.8,0.5,1.4
				c0.1,0.5,0.2,1,0.2,1.7c0,1.9-0.9,3.2-2,4.1c-0.3,0.3-0.9,0.8-1.2,0.8c-0.3,0-0.8-0.3-1.1-0.5c-1.1-0.6-2-1.4-2.6-2.3
				c-0.3-0.5-0.7-1.1-0.9-2.4C139.9,124.2,139.6,122.3,140.3,122C140.3,122,140.3,122,140.3,122z M140.7,122.9
				c0,3.4,1.5,5.1,3.9,6.2c1.1-0.7,2.3-1.7,2.4-3.5c0.1-1-0.1-1.9-0.3-2.7c-1.9,0-4,0-5.9-0.1C140.8,122.8,140.7,122.9,140.7,122.9z
				"/>
		</g>
	</g>
	<g>
		<g>
			<g>
				<path class="st2" d="M79.4,128.2c-1.4,0-2.6,1.4-2.6,3c0,1.7,1.2,3,2.6,3L79.4,128.2z"/>
			</g>
		</g>
	</g>
	<g>
		<g>
			<path class="st2" d="M39.7,97.4l-7.6,5.4c0,0-2.7,1.2-4.3,0.3c-1.7-1-3.3-3-2.6-7.6c0.7-4.7,2.2-20.7,5.6-22.9
				c4.6-3,10.1-1.9,10.1-1.9s-0.5-3.1,0.6-3.2c1-0.1,2,0.1,2,0.1l0.1-4.7c0,0-2,0.1-2.9-1c-0.9-1.1-1.3-2.7-1.3-2.7s-2.2-1.3-1.5-3
				c0.4-1.1,1.6-1.5,1.6-1.5s-0.9-1.2,0.1-2.3c1-1.1,2.2-0.6,2.8-1.2c0.6-0.7,2.8-3.5,4.2-3.3c1.3,0.2,1,1.1,1,1.1s2.4-1.6,3.5-0.8
				c1.1,0.9,0.9,1.8,0.9,1.8s1.5,0.2,1.8,1.1c0.3,0.9-1.3,2.8-1.3,2.8l0.7,2.6c0,0,0.5,0.8,0.7,1.4c0.2,0.6,0.3,1.4,0.3,1.4
				s2.3,0.8,2.6,1.5c0.2,0.7-0.2,1.3-0.2,1.3s0.7,0.2,0.5,1.1c-0.2,0.9-1.1,1.6-1.1,1.6s0.2,0.8-0.7,1.5c-1.5,1.2-2.4,0.7-2.4,0.7
				l-1.6-0.3L49,66.7l-0.2,1c0,0,2.7,0.1,2.9,0.8c0.1,0.6-0.1,2.3-0.1,2.3S60,70,62.1,73.1c2.1,3.1,4.5,8.5,4.5,8.5s1.8-10,2.3-10.3
				c0.5-0.3,0.7-0.6,0.7-0.6s0.4-11.6,1.6-13c0.6-0.7,0.9-0.9,0.9-0.9l0.5,3.7L72,61.9c0,0,2.9-0.7,3.3-0.2c0.4,0.5,0.7,0.9,0.1,1.4
				c-0.6,0.5-2.6,1.5-2.6,1.5s0.3,0.9,0.4,2.2c0.1,1.3-0.4,3.4-0.4,3.4l1,0.4l1.5,0.6l-0.6,2.7l1,2.7c0,0-1.7,10.1-2.4,12.6
				c-0.7,2.5-2,5.8-5.9,5.1c-3-0.5-6.6-7.6-6.6-7.6l0,98.6l0.4,3.9c0,0,4.8,2.6,5.5,3.9c0.8,1.3,0.9,2.5,0.9,2.5l-15.5-0.1
				c0,0-0.7-6.2-0.9-12.4c-0.2-6.1-1.7-61.6-1.7-61.6l-11.6,66.1c0,0-0.6,3.9-0.7,5.1c-0.1,1.3-0.2,2.9-0.2,2.9L24,195.4
				c0,0,0-3.2,1.6-4.3c1.6-1.1,3.1-2,3.1-2l11.4-82c0,0,0.4-3.8,0.2-5.9C40.1,99.2,39.7,97.4,39.7,97.4z"/>
		</g>
		<g>
			<path class="st2" d="M35.1,87.7l-0.9,3.9l2.5-1.9L35.1,87.7z"/>
		</g>
	</g>
	<g>
		<g>
			<path class="st3" d="M51.9,185.9l0.2,3.6c0,0,1.2,1,1.7,1.8c0.6,0.9,0.6,1.7,0.6,1.7h4.4c0,0,0.5-1.7,2.1-2.1
				c1.6-0.4,3.7,0.3,3.7,0.3l-3.1-2.4l-0.6-2.8L51.9,185.9z"/>
		</g>
		<g>
			<path class="st3" d="M29.1,186.4l9.1,0.1l-0.4,3.2l-2.1,4.1l-2.6-0.1c0,0-0.5-1.9-2.3-2.4c-1.8-0.5-3.5-1.1-3.5-1.1l1.5-0.9
				L29.1,186.4z"/>
		</g>
	</g>
	<g>
		<defs>
			<path id="SVGID_3_" d="M75.1,77.6c0,0-1.5,0.2-3.7-1.6c-2.2-1.8-2.2-2.2-2.4-3.1c-0.1-0.9,0-2.3,0-2.3l-2.5,11
				c0,0-2.8-7.5-4.5-8.8c-1.6-1.3-3.6-2.1-6.3-2.2c-2.7-0.1-4.4-0.2-4.4-0.2s1.1-1.8,0.2-2c-0.9-0.2-9.1-1-9.1-1s-1.3-0.8-1.5,0.3
				c-0.2,1.1-0.2,2.7-0.2,2.7s-6-0.4-8.7,1.1c-2.7,1.6-3.5,4.7-4.5,9.3c-1.1,4.6-2.7,16.7-2.4,18c0.2,1.2,1.2,4.9,5.3,4.3
				c4.1-0.6,9.5-6.3,9.5-6.3s0.3,1.8,0.3,4.3c0,2.5,0,6.1,0,6.1l20.9,1.8V86.6l3.7,6c0,0,4.4,4.3,6.7,1c2.2-3.3,4.3-16.2,4.3-16.2
				L75.1,77.6z M34.2,91.7l1.1-4.1L37,90L34.2,91.7z M49.7,90.1c-0.2,1-1.8,0.7-1.8,0.7l-3.9-0.1l-1.4,0.8c0,0,0.2,1.2,0.2,1.9
				c0,0.7-0.7,1.7-0.7,1.7s-0.5,0.5-1.2,0.4c-0.7-0.1-2.1-1.5-2.8-3.4c-0.7-1.8-0.1-2.8-0.1-2.8l0.9-0.9c0,0-0.2-3.3-0.1-5.5
				c0.1-2.2,1.9-2.7,1.9-2.7l-0.2-1.9l10.3,0C50.9,78.3,49.9,89.2,49.7,90.1z"/>
		</defs>
		<clipPath id="SVGID_4_">
			<use xlink:href="#SVGID_3_"  style="overflow:visible;"/>
		</clipPath>
		<g class="st6">
			<path class="st3" d="M75.2,78.9c-1.6,0.1-3.7-0.7-4.9-1.6c-0.8-0.7-1.2-1.3-1.2-1.3l-2.4,9.9c0,0-4.2-10.6-5.8-11.9
				c-1.6-1.3-3.6-2.1-6.3-2.2c-2.7-0.1-3.6-0.2-3.6-0.2s0.9-1.8,0-2c-0.9-0.2-9.7-1-9.7-1s-1.3-0.8-1.5,0.3c-0.2,1.1,0,2,0,2
				s-5.2-0.5-8.9,1.9c-2.7,1.5-3.5,4.7-4.5,9.3c-1.1,4.6-2.7,16.7-2.4,18c0.2,1.2,1.2,4.9,5.3,4.3c4.1-0.6,9.5-6.3,9.5-6.3
				s0.3,1.8,0.3,4.3c0,2.5,0,6.1,0,6.1l20.2,1.4l0.4-31.3l0.9,0.3c0,0-0.1,0.2-0.2,0.4c0,0,0.1,29.5,0.1,29.5l6.4-2.6
				c0,0,4.1-8.4,6.3-11.7c2.2-3.3,5.1-17.2,5.1-17.2S77.9,78.7,75.2,78.9z M30.1,96.2l2.6-4c0,0,0.8-2.8,1.3-4.7
				c0.5-1.8,1.4-4.1,1.4-4.1l0.3,0.6l-0.5,3.5l1.2,1.4l0.3,2.4L30.1,96.2z M49,90.4c-0.2,1-1.9,0.5-1.9,0.5h-3.4l-2.1,1.6
				c0,0,0.2,1.2,0.2,1.9c0,0.7-0.7,1.7-0.7,1.7s-0.5,0.5-1.2,0.4c-0.7-0.1-2.1-1.5-2.8-3.4c-0.7-1.8-0.1-2.8-0.1-2.8l2.3-1.7
				c0,0-0.7-3-0.6-5.2c0.1-2.2,1-2.2,1-2.2l1.2-1.2l9-0.6C49.9,79.3,49.2,89.4,49,90.4z"/>
		</g>
	</g>
	<g>
		<g>
			<path class="st2" d="M36.4,187.5c0.8,0,1.4,0.8,1.4,1.8c0,1-0.6,1.8-1.4,1.8c-0.8,0-1.4-0.8-1.4-1.8
				C35,188.3,35.6,187.5,36.4,187.5z"/>
		</g>
		<g>
			<path class="st2" d="M53.5,187.5c0.8,0,1.4,0.8,1.4,1.8c0,1-0.6,1.8-1.4,1.8c-0.8,0-1.4-0.8-1.4-1.8
				C52.1,188.3,52.7,187.5,53.5,187.5z"/>
		</g>
	</g>
	<g>
		<g>
			<path class="st2" d="M44.3,55.9c0,0,2.8,5,3.3,4.9c0.6-0.1,1.5-1.3,3.1-1.6c1.6-0.3,2.8-0.1,3.4,0.1c0.6,0.2,2.1,0.3,2.4,1.1
				c0.3,0.8-0.1,1.7-0.1,1.7s1,0.4,0.6,1.5c-0.4,1.1-1.3,1-1.3,1s1,1.7-1.3,2c-2.3,0.4-3.4-0.3-3.4-0.3s-2.3,1.2-4.2-0.8
				c-1.9-2-1.3-3.1-1.3-3.1l-2.2-4.3c0,0-0.5-0.7-1.2-0.5c-0.7,0.2-1.5,0.6-1.1,1.8c0.4,1.2,1,1.5,1.5,1.6c0.5,0,1.2-0.1,1.2-0.1
				L43,62.7c0,0-1.8-0.2-2.5-1.4c-0.7-1.2-1.3-2.5-1.3-2.5s-2.3-1.3-1.4-2.9c0.9-1.5,1.7-1,1.7-1s-1.4-2,0.3-3
				c1.7-1,1.6-0.1,2.2-0.6c0.6-0.5,1.6-2.6,2.8-3.1c1.1-0.5,1.7-0.6,2.2-0.5c0.6,0.2,0.7,0.9,0.7,0.9s2.7-1.5,3.7-0.5
				c1,1,0.5,1.6,0.5,1.6s1.9,0.3,2,1.5c0.1,1.2-1.1,2.6-1.1,2.6l-0.8-1c0,0-0.1-0.2-0.9-0.4c-0.8-0.2-1.7-0.2-1.7-0.2s0.6,1-0.5,1.1
				c-1.1,0.1-2.4-0.7-2.4-0.7s0.3,1.5-0.4,2.3C45.2,55.7,44.3,55.9,44.3,55.9z"/>
		</g>
	</g>
	<g>
		<g>
			<path class="st3" d="M48.2,56.4c0.3-0.1,0.6,0.1,0.6,0.4l0.1,0.7c0.1,0.3-0.1,0.6-0.4,0.6c-0.3,0.1-0.6-0.1-0.6-0.4L47.8,57
				C47.7,56.7,47.9,56.4,48.2,56.4z"/>
		</g>
	</g>
	<g>
		<g>
			<path class="st3" d="M72.8,59c0.2,0.1,0,0.5-0.1,0.7c0.1,0.2,0.1,0.7,0,0.9c0.2,0.3,0.3,0.4,0.2,0.8c0.8-0.1,1.9-0.5,2.7-0.2
				c0.6,0.3,0.9,1.1,0.6,1.9c-0.4,0.9-2,1.3-2.7,1.8c0.5,1.2,0.5,2.9,0.2,4.3c-0.1,0.5-0.2,1.5-0.7,1.5c-0.8,0-0.4-1.1-0.3-1.6
				c0.2-1.1,0.3-2.1,0-3.1c-0.1-0.4-0.4-1-0.3-1.4c0.1-0.5,1.1-0.8,1.6-1.1c0.2-0.1,0.5-0.3,0.8-0.5c0.4-0.2,0.7-0.4,0.5-0.8
				c-0.4-0.2-0.9,0-1.3,0c-0.4,0.1-0.9,0.1-1.2,0.3c-0.3,0.1-0.5,0.4-0.6,0.7c-0.3,0.5-0.6,1.2-1.2,0.6c-0.2,1.7-0.3,3.4-0.4,5.1
				c0,0.6-0.1,1.2-0.2,1.6c-0.1,0.4-0.5,0.6-0.6,0.9c-0.2,0.5-0.2,1.1-0.4,1.8c-0.8,3.6-1.5,7-2.4,10.8c-0.1,0.5-0.3,2.1-1.1,1.4
				c-0.4-0.3,0-1.4,0.1-1.8c0.1-0.3,0.1-0.6,0.2-0.9c0.1-0.3,0.2-0.7,0.2-0.9c0-0.3-0.3-0.8-0.5-1.1c-1.1-2.5-2.2-5.2-3.7-7.2
				c-1-1.2-2.3-1.8-4.2-2c-1.3-0.2-2.7-0.4-4.2-0.5C53,71.1,52.5,71,52,71c-0.3,0-0.4,0.4-0.8,0.2c-0.8-0.2,0-1.9-0.1-2.6
				c-2.8-0.5-6.2-0.7-9.5-0.7c-0.1,0.3-0.1,0.6-0.1,1c0,0.3-0.1,0.8,0,1.1c0.1,0.3,0.5,0.1,0.5,0.6c0,0.7-1.2,0.5-1.8,0.4
				c-2.1-0.1-4.9-0.1-6.4,0.5c-2.4,0.9-3.7,2.2-4.6,4.7c-0.8,2.3-1.2,4.9-1.7,7.6c-0.7,4.2-1.2,7.9-1.7,12.1c-0.2,1.4-0.3,2.9,0.2,4
				c0.5,1.1,1.3,2,2.2,2.5c1.1,0.6,2.5,0.3,3.7-0.2c1-0.4,1.8-1.2,2.7-1.9c2.2-1.7,4.3-3.2,6.4-5.1c0.4-0.3,1-0.8,1.1-1.2
				c0.1-0.4,0.1-1,0.1-1.5c0-0.5-0.2-1.1-0.1-1.4c0.2-0.7,2.4-0.6,1.6-1.7c-0.5,0-0.7,0.1-1.1,0.3c-0.2,0.1-1.3,0.8-1.4,0
				c0-0.2,0.1-0.4,0.2-0.6c0.6-0.7,0.9-1.5,1.6-2.2c0.3-0.3,0.6-0.5,0.6-0.9c0-0.3-0.3-0.5-0.5-0.5c-0.5,0-1.1,0.8-1.4,1.1
				c-0.2,0.3-0.4,0.7-0.5,0.9c-0.2,0.5-0.4,1.3-1.1,0.9c0.1,0.5,0.2,1,0.4,1.7c0.1,0.5,0.6,1.6-0.2,1.6c-0.6,0-0.6-0.9-0.8-1.4
				c-0.2-0.6-0.3-1.2-0.5-1.7c-2,1.5-4.7,3.5-7,5.2c-0.3,0.2-0.7,0.7-1.1,0.6c-0.2,0-0.3-0.3-0.3-0.4c0-0.4,0.4-0.6,0.7-0.8
				c0.9-0.7,1.7-1.3,2.5-1.9c0.4-1.8,1-3.9,1.5-5.9c0.1-0.5,0.2-1.6,0.7-1.7c1-0.2,0.5,1.2,0.3,1.8c-0.2,0.7-0.3,1.1-0.4,1.6
				c0.3,0.6,0.8,1.2,1.1,1.8c0.6-0.3,1.2-0.8,1.7-1.3c-0.4-1.7-0.6-3.6-0.2-5.4c0.2-0.9,0.5-1.4,1-1.9c0.5-0.4,1.2-1,1.9-1
				c0.7,0,1.6,0.9,1.5,1.7c-0.1,0.8-0.9,1-1.3,1.6c1.4-0.6,2.7,0.5,2.2,2c0.3,0.4,0.7,0.8,0.7,1.5c0,1-1.1,1.6-1.5,2.2
				c1.3-0.4,2.1,1.1,1.7,2.1c-0.3,0.6-1,0.8-1.6,1.1c0.1,1,0.2,2.1-0.1,2.9c-0.3,0.8-1.3,1.4-1.9,2c-0.2,0.2-0.6,0.5-0.7,0.6
				c-0.1,0.2,0.1,0.8,0.2,1.2c0.4,2.7,0.7,5.9,0.1,8.6c6.5,0.5,13.2,0.9,19.8,1.4c0.1-7.4-0.1-15.3-0.1-22.8c0-1.8,0-3.7,0-5.6
				c0-0.7-0.1-1.5,0.6-1.5c0.6,0,0.5,0.8,0.5,1.5c0,1.4-0.1,2.6-0.1,4.1c0,0.6-0.1,1.4,0,2c0.1,0.4,0.7,1.1,0.9,1.5
				c0.9,1.5,1.9,3,2.9,4.3c0.7,1,1.5,1.7,3,1.9c1.5,0.2,2.5-0.5,3.3-1.4c0.8-0.9,1-2.1,1.4-3.5c1.1-3.9,1.5-7.9,2.3-12.1
				c-0.2,0.2-0.7,0.7-1.1,0.6c-0.8-0.2-0.1-2.2,0-2.9c0.2-1.3,0.2-2.3,0.5-3.2c0.1-0.4,0.4-0.9,0.6-1.3c0.3-0.7,0.6-1.3,0.9-2.3
				c0.1-0.5,0.2-0.9,0.5-1c0.9-0.3,0.7,0.9,0.5,1.5c-0.2,0.8-0.5,1.6-0.9,2.4c-0.2,0.3-0.5,0.7-0.6,1c-0.1,0.3-0.1,0.6-0.2,1
				c0,0.3-0.1,0.9-0.1,1.1c0,0.2,0.2,0.3,0.3,0.6c0.1,0.5,0.2,0.8,0.1,1.4c0.7,0.2,0.4,1.8,0.3,2.5c-0.4,2.1-0.8,4.4-1.2,6.4
				c-0.3,1.4-0.5,2.8-0.9,4.2c-0.4,1.4-0.7,2.7-1.4,3.7c-0.7,1-1.7,1.7-3,2c-1.5,0.3-2.9-0.2-3.9-0.9c-0.9-0.6-1.6-1.8-2.2-2.7
				c-0.7-1-1.3-2-2-3c0.1,29.3,0,58.4,0,88.2c0,4.2-0.2,8.4,0.3,12.3c1.3,0.9,2.6,1.7,4,2.6c0.6,0.4,1.2,0.9,1.7,1.6
				c0.2,0.3,0.3,0.7,0.5,1.1c0.1,0.4,0.4,0.9,0.2,1.2c-0.2,0.3-1.1,0.2-1.8,0.2c-3.9,0.2-8.1,0-12.2,0c-0.6,0-1.7,0.1-2-0.1
				c-0.3-0.2-0.4-1.3-0.5-1.9c-0.6-4.7-0.6-10.3-0.8-15.4c-0.5-18-1.1-35.9-1.6-53.8c-3.6,20.4-7,41.2-10.7,61.9
				c-0.4,2.1-0.6,4.5-0.8,6.9c-0.1,0.8-0.1,2.1-0.5,2.3c-0.3,0.2-1.1,0.1-1.7,0.1c-3.5,0-6.9,0-10.5,0c-0.7,0-1.5,0.1-1.7-0.2
				c-0.4-0.4,0.1-1.7,0.3-2.3c0.2-0.8,0.5-1.4,0.9-1.9c0.9-1.1,2.2-1.6,3.4-2.3c0.8-7.7,1.9-15.3,3-22.9c1-7.6,2.1-15.2,3.1-22.7
				c1-7.6,2-15.2,3.2-22.7c0.6-3.7,1.2-7.4,1.8-11.1c0.3-1.9,0.6-3.8,0.7-5.7c0.1-2-0.2-3.9-0.5-5.9c-1.6,1.2-3.3,2.5-5,3.8
				c-1.5,1.1-3.9,2.8-6.4,1.8c-1.9-0.7-3.4-2.8-3.5-5.3c0-1.3,0.2-2.7,0.4-4c0.5-3.9,1.1-7.6,1.7-11.5c0.4-2.6,0.8-5,1.6-7.2
				c0.8-2.2,2.2-3.7,4.2-4.6c1-0.4,2.2-0.8,3.6-0.8c1.3-0.1,2.8-0.1,4.3,0c0.1-1.1-0.2-2.3,0.4-3c0.4-0.4,1.2-0.3,2-0.3
				c0.1-1.2,0-2.5,0-3.8c-2.1-0.5-3.4-1.7-4-3.7c-1-0.3-2.2-2.2-1.7-3.5c0.3-0.6,0.9-0.9,1.5-1.3c-0.4-0.5-0.5-1.5-0.1-2
				c0.4-0.6,1.1-1.3,2-1.4c0.3,0,0.6,0,1-0.1c0.5-0.2,1-0.9,1.4-1.4c0.7-0.9,1.2-1.7,2.5-2c0.8-0.2,1.9-0.3,2.1,0.5
				c1.6-1.1,4.5-0.9,4.6,1.5c1.5,0,2.4,1.3,1.9,2.7c-0.2,0.7-0.8,1.3-1.1,1.8c0.1,0.3,0.4,0.6,0.2,1c-0.2,0.4-1.2,0.3-1.6,0.5
				c-0.3,0.1-0.6,0.3-0.7,0.7c-0.1,1.2,2.2,0.7,1.5,2.3c0.3,0.1,0.6,0.1,0.9,0.2c0-0.4-0.2-0.6-0.4-1c-0.2-0.3-0.9-1.2,0-1.3
				c0.5-0.1,0.9,0.6,1.1,1c0.3,0.5,0.4,1,0.5,1.6c1.5,0.3,3.2,1.2,2.7,3.2c0.8,1,0.1,2.6-0.9,3c0,0.5-0.1,1.1-0.4,1.4
				c-0.5,0.6-2.1,1.2-3.2,1.1c-0.7-0.1-1.2-0.5-1.7-0.7c-0.2,0-0.5,0.1-0.7,0.1c-0.2,0-0.5,0-0.7,0.2c0,0.3,0.4,0.2,0.5,0.2
				c0.5,0.1,1.4,0.1,1.7,0.4c0.5,0.4,0.3,1.4,0.1,2.2c3.9,0.3,7.9,0.3,10.1,2.3c2.2,2,3,5.1,4.5,7.8c0.5-2.1,1-4.6,1.5-6.8
				c0.2-0.8,0.3-1.6,0.5-2.2c0.2-0.4,0.5-0.4,0.6-0.8c0.1-0.4,0.1-1.1,0.1-1.6c0.2-2.7,0.4-5.4,0.8-8c0.3-2,0.5-3.7,2-4.3
				c0.1,0.2,0.2,0.1,0.2,0.4c0,0.2-0.1,0.4,0.1,0.5c-0.2,0.4-0.6,0.5-0.8,0.9c-0.3,0.5-0.4,1.4-0.5,2.3c-0.1,0.9-0.2,1.8-0.3,2.5
				c0.2-0.2,0.5-0.8,0.9-1.1c0.1-0.8,0.3-1.7,0.7-2.4C72.5,59.3,72.6,59,72.8,59z M53.3,51.9c0.1-0.4,0-0.9-0.3-1.1
				c-0.4-0.3-1.1,0-1.5-0.3c-0.4-0.3-0.1-0.9-0.4-1.4c-0.5-1-2-0.6-2.8-0.2c-0.5,0.3-1,1-1.4,0.1c-0.1-0.3-0.1-0.6-0.5-0.6
				c-1.4,0.2-2,1-2.7,1.9c-0.4,0.5-0.8,1.2-1.4,1.5c-0.5,0.3-1.2,0.1-1.8,0.3c-0.4,0.1-1.1,0.7-1.1,1.2c0,0.6,0.7,1,0.6,1.5
				c-0.1,0.4-0.6,0.5-0.9,0.7c-0.4,0.3-0.7,0.5-0.9,0.8c0.1,0.7,0.1,1.2,0.5,1.7c0.3,0.3,0.8,0.4,1.1,0.7c0.2,0.3,0.3,0.8,0.5,1.3
				c0.5,1.1,1.3,1.8,2.6,2.1c0-0.2,0-0.4,0-0.7c-1.8,0.3-2.8-1.8-2.4-2.9c0.3-0.6,1-1.3,1.8-1.3c0.5,0,1.2,0.5,1.4,0.9
				c0.4,0.6,0.7,1.4,1.1,2.2c0.2,0.3,0.4,0.7,0.6,1.1c0.2,0.4,0.5,0.8,0.6,1.1c0.1,0.8-0.1,1.3,0.1,1.8c0.2,0.4,0.5,0.8,0.9,1.1
				c0.8,0.6,1.6,0.8,2.9,0.6c0.4-0.1,0.8-0.2,1.2-0.2c0.6,0.1,1.1,0.7,1.8,0.7c0.4,0,0.8-0.2,1.2-0.3c0.3-0.1,0.8-0.2,1-0.5
				c0.2-0.3,0-0.9,0.2-1.3c0.3-0.6,1.2-0.4,1.1-1.3c0-0.4-0.4-0.5-0.4-0.9c-0.1-0.4,0.2-0.5,0.2-0.9c0-0.4-0.4-0.8-0.6-0.9
				c-0.4-0.2-0.9-0.3-1.5-0.5c-0.8-0.2-1.3-0.6-2.1-0.5c-1,0.1-2.1,0.6-2.7,0.9c-0.5,0.3-0.8,1-1.4,1.2c-0.8,0.2-1.1-0.5-1.5-1.1
				c-0.6-1-1-1.8-1.5-2.8c-0.2-0.4-0.5-1.1-0.7-1.4c-0.2-0.2-0.5-0.2-0.5-0.6c0-0.7,0.7-0.3,1.2-0.5c0.3-0.1,0.6-0.7,0.8-1.2
				c0.1-0.5,0-1.4,0.3-1.6c0.4-0.3,0.8,0.1,1.1,0.2c0.5,0.3,1.2,0.7,1.6,0c0.2-0.3,0.1-0.7,0.5-0.9c0.6-0.2,1.5,0.4,2.2,0.2
				c0.4-0.1,0.5-0.6,0.9-0.6c0.3,0,0.5,0.3,0.5,0.5c0,0.3-0.3,0.4-0.3,0.7c0.1,0.1,0.1,0.3,0.2,0.5C52.9,52.6,53.2,52.4,53.3,51.9z
				 M49.8,52.9c-0.3,1.1-2,1.5-3,0.8c-0.2,1.2-0.7,2.1-1.6,2.6c0.8,1.5,1.5,3.1,2.5,4.3c0.8-1.1,2.2-1.6,3.7-1.9
				c0-0.3,0.1-0.4,0.2-0.6c-0.8-0.3-1.6-1-1.5-2c0.1-1,1.1-1.5,2.1-1.7c-0.1-0.5-0.4-0.8-0.6-1.3C50.8,53.1,50.4,52.9,49.8,52.9z
				 M41.5,59.1c0,0.4,0.4,1.1,0.7,1.2c0.6,0.2,1.5-0.3,1.7,0.3c0,0.1,0.1,0.3,0.1,0.4c0.1,1.9-0.1,3.9,0,5.9c1.6,0,3.2,0.3,4.6,0.2
				c-2-0.5-3.5-1.5-3.6-3.9c0-0.2,0-0.4,0-0.7c0-0.2-0.2-0.5-0.4-0.8c-0.4-0.8-0.8-1.6-1.2-2.3c-0.6-0.1-1.6,0-1.5-0.7
				c0.1-0.4,0.5-0.3,1-0.3c-0.1-0.2-0.3-0.4-0.6-0.5C42,58.4,41.5,58.6,41.5,59.1z M40.1,83.8c0.2-0.4,0.2-0.9,0.4-1.3
				c0.1-0.1,0.2-0.3,0.3-0.3c0.3-0.3,1.1-0.8,1.1-1.1c0-0.2-0.3-0.5-0.6-0.5c-0.3,0-0.8,0.4-1,0.6c-0.9,0.8-1.1,2.1-0.9,3.7
				C39.5,84.4,39.9,84.2,40.1,83.8z M42.1,83.7c-1.3,0.4-2.1,2-2.5,3.3c0.1,0.4,0.1,0.8,0.3,1.2c0.6-1.6,1.6-2.9,3.1-3.6
				c0.1-0.2,0.1-0.6,0-0.8C42.6,83.6,42.3,83.6,42.1,83.7z M35,90.6c0.4-0.3,0.8-0.5,1.1-0.9c-0.2-0.3-0.4-0.7-0.7-1
				C35.3,89.3,35.2,90,35,90.6z M30.2,181c2.8-0.1,5.8-0.2,8.5-0.2c3.5-20.3,7-41.3,10.6-61.8c0.1-0.7,0.2-1.5,0.4-2
				c0.1-0.3,0.6-0.6,0.9-0.9c0.6-0.6,1.2-1,1.8-1.6c0.3-0.2,0.9-0.8,1.2-0.2c0.2,0.5-0.3,0.7-0.5,1c-0.6,0.5-1.1,1-1.7,1.5
				c-0.3,0.3-0.7,0.5-0.8,0.8c-0.1,0.2-0.1,0.6-0.2,0.9c-0.3,1.4-0.1,3.1,0,4.7c0.1,1.3,0.1,2.6,0.1,3.8c0.2,5.1,0.2,10.2,0.4,15.3
				c0.5,12.7,0.6,25.8,1.1,38.2c2.8,0.1,5.5,0.2,8.3,0.2c0-24.2,0-47.6,0.1-71.3c-6.7-0.4-13.3-0.9-20-1.3
				C36.6,131.9,33.6,156.7,30.2,181z M52.2,181.7c0,0.6,0.1,1.1,0,1.7c2.8-0.1,5.5-0.2,8.3-0.3c0-0.4,0-0.9,0-1.3
				c-2.8-0.1-5.5-0.1-8.3-0.2C52.2,181.6,52.2,181.6,52.2,181.7z M30,182.1c0,0.6-0.2,1-0.2,1.6c2.8,0,5.6,0,8.3,0
				c0.1-0.6,0.2-1.2,0.3-1.8C35.7,181.9,32.9,182,30,182.1z M52.2,184.4c0.1,0.3,0,0.6,0,0.9c2.8,0,5.5-0.1,8.2-0.1
				c0-0.4,0-0.8,0-1.1C57.7,184.2,55,184.4,52.2,184.4z M29.7,184.8c-0.1,0.4-0.1,0.8-0.1,1.2c2.7-0.1,5.5-0.1,8.3-0.1
				c0.1-0.4,0.1-0.8,0.2-1.2c-2.8,0-5.4-0.1-8.3,0C29.7,184.7,29.7,184.8,29.7,184.8z M52.3,186.4c0,0.9,0.1,1.9,0.1,2.8
				c1.1,0.8,2,1.9,2.4,3.5c1.2,0,2.5,0,3.6,0c0.8-1.3,1.8-2.4,3.7-2.6c-0.4-0.4-1.1-0.4-1.3-0.9c-0.2-0.4-0.2-0.9-0.2-1.4
				c-0.1-0.5-0.1-1-0.1-1.5C57.8,186.3,55.1,186.4,52.3,186.4z M29.5,187c-0.2,0.7,0,2-0.3,2.6c-0.1,0.2-0.4,0.3-0.4,0.4
				c2.3,0.2,3.7,1.3,4.5,3c0.6,0,1.2,0.1,1.8,0.1c0.6-1,1.2-2,1.7-3c0.2-0.3,0.4-0.7,0.5-1.1c0.2-0.7,0-1.4,0.3-2.1
				C34.9,187,32.2,187,29.5,187z M65.2,192.2c-0.4-0.3-0.8-0.7-1.2-0.8c-0.4-0.1-0.7-0.1-1.1-0.1c-0.3,0-0.7-0.1-1.1-0.1
				c-1.1,0.1-1.8,1-2.3,1.7c-0.2,0.3-0.4,0.7-0.6,0.8c-0.5,0.2-1.6,0-2.3,0.1c-0.6,0-1.9,0.1-2.4,0c-0.3-0.1-0.4-0.7-0.5-1.1
				c-0.3-0.8-0.6-1.4-1.1-1.9c0,0,0,0,0,0c0.1,1.3,0.3,2.6,0.5,3.8c4.5-0.1,9.4,0,14.1,0C66.7,193.4,66.1,192.9,65.2,192.2z
				 M36.4,193.1c-0.2,0.3-0.4,0.9-0.8,1c-0.4,0.1-0.9,0-1.4,0c-0.4,0-1.1,0-1.4-0.1c-0.3-0.1-0.5-0.6-0.8-1c-0.2-0.3-0.5-0.8-0.7-1
				c-0.9-0.9-2.7-1-4.2-1.2c-0.1,0-0.1,0-0.1,0.1c-0.5,0.3-1.1,0.7-1.5,1.2c-0.5,0.7-0.7,1.6-0.9,2.6c4.1,0,8.2,0,12.2,0
				c0-0.9,0.2-1.9,0.2-2.8C36.8,192.3,36.6,192.6,36.4,193.1z"/>
		</g>
		<g>
			<path class="st3" d="M47.6,54.9c0.4-0.1,1.6-0.2,1.3,0.6c-0.2,0.5-0.9,0.1-1.2,0.2c-0.2,0.1-0.5,0.4-0.7,0.6
				c-0.2,0.2-0.4,0.6-0.8,0.5c-0.1,0-0.3-0.2-0.3-0.3c0-0.5,1-1.3,1.4-1.5C47.4,54.9,47.5,54.9,47.6,54.9z"/>
		</g>
		<g>
			<path class="st3" d="M51.7,60.2c0.2,0,0.6,0,0.5,0.5c-0.1,0.3-0.8,0.7-1.2,0.8c-0.6,0.1-1.4-0.2-1.5-0.7c0-0.2,0-0.5,0.4-0.5
				c0.4,0,0.5,0.3,0.8,0.3C51.1,60.7,51.2,60.3,51.7,60.2z"/>
		</g>
	</g>
	<g>
		<g>
			<path d="M53.4,181.1c-0.2,0-0.4-0.2-0.4-0.4l-2.2-64.5c0-0.2,0.2-0.4,0.4-0.4c0.3,0,0.4,0.2,0.4,0.4l2.2,64.5
				C53.9,180.9,53.7,181.1,53.4,181.1C53.5,181.1,53.5,181.1,53.4,181.1z"/>
		</g>
	</g>
	<g>
		<g>
			<g>
				<path class="st2" d="M41.8,76.3h7.8c0.7,0,1.3,0.5,1.3,1l-1.2,12.5c0,0.6-0.5,1-1,1h-6c-0.6,0-1-0.5-1-1l-1.2-12.5
					C40.5,76.7,41.1,76.3,41.8,76.3z"/>
			</g>
		</g>
		<g>
			<g>
				<path d="M48.7,91.3h-6c-0.8,0-1.4-0.7-1.4-1.5L40,77.3c0-0.9,0.8-1.5,1.7-1.5h7.8c1,0,1.7,0.7,1.7,1.5l-1.2,12.6
					C50.1,90.6,49.5,91.3,48.7,91.3z M41.8,76.7c-0.5,0-0.9,0.3-0.9,0.6l1.2,12.5c0,0.4,0.3,0.6,0.6,0.6h6c0.3,0,0.6-0.3,0.6-0.6
					l1.2-12.6c0-0.3-0.4-0.6-0.9-0.6H41.8z"/>
			</g>
		</g>
	</g>
	<g>
		<g>
			<g>
				<path class="st2" d="M42.1,73.2h7.2c0.2,0,0.4,0.2,0.5,0.4l0.4,1.2c0,0.2-0.1,0.3-0.3,0.3h-8.3c-0.2,0-0.3-0.1-0.3-0.3l0.4-1.2
					C41.7,73.4,41.9,73.2,42.1,73.2z"/>
			</g>
		</g>
		<g>
			<g>
				<path d="M49.8,75.6h-8.3c-0.4,0-0.8-0.3-0.8-0.7c0,0,0-0.1,0-0.1l0.4-1.2c0.2-0.5,0.6-0.7,0.9-0.7h7.2c0.2,0,0.6,0.1,0.9,0.7
					l0.4,1.2c0,0,0,0.1,0,0.1C50.5,75.3,50.2,75.6,49.8,75.6z M41.7,74.7h7.9l-0.3-0.9c0-0.1-0.1-0.1-0.1-0.1l-7.1,0
					c0,0-0.1,0.1-0.1,0.2L41.7,74.7z"/>
			</g>
		</g>
	</g>
	<g>
		<g>
			<g>
				<path class="st2" d="M40.6,75h10.2c0.3,0,0.5,0.4,0.7,0.7l0.5,2c0,0.3-0.2,0.5-0.4,0.5H39.8c-0.3,0-0.5-0.2-0.5-0.5l0.5-2
					C40,75.3,40.3,75,40.6,75z"/>
			</g>
		</g>
		<g>
			<g>
				<path d="M51.6,78.7H39.8c-0.5,0-0.9-0.4-0.9-1c0,0,0-0.1,0-0.1l0.5-2c0.3-0.7,0.7-1,1.1-1h10.2c0.4,0,0.8,0.3,1.1,1l0.6,2
					c0,0,0,0.1,0,0.1C52.4,78.2,52,78.7,51.6,78.7z M39.8,77.7c0,0.1,11.8,0,11.8,0c0,0-0.5-2-0.5-2c-0.1-0.3-0.3-0.4-0.3-0.4
					l-10.2,0c0,0-0.2,0.1-0.3,0.4L39.8,77.7z"/>
			</g>
		</g>
	</g>
	<g>
		<path class="st2" d="M41.6,80l-1.4,0.8c0,0-0.7,0.9-0.7,1c0,0.1-0.4,0.7-0.4,0.8c0,0.1-0.1,1.9-0.1,1.9l0.9,0.5l0.7,2.8l1.1,3.9
			l0.9,0.3l1.8-1.8V89c0,0-0.7-0.4-0.8-0.3c-0.1,0.1-0.4,0.4-0.7,0.4c-0.2,0.1-0.4,0.1-0.5,0.1c-0.2,0-0.1-0.3,0.1-0.5
			c0.2-0.2,0.2,0,0.5-0.4c0.3-0.4,0.7-1.1,0.8-1.2c0.1-0.1,0.2-0.3,0.3-0.6c0.1-0.3,0.1-0.8,0-0.9c-0.1-0.1-0.3,0.1-0.2-0.5
			c0.1-0.6,0.2-1,0.1-1.3c-0.1-0.3-0.1-0.6-0.4-0.7c-0.3-0.1-0.5-0.2-0.7-0.1c-0.2,0.1-0.4,0.1-0.7,0.2c-0.3,0.1-0.5,0.1-0.6,0.1
			c-0.1,0-0.3-0.1-0.3-0.1s0-0.4,0.1-0.5c0.1-0.1,0.1-0.2,0.3-0.3c0.2-0.1,0.3-0.2,0.4-0.3c0.1-0.1,0.4-0.4,0.5-0.5s0.1-0.4,0.1-0.6
			s0.1-0.3-0.1-0.6C42.1,80.1,41.6,80,41.6,80z"/>
	</g>
	<g>
		<path class="st3" d="M43.1,88.5c0.4-0.7,1.5-1.2,1.5-2.2c0-0.6-0.4-1-0.7-1.5c0.5-1.5-0.8-2.6-2.2-2c0.4-0.6,1.2-0.8,1.3-1.6
			c0.1-0.8-0.7-1.7-1.5-1.7c-0.8,0-1.5,0.6-1.9,1c-0.6,0.5-0.9,1-1,1.9c-0.3,1.8-0.1,3.7,0.2,5.4c-0.5,0.4-1,0.8-1.5,1.1v1.3
			c0.6-0.5,1.2-0.9,1.7-1.3c0.1,0.5,0.3,1.1,0.5,1.7c0.1,0.6,0.2,1.4,0.8,1.4c0.8,0,0.4-1.1,0.2-1.6c-0.2-0.7-0.3-1.2-0.4-1.7
			c0.7,0.4,0.9-0.4,1.1-0.9c0.1-0.3,0.3-0.7,0.5-0.9c0.3-0.4,0.9-1.2,1.4-1.1c0.3,0,0.5,0.2,0.5,0.5c0,0.3-0.4,0.6-0.6,0.9
			c-0.7,0.7-1,1.4-1.6,2.2c-0.1,0.2-0.2,0.3-0.2,0.6c0.1,0.8,1.2,0.1,1.4,0c0.4-0.2,0.6-0.4,1.1-0.3c0.8,1.1-1.3,1-1.6,1.7
			c-0.1,0.3,0.1,0.9,0.1,1.4c0,0.5,0,1.1-0.1,1.5c-0.1,0.4-0.8,0.9-1.1,1.2c-0.7,0.6-1.4,1.3-2.2,1.8h1.7c0.1-0.2,0.5-0.4,0.6-0.6
			c0.7-0.6,1.6-1.2,1.9-2c0.3-0.8,0.2-1.9,0.1-2.9c0.6-0.3,1.3-0.5,1.6-1.1C45.2,89.6,44.4,88,43.1,88.5z M40.3,81.1
			c0.2-0.2,0.7-0.6,1-0.6c0.3,0,0.6,0.3,0.6,0.5c0,0.3-0.8,0.8-1.1,1.1c-0.1,0.1-0.2,0.2-0.3,0.3c-0.2,0.4-0.3,1-0.4,1.3
			c-0.2,0.4-0.6,0.6-0.7,1.1C39.2,83.2,39.5,81.9,40.3,81.1z M42.9,84.5c-1.5,0.7-2.5,2-3.1,3.6c-0.1-0.4-0.2-0.8-0.3-1.2
			c0.5-1.3,1.2-2.8,2.5-3.3c0.2-0.1,0.6-0.1,0.8,0.1C43,84,43,84.3,42.9,84.5z"/>
	</g>
	<g>
		<polygon class="st2" points="35.8,91.3 37.5,90 37.7,91 36.7,91.4 		"/>
	</g>
	<g>
		<g>
			<path class="st3" d="M61.1,117.4c0,0-1.4-0.8-2.2-3.9c-1-3.6-0.5-4.8-0.6-4.8l2.6,0L61.1,117.4z"/>
		</g>
	</g>
	<g>
		<g>
			<path class="st3" d="M38.8,116.1c0,0,2.3-1,3.4-3c1.2-2.2,1.5-4.9,1.5-4.9l-3.5-0.3L38.8,116.1z"/>
		</g>
	</g>
	<g>
		<g>
			<path d="M74.3,78.2c-1.3,0-2.9-0.9-4.1-2.2c-1.7-1.9-2.2-4.1-1.3-5.3c0.2-0.2,0.5-0.3,0.7-0.1c0.2,0.2,0.3,0.5,0.1,0.7
				c-0.5,0.7-0.2,2.4,1.2,4c1,1.1,2.3,1.9,3.3,1.9c0.4,0,0.7-0.1,0.9-0.3c0.2-0.2,0.5-0.2,0.7,0c0.2,0.2,0.2,0.5,0,0.7
				C75.5,78,75,78.2,74.3,78.2z"/>
		</g>
	</g>
	<g>
		<g>
			<path d="M41.3,95.8c-0.3,0-0.7-0.1-1-0.3c-1-0.5-2-1.8-2.4-3.2c-0.5-1.8-0.3-3.6,0.5-4.7c0.2-0.2,0.5-0.3,0.7-0.1
				c0.2,0.2,0.3,0.5,0.1,0.7c-0.6,0.8-0.7,2.3-0.3,3.7c0.3,1.2,1.1,2.2,1.8,2.6c0.3,0.2,0.6,0.2,0.9,0.1c0.3-0.1,0.6,0,0.7,0.3
				c0.1,0.3,0,0.6-0.3,0.7C41.8,95.7,41.5,95.8,41.3,95.8z"/>
		</g>
	</g>
	<g>
		<g>
			<g>
				<path class="st2" d="M29.6,134.5h137.7c0.9,0,1.6,0.7,1.6,1.6s-0.7,1.6-1.6,1.6H29.6c-0.9,0-1.6-0.7-1.6-1.6
					S28.7,134.5,29.6,134.5z"/>
			</g>
		</g>
		<g>
			<g>
				<path d="M167.3,138.1H29.6c-1.1,0-2-0.9-2-2s0.9-2,2-2h137.7c1.1,0,2,0.9,2,2S168.5,138.1,167.3,138.1z M29.6,134.9
					c-0.7,0-1.2,0.5-1.2,1.2c0,0.6,0.5,1.2,1.2,1.2h137.7c0.7,0,1.2-0.5,1.2-1.2c0-0.7-0.5-1.2-1.2-1.2H29.6z"/>
			</g>
		</g>
	</g>
	<g>
		<g>
			<g>
				<path class="st2" d="M84,131.6h34.1c0.2,0,0.3,0.2,0.3,0.3v0.7c0,1-0.8,1.7-1.7,1.7H85.4c-1,0-1.7-0.8-1.7-1.7V132
					C83.7,131.8,83.8,131.6,84,131.6z"/>
			</g>
		</g>
		<g>
			<g>
				<path d="M116.8,134.9H85.4c-1.2,0-2.3-1-2.3-2.3V132c0-0.5,0.4-0.9,0.9-0.9h34.1c0.5,0,0.9,0.4,0.9,0.9v0.7
					C119,133.9,118,134.9,116.8,134.9z M84.2,132.1v0.5c0,0.7,0.5,1.2,1.2,1.2h31.4c0.7,0,1.2-0.5,1.2-1.2v-0.5H84.2z"/>
			</g>
		</g>
	</g>
	<g>
		<g>
			<g>
				<path class="st2" d="M100.5,114.3h22.6c1,0,2.2,1.4,1.9,2.3l-4.1,13.7c-0.3,0.9-1.3,1.6-2.2,1.6H96.1c-1,0-2.2-1.4-1.9-2.3
					l4.1-13.7C98.5,115,99.5,114.3,100.5,114.3z"/>
			</g>
		</g>
		<g>
			<g>
				<path d="M118.8,132.4H96.1c-0.8,0-1.6-0.6-2-1.2c-0.4-0.6-0.6-1.2-0.5-1.8l4.1-13.7c0.3-1.1,1.5-2,2.7-2h22.6
					c0.8,0,1.6,0.6,2,1.2c0.4,0.6,0.6,1.2,0.4,1.7l-4.1,13.7C121.1,131.5,119.9,132.4,118.8,132.4z M100.5,114.8
					c-0.7,0-1.5,0.6-1.7,1.2l-4.1,13.7c-0.1,0.2,0.1,0.5,0.3,0.8c0.3,0.4,0.8,0.8,1.2,0.8h22.6c0.7,0,1.5-0.6,1.7-1.2l4.1-13.7
					c0.1-0.2-0.1-0.5-0.3-0.8c-0.3-0.4-0.8-0.8-1.2-0.8H100.5z"/>
			</g>
		</g>
	</g>
	<g>
		<g>
			<g>
				<path class="st2" d="M111.8,121.5c-1.3,0-2.6,1.1-3,2.4c-0.4,1.4,0.3,2.5,1.5,2.5c1.3,0,2.6-1.1,3-2.4
					C113.7,122.7,113.1,121.5,111.8,121.5z"/>
			</g>
		</g>
		<g>
			<g>
				<path d="M110.3,126.9c-0.7,0-1.3-0.3-1.7-0.8c-0.4-0.6-0.5-1.4-0.3-2.2c0.5-1.5,2-2.7,3.4-2.7c0.7,0,1.3,0.3,1.7,0.8
					c0.4,0.6,0.5,1.4,0.3,2.2C113.3,125.7,111.8,126.9,110.3,126.9z M111.8,122c-1.1,0-2.3,1-2.6,2.1c-0.2,0.6-0.1,1.1,0.1,1.5
					c0.2,0.3,0.6,0.5,1,0.5c1.1,0,2.3-1,2.6-2.1c0.2-0.6,0.1-1.1-0.1-1.5C112.6,122.1,112.2,122,111.8,122
					C111.8,122,111.8,122,111.8,122z"/>
			</g>
		</g>
	</g>
</g>
<path class="st1" d="M100.6,106.3c-1.8,0-3.3-1.5-3.3-3.3c0-1.8,1.5-3.3,3.3-3.3c1.8,0,3.3,1.5,3.3,3.3l0,0
	C104,104.8,102.5,106.3,100.6,106.3z M100.6,101.6c-0.7,0-1.3,0.6-1.3,1.3c0,0.7,0.6,1.3,1.3,1.3c0.7,0,1.3-0.6,1.3-1.3l0,0
	C102,102.2,101.4,101.6,100.6,101.6z"/>
<path class="st1" d="M61.3,40c-1.8,0-3.3-1.5-3.3-3.3c0-1.8,1.5-3.3,3.3-3.3c1.8,0,3.3,1.5,3.3,3.3l0,0C64.6,38.5,63.1,40,61.3,40z
	 M61.3,35.4c-0.7,0-1.3,0.6-1.3,1.3c0,0.7,0.6,1.3,1.3,1.3c0.7,0,1.3-0.6,1.3-1.3l0,0C62.6,36,62,35.4,61.3,35.4z"/>
<rect x="27.9" y="64.2" class="st1" width="2" height="6.3"/>
<rect x="25.8" y="66.3" class="st1" width="6.3" height="2"/>
<rect x="176.5" y="141.5" class="st1" width="2" height="6.3"/>
<rect x="174.4" y="143.6" class="st1" width="6.3" height="2"/>
<rect x="72.7" y="163.3" transform="matrix(0.7071 -0.7071 0.7071 0.7071 -93.9863 101.7072)" class="st1" width="6.3" height="2"/>
<rect x="74.8" y="161.2" transform="matrix(0.7071 -0.7071 0.7071 0.7071 -93.9884 101.7022)" class="st1" width="2" height="6.3"/>
<path class="st1" d="M23.8,132c-1.9,0-3.4-1.5-3.4-3.4c0-1.9,1.5-3.4,3.4-3.4c1.9,0,3.4,1.5,3.4,3.4c0,0,0,0,0,0
	C27.2,130.5,25.7,132,23.8,132z M23.8,127.2c-0.8,0-1.4,0.6-1.4,1.4c0,0.8,0.6,1.4,1.4,1.4s1.4-0.6,1.4-1.4l0,0
	C25.2,127.8,24.6,127.2,23.8,127.2z"/>
<rect x="127.7" y="29.5" transform="matrix(0.7071 -0.7071 0.7071 0.7071 16.7773 101.4593)" class="st1" width="6.3" height="2"/>
<rect x="129.9" y="27.4" transform="matrix(0.7071 -0.7071 0.7071 0.7071 16.7753 101.4543)" class="st1" width="2" height="6.3"/>
</svg>
