<?xml version="1.0" encoding="utf-8"?>
<!-- Generator: Adobe Illustrator 24.1.3, SVG Export Plug-In . SVG Version: 6.00 Build 0)  -->
<svg version="1.1" id="Layer_1" xmlns="http://www.w3.org/2000/svg" xmlns:xlink="http://www.w3.org/1999/xlink" x="0px" y="0px"
	 viewBox="0 0 282.2 166.4" style="enable-background:new 0 0 282.2 166.4;" xml:space="preserve">
<style type="text/css">
	.st0{fill-rule:evenodd;clip-rule:evenodd;}
	.st1{fill:#33BDFF;}
	.st2{fill:#FFFFFF;}
</style>
<path class="st0" d="M220.2,117.3c4.9,1,10.1,0,15.8,0c7.1,0,13.9-0.4,20.7,0.2c4.8,0.4,9.6,1.5,13.4,0.2c1-1.5,0.7-3.5,0.7-5.4
	c0-9.4,0.7-18.8-0.2-28.1c-0.1-1.5-2.1-1.3-3.1-1.2c-1.9,0.1-3.7-0.1-5.7-0.2c-3,0-6,0.7-9.4,1.2c-6.1,0.9-12.4,0.6-18.6,0.7
	c-2,0-4.2-0.2-5.9,0c-1.1,0.1-2.2,0.7-3.8,1c-2.3,0.4-4.8,0.5-5.6,1.4s-0.4,2.7-0.4,4.5c0,3.4-0.4,7.3-0.2,10.3
	C218.4,107.7,220.1,112.9,220.2,117.3z M249.4,96.5c0.1-3.8,0.5-7,0.7-11.1c4.8-1.6,9.7-1.8,15.9-1.7
	C260.4,88,254.5,91.9,249.4,96.5z M249.9,96.8c5.1-4.6,10.6-8.7,16.4-12.3C261,88.7,255.4,93.5,249.9,96.8L249.9,96.8z M242.6,85.2
	c-0.1,5-0.5,9.7-0.5,14.8c-2.5,0-3.9-0.1-6.3,0c-4.2-3.3-9.5-5.9-14.3-8.5c-0.9-0.5-2.4-1-2.4-2.3c1.5,0,2.9,1.1,4.4,1.9
	c2.9,1.6,5.7,3.3,8.4,5c1.3,1,2.8,1.8,4.4,2.4c1.5,0.3,3.1-0.8,4.4-1.6c0.5-4.4-0.5-8.4,1.2-11.8L242.6,85.2z M239.1,95.6
	c-5.1-2.9-10.6-5.4-15.5-8.5c4.9-1.6,10.2-2,16.6-1.9C240,88.5,239.5,92.2,239.1,95.6L239.1,95.6z M269.2,85.4
	c-0.2,1.4-1.7,1.8-2.6,2.6c-3.9,3.4-8.1,6.5-12.5,9.2c1.2-2,3.9-2.3,5.2-4.2c0-0.2-0.3-0.2-0.3-0.3c0.6-0.1,1.1-1.4,1.7-0.9
	c-0.2,0.2-1.1,0.7-0.9,0.9C263,90.3,265.6,87.4,269.2,85.4L269.2,85.4z M249.1,85.4c0.5,4.4-0.7,8.3-1,12.9c1.1-0.3,16.8-1,22.1-1.2
	v1.6c-8.1,1-15.7,0.2-23.5,0.9c0.6-5,0.8-8.5,1.2-14.1L249.1,85.4z M246.9,91.3c0-1.5-0.2-4.3,0.5-5.9
	C247.4,87.4,247.2,89.3,246.9,91.3L246.9,91.3z M270,96.3c-4.9,0.6-9.8,0.3-14.6,1c4.4-3.8,9.5-6.9,13.9-10.8
	C269.4,89.8,270.1,92.9,270,96.3L270,96.3z M245.6,89.5c0.1-1.2-0.2-2.6,0.5-2.6C245.7,87.5,246.4,89.2,245.6,89.5L245.6,89.5z
	 M244.4,89.5c-0.1-0.8,0.2-2-0.2-2.6h0.5c0-0.1,0-0.2,0.2-0.2C244.9,88,245,88.6,244.4,89.5L244.4,89.5z M235,94.4
	c1.4,0.7,3.3,1.3,4,2.6c-3.6-0.9-6.3-4-9.9-5.2c-2.8-0.8-5.3-2.4-7.3-4.5C225.7,89.9,230.7,92.2,235,94.4L235,94.4z M243,89.7
	c-0.3,0-0.4-1.1,0.2-0.9C243,89.3,243.8,89.8,243,89.7L243,89.7z M219.4,90.9c4.3,2.5,9.2,4.4,12.9,7.5c-3.7,0-9.8-0.4-13.4-0.5
	C218.6,95.7,218.3,92.3,219.4,90.9L219.4,90.9z M245.8,93.2c0.1-0.8-0.2-1.8,0.4-2.1C246.1,91.8,246.5,93,245.8,93.2L245.8,93.2z
	 M246.8,91.9c0,2.1-0.6,0.3,0.2-0.5C247.1,91.7,246.8,91.8,246.8,91.9z M230.3,93c-0.8,0.1-1.1-0.4-1.6-0.7
	C229.3,92.4,229.9,92.7,230.3,93z M227,98.8c2.8,0.1,6.2-0.3,7.5,1.2c-3.6-0.4-7.3-0.6-11-0.5c-1.4,0.1-3.9,0.8-4.9-0.5
	C221,98.4,224.1,98.6,227,98.8L227,98.8z M264.6,99.6c1.8,0-1.1,0.3-1.7,0.3c-1.7,0.1-3.5,0.1-5.2-0.2
	C260.3,99.3,261.8,99.6,264.6,99.6L264.6,99.6z M254.9,100c-2.8-0.1-4.9,0.6-8,0.2C248.4,100.1,252.9,99.5,254.9,100z M224.7,100
	c0.7,0,1.5,0,1.6,0.2C225.9,100.2,225,100.5,224.7,100z M239,100.7c0.2,0,0.1,0.2,0,0.3c-1.1-0.2-3,0.4-3.5-0.3
	C237.1,100.8,237.9,100.3,239,100.7z M263.8,100.8c1.3,0.1,3.1-0.2,4.2,0.2C266.3,101,264.8,101.3,263.8,100.8z M224.9,101.4
	c-0.7-0.3-2,0-2.6-0.3C223.2,100.9,224.4,100.7,224.9,101.4z M221.4,101.2c-0.7,0-1.7,0.2-1.9-0.3
	C220.2,101,221.3,100.6,221.4,101.2z M256.8,101.4c0.4-0.1,1.7-0.4,2.1,0C258.3,101.4,257.3,101.8,256.8,101.4z M246.5,102.1
	c0.7,0.1,1.8-0.2,2.3,0.2C247.9,102.1,247.1,102.8,246.5,102.1z M225.3,102.4c-1.3-0.2-3.3,0.4-4-0.3
	C222.7,102.1,224.4,101.9,225.3,102.4L225.3,102.4z M233.6,102.4c-2.4-0.1-5.3,0.2-7.1,0C228.9,102.1,231.3,102.1,233.6,102.4
	L233.6,102.4z M257.8,109.9c1.9,1.4,3.6,2.8,5.4,4.2c1.6,1.2,3.5,2.1,4.7,3.6c-4.6-3.3-9.3-6.3-14.3-9.2c-1.5-1.6-3.3-2.9-5.2-3.8
	c-1,3.2-0.8,7.6-1.4,11.3h-1.4c0.2-4.1,0.4-8.6,0.9-12.9c5.5-0.4,14.4-0.6,20.6-0.3c1.1,0.1,2.9-0.2,3.3,0.9c-5.5,1.8-14.3-1-20.2,1
	C252.1,107.1,255.3,108,257.8,109.9L257.8,109.9z M241.8,103.4c0,3.1-0.3,6.2-0.7,9.2c-0.2,1.2,0,2.9-0.9,3.3
	c-1.4-0.6-0.4-2.4-0.3-3.8c0.2-2.3,0.1-4.5-0.4-6.8c-3,2.5-7.1,4-9.2,7.5c-2.5,0.6-2.9,3.4-5.6,3.8c3.8-4.9,9.7-7.7,14.1-12
	c-1.8-0.9-3.7,0.1-5.8,0.3c-4.8,0.5-10.2,0-13.9,0.2c-0.1-0.6-0.2-1.2-0.2-1.7c8-0.5,14.3-0.2,22.8-0.5L241.8,103.4z M243.5,104.3
	c0.1-0.4-0.3-1.4,0.4-1.2C243.9,103.5,243.8,104,243.5,104.3z M270.2,104.7c0.4,2.5,0,6,0.2,9.2c-5-2.6-9.8-5.7-14.3-9.2
	C261,104.2,265.4,105.4,270.2,104.7L270.2,104.7z M265,111.4c0.1,0.8,1,0.8,1.4,1.4c-4.5-2.4-8.5-5.3-12.7-8
	C258,105.8,260.7,109.9,265,111.4L265,111.4z M242.1,107.1c0-0.8,0-1.7,0.5-1.9C242.7,105.9,242.8,106.9,242.1,107.1L242.1,107.1z
	 M248.8,105.7c0-0.1,0.1-0.2,0.3-0.2c5.3,4.7,12.4,7.6,17.6,12.3c-1-0.3-2,0.1-3.1-0.2c-0.5-0.1-1-0.7-1.6-0.9
	c-2.6-0.7-6.8,0.1-9.8-0.5c-1.4-0.2-2.8-0.2-4.2-0.2C248.7,113,248.3,108.8,248.8,105.7L248.8,105.7z M232.4,105.7
	c-3.2,2.3-6.8,5.7-11,7.6c-0.9-2.4-1.6-4.9-2.1-7.5C223.4,105.8,228.6,105.8,232.4,105.7L232.4,105.7z M224.5,112.1
	c2.9-1.4,5.1-4.5,8-5.4C230.2,108.7,227.7,111.4,224.5,112.1L224.5,112.1z M238.7,115.8c-3.9,0.5-7.8,0.6-11.7,0.4
	c3.8-3.3,7.1-6.9,11.7-9.4C239.5,109.7,238.9,112.7,238.7,115.8L238.7,115.8z M241.4,116c0-2.6,0.3-5.1,0.9-7.6
	C242.4,110.9,242.1,113.5,241.4,116z M244.6,109.7c0-0.3,0-0.6-0.3-0.5c-0.1,0.7-0.2,1.5-0.2,2.3c-0.4-0.3-0.1-1.3-0.2-1.9
	c0.3,0,0.1-0.6,0.4-0.7c0.2,0,0.4-0.1,0.5-0.2C244.7,109,245,109.7,244.6,109.7L244.6,109.7z M245.1,110.7c0.2,0,0.2-0.3,0.4-0.4
	C245.3,112.1,245.1,114,245.1,110.7z M270.2,115.6c-0.7-0.9-3.6-2.1-3.3-2.8C268.3,113.3,269.5,114.3,270.2,115.6L270.2,115.6z
	 M223.1,114.2c0.2-0.3,0.7-1.1,1-0.7C223.9,113.7,222.8,114.5,223.1,114.2z M243.9,114.9c-0.4-0.4,0.2-1,0.4-1.4
	C244.2,114,244.2,114.6,243.9,114.9L243.9,114.9z M222.8,114.5c0,0.2-0.1,0.4-0.2,0.5h-0.3c0.1-0.3-0.5-0.7,0-0.9
	C222.3,114.5,222.5,114.6,222.8,114.5L222.8,114.5z"/>
<path class="st1" d="M176.8,2.4c0.9-1.3,2.5-1.8,4-1.3c1.8,0.6,2.9,2.4,2.6,4.3c0,0.1-0.1,0.2-0.1,0.3c0,0.1,0,0.2,0,0.3
	c-1.1,2.8-5.5,3.2-6.9,0.4C175.8,5.1,176,3.6,176.8,2.4z M177.3,5c0,0.1,0,0.1,0,0.2c0,0.1,0,0.1,0,0.2c0,0.2,0.1,0.3,0.2,0.5
	c0,0.1,0.1,0.1,0.1,0.2c0.1,0.1,0.2,0.3,0.3,0.4c0.1,0.1,0.2,0.1,0.3,0.2l0.2,0.1c0.2,0.1,0.3,0.1,0.5,0.2C179,7,179.2,7,179.4,7
	c0.3,0,0.5,0,0.8-0.1l0.4-0.1l0.4-0.2l0.3-0.2c0.1-0.1,0.2-0.2,0.3-0.3l0.2-0.3c0,0,0.1-0.2,0.1-0.1c0-0.1,0.1-0.1,0.1-0.2
	c0-0.1,0-0.1,0.1-0.1c0.1-0.6,0.1-1.2-0.2-1.7c-0.3-0.5-0.7-0.9-1.2-1.2c-0.5-0.3-1-0.4-1.6-0.3c-0.2,0-0.3,0.1-0.5,0.2
	c-0.1,0.1-0.3,0.2-0.4,0.3l-0.2,0.1c-0.1,0.1-0.2,0.3-0.3,0.4l-0.1,0.1c-0.1,0.3-0.2,0.5-0.3,0.8c0,0,0,0.2,0,0.4c0,0.1,0,0.1,0,0.2
	c0,0,0,0.2,0,0.2C177.3,4.9,177.3,5,177.3,5z"/>
<path class="st1" d="M30.5,84.5c0.7-2.1,1.5-4.2,2.2-6.4c0.1-0.3,0.5-0.5,0.9-0.3c0.1,0.1,0.3,0.2,0.3,0.3c1,1.8,2.3,3.4,3.9,4.8
	c0.3,0.2,0.3,0.6,0.2,0.9c-0.2,0.3-0.6,0.3-0.9,0.2c-1.4-1.2-2.6-2.5-3.6-4c-0.5,1.4-1,2.8-1.4,4.2h6.1c0.4,0,0.6,0.4,0.6,0.7
	c0,0.4-0.4,0.6-0.7,0.6H31c-0.4,0-0.6-0.3-0.6-0.7C30.4,84.6,30.4,84.6,30.5,84.5z"/>
<path class="st2" d="M48.8,135.7c0.3-0.6,0.7-1.1,1.3-1.4c0.7-0.3,1.4-0.4,2.1-0.1c1.1,0.4,1.9,1.3,2.2,2.4c0.1,0.4,0.1,0.9,0,1.3
	c0,0.1,0,0.1,0,0.2c-0.3,0.7-0.9,1.3-1.6,1.7c-0.6,0.3-1.2,0.4-1.8,0.3c-0.7-0.1-1.2-0.5-1.7-1C48.5,138.2,48.3,136.8,48.8,135.7z
	 M49.8,137.7c0.1,0.2,0.2,0.4,0.3,0.6c0.1,0.1,0.3,0.3,0.5,0.4l0.2,0.1c0.4,0.1,0.6,0.1,0.4,0.1h0.3c0.2-0.1,0.4-0.1,0.6-0.2
	c0.1,0,0.2-0.1,0.1,0l0.2-0.1c0.1-0.1,0.2-0.2,0.3-0.3l0.1-0.2l0.1-0.2c0-0.1,0.1-0.2,0.1-0.2c0-0.1,0-0.2,0.1-0.4
	c0-0.1,0-0.3-0.1-0.4c0-0.1-0.1-0.3-0.2-0.4c-0.1-0.2-0.3-0.4-0.4-0.5l-0.2-0.2l-0.2-0.1l-0.2-0.1c-0.1-0.1-0.2-0.1-0.3-0.1
	l-0.3-0.1c-0.2,0-0.3,0-0.5,0l-0.4,0.2l-0.2,0.1c-0.1,0.1-0.2,0.3-0.3,0.4c-0.1,0.2-0.2,0.3-0.2,0.5c0,0.2-0.1,0.4-0.1,0.6
	C49.8,137.4,49.8,137.5,49.8,137.7L49.8,137.7z"/>
<path class="st2" d="M128.7,87.4c0.4,0.2,0.9,0.6,1.4,0.9l1-1.7c1.5-2.5,4.2-4.7,5.3-7.3c0.2-0.5,0.2,0.1,0-0.7
	c-0.5-1.4-0.6-2.9-0.4-4.3c0.5-1.9,1.8-3.6,2.9-5.2c1-1.4,2-2.8,2.8-4.3c0.5-1.2,1-2.3,1.6-3.4c-0.6-5.9,9-8.1,11-1.7
	c0.7,2.2,1.5,4.4,2.4,6.6c0.9,2.2,2.3,4.3,2.5,6.6s-1,4.5-1,6.8c0.2,2.7-1,5.3-3.1,6.9c-1.8,1.3-4,1.8-6.2,1.4
	c-0.3,0.9-0.6,1.8-1.1,2.7c0.3,0,0.6,0.1,0.8,0.2l0.5,0.2c1.4,0.1,2.8,0.4,4.1,0.9h0.2c3.1,0.1,5.4,2.7,5.3,5.7
	c-0.1,1.7-0.9,3.3-2.3,4.3c-1.8,2.9-5.6,3.9-9,4.2c-3.9,0.3-7.9-0.4-11.8-1.2c-3.5-0.6-7-1.6-10.3-3.2c-3.4-1.7-6.5-4.7-6.7-8.7
	C118.7,87.7,124.2,84.9,128.7,87.4z"/>
<path d="M145.4,66.9c0.8-0.9,1.7-1.6,2.7-2.1c1-0.5,2.2-0.5,3.3-0.1c0.3,0.2,0.4,0.5,0.3,0.9c-0.2,0.3-0.5,0.4-0.9,0.3
	c-1.7-0.8-3.4,0.8-4.5,1.9c-0.3,0.2-0.7,0.2-0.9,0C145.2,67.5,145.2,67.1,145.4,66.9z"/>
<path d="M106,55c-0.8,0-1.6-0.1-2.4-0.2c-0.8-0.1-0.7-1.4,0.2-1.3c6.2,0.9,12.4-1.4,16.6-6c2.1-2.2,3.6-5,4.3-7.9
	c0.6-3,0.5-6.1-0.5-8.9c-1.8-5.9-6.3-10.5-12.1-12.4c-4-1.2-8.2-1-12.3-1.8c-3.2-0.8-6.3-2.1-9-4C85.3,8.9,80.4,4.1,74.3,1.9
	c-0.4-0.2-0.9-0.3-1.4-0.4c0.5,5.1,0.9,10.1,1.4,15.2c0.2,2.6,0.5,5.2,0.7,7.8c0.2,1.9,0.5,3.8,0.9,5.6c0.8,3.3,2.4,6.9,5.6,8.4
	c2.2,1,4.6,1,7,1.4c2,0.3,4,1.1,5.7,2.2c1.8,1.2,2.9,3.1,3.2,5.3c0.3,2-0.5,4-2.1,5.3c-0.7,0.5-1.5-0.5-0.8-1c1.3-1,2-2.7,1.7-4.4
	c-0.3-1.8-1.4-3.4-3-4.4c-1.8-1-3.8-1.7-5.9-1.8c-2.2-0.3-4.5-0.5-6.5-1.5c-3.2-1.7-4.8-5-5.8-8.3c-1.1-4.1-1.3-8.4-1.7-12.7
	c-0.5-5.9-1.1-11.8-1.6-17.7c-0.1-0.4,0.2-0.7,0.6-0.7c0.1,0,0.2,0,0.3,0c6.7,1.6,11.9,6.4,17.4,10.2c2.7,2,5.7,3.5,8.9,4.5
	c4.1,1.2,8.5,0.9,12.6,1.9c6.3,1.6,11.4,6.2,13.7,12.3c1.2,2.9,1.6,6.1,1.2,9.2c-0.4,3.2-1.7,6.2-3.6,8.7
	C118.7,52.1,112.5,55.1,106,55z"/>
<path d="M-0.6,116c2.3-3.4,5.3-6.3,8.7-8.6l3.9-2.2c3.3-1.5,6.7-2.5,10.3-3.2c4.5-1,9-1.8,13.1-3.9c2.1-1.1,4-2.6,5.7-4.3
	c1.8-1.8,3.4-3.7,5.2-5.3c4.1-3.5,9.1-5.7,14.5-6.2c0.1,0,0.2,0,0.2,0c0-0.6,0.2-1.1,0.3-1.7c-2.3,0.6-4.7,0.8-7.1,0.5
	c-2.7-0.3-5.2-1.6-7-3.5c-0.9-1-1.5-2.2-1.8-3.4C45,72.6,45,71,44.8,69.5c-0.1-1.3-0.7-2.5-1.7-3.4c-0.8-0.7-1.8-1.1-2.9-1.3
	c-2.4-0.6-4.9-0.5-7.3-1c-2.6-0.5-5-1.7-6.8-3.5c-1.9-1.9-3.3-4.2-4.3-6.7c-2.4-5.6-2.9-11.9-5.9-17.2c-0.4-0.7-0.8-1.4-1.3-2
	c-0.2-0.3-0.1-0.7,0.2-0.9c0.1-0.1,0.3-0.1,0.5-0.1l0.8,0.2l19.6,3.9c6.4,1.3,12.8,2.4,19.1,3.9c5.7,1.3,11.4,2.9,16.4,5.9
	c4.6,2.6,8.3,6.5,10.6,11.2c2.4,4.8,3.1,10.4,1,15.4c1.7,0.4,3.3,0.8,5,1.2c-0.3-4.6,1.9-9,5.8-11.5c0-1.9,0.5-3.8,1.4-5.4
	c1.2-2,2.8-3.7,4.6-5.1c1.7-1.4,3.2-3,4.3-4.9c2-3.7,2.5-8.1,1.4-12.2c-1.2-4.4-4.4-7.6-8-10c-3.9-2.6-8.2-4.6-12-7.5
	c-3.8-2.9-7.2-6.4-9.9-10.4c-0.7-1-1.3-2-1.9-3c-0.4-0.7,0.8-1.2,1.2-0.5c2.5,4.3,5.7,8.1,9.4,11.3c3.6,3.1,7.7,5.3,11.8,7.7
	c3.8,2.3,7.6,5.1,9.6,9.3c1.8,3.8,2.1,8.1,1,12.1c-0.5,2-1.4,3.9-2.6,5.5c-1.5,1.8-3.1,3.3-4.9,4.8c-1.9,1.5-3.2,3.6-3.8,5.9
	c-0.1,0.6-0.2,1.1-0.3,1.7c0.3-0.1,0.6-0.2,0.9-0.3c7-2.5,14.1,2.1,19.7,6c3,2.1,5.9,4.4,7.5,7.8c0.1,0.3-0.1,0.7-0.4,0.8
	c-0.3,0.1-0.6,0-0.7-0.3c-1.4-2.7-3.5-4.9-6-6.5c-2.7-2-5.5-3.8-8.5-5.3c-3-1.4-6.3-2.3-9.6-1.7c-1,0.2-1.9,0.5-2.8,1
	c-0.4,0.2-0.9,0.5-1.3,0.8c-0.9,0.7-1.7,1.5-2.4,2.4c-1.7,2.2-2.4,5-2.1,7.8c1.4,0.2,2.8,0.5,4.1,1.1c1.7,0.7,3.3,1.5,4.9,2.4
	c3.1,1.5,5.9,3.5,8.3,5.8c1.3,1.4,2.3,2.9,3.1,4.7c0.3,0.8-0.9,1.3-1.2,0.5c-2.5-6-8.9-9.1-14.5-11.7c-2-1-4.2-1.8-6.4-1.5
	c-0.3,0.1-0.6-0.1-0.7-0.5c0,0,0,0,0,0c-2.5-0.6-4.9-1.2-7.4-1.6l-1-0.2c-0.5-0.1-1-0.2-1.5-0.2c-2-0.3-4-0.2-5.9,0.2
	c-2.9,0.6-5.5,2.2-7.3,4.6l-0.8,1.6c-0.3,0.8-0.5,1.6-0.5,2.5c-0.1,2.7,1.4,5.1,3.1,7.1c1.6,1.8,3.5,3.4,5.6,4.7
	c3,1.9,6.4,3.3,9.9,4.1c0.4,0.1,0.9,0.2,1.3,0.3c0.7,0.1,1.5,0.2,2.2,0.3c3.8,0.4,7.7,0.1,11.4-1c0.5-0.1,0.9-0.3,1.4-0.4
	c1-0.3,2-0.7,2.9-1.2c0.8-0.3,1.3,0.8,0.5,1.2c-1.2,0.5-2.4,1-3.6,1.4c0,0.4-0.1,0.7-0.1,1.1c-0.8,6.5-1.8,13.1-2.7,19.6h5.3
	c0.3,0,0.6,0.2,0.6,0.5c0,0.1,0,0.1,0,0.2c0.3,0.1,0.5,0.4,0.4,0.7c0,0,0,0.1,0,0.1c-5,10.9-9.5,22-13.8,33.2
	c-0.2,0.6-0.4,1.1-0.6,1.6c0,1.1,0.1,2.2,0.1,3.3c0,0.8-1.3,1-1.3,0.2c0-0.1,0-0.2,0-0.2c-0.6,1.6-1.1,3.1-1.7,4.7
	c-0.1,0.3-0.4,0.4-0.7,0.4c-4.2-0.3-8.4-0.2-12.6,0.3c-0.3,0-0.7-0.2-0.7-0.5c-2.8-11.3-2.1-22.9-3.2-34.4c-0.3-3.2-0.8-6.4-1.5-9.6
	c-0.1-0.4,0.2-0.7,0.6-0.7c0,0,0.1,0,0.1,0h8.3c-0.2-2-0.3-4-0.5-5.9c-0.1-0.8,1.2-1,1.3-0.2c0.2,2,0.3,4.1,0.5,6.1h8.1
	c-0.4-5.8-0.9-11.7-1.5-17.5c-0.1-0.8-0.2-1.6-0.2-2.4c-0.9-0.2-1.8-0.4-2.6-0.7c1.2,2.7,1.7,5.7,1.4,8.7c-0.3,2.8-1.3,5.6-3.8,7.1
	c-0.7,0.4-1.2-0.8-0.5-1.2c2.2-1.3,2.9-4.1,3.1-6.5c0.2-2.9-0.4-5.9-1.7-8.5c0-0.1-0.1-0.1-0.1-0.2c-1.9-0.7-3.7-1.5-5.5-2.5
	c-2.2-1.3-4.2-2.8-6-4.7c-2-1.9-3.5-4.4-4.1-7.1C61,84.1,61,83.8,61,83.5c-4.7,0.4-9.2,2.2-13,5.1c-3.8,3-6.5,7.2-10.7,9.8
	c-6.8,4.2-15.1,4.2-22.5,6.9c2.5,0.5,5,1.1,7.5,1.9c2.4,0.8,4.9,1.1,7.4,0.9c2.3-0.3,4.4-1.1,6.4-2.3c4.1-2.4,7.7-5.7,12.1-7.3
	c4.4-1.5,9.3-1.2,13.5,0.8c4.9,2.3,8.8,6.1,11.3,10.9c0.4,0.7-0.8,1.3-1.2,0.5c-4.1-7.8-13.6-14.2-22.6-11.2
	c-4.4,1.5-7.9,4.6-11.8,7c-1.9,1.2-3.9,2.1-6.1,2.6c-2.3,0.5-4.8,0.4-7.1-0.1c-2.7-0.6-5.3-1.5-8-2.1c-1.3-0.3-2.7-0.4-4-0.4
	l-0.5,0.2c-3.7,1.9-7,4.6-9.7,7.8c3.7-1.5,7.9-1.7,11.7-0.4c2.5,0.9,4.8,2.2,7.3,3.3c2.6,1.1,5.2,2,7.9,2.5c2.7,0.6,5.4,0.8,8.1,0.9
	c2.4,0.1,4.7-0.2,7-0.9c2.2-0.8,4.1-2.1,5.6-4c1.4-1.7,2.7-3.6,4.7-4.6c2.5-1.1,5.3-1.1,7.8,0c2.6,1.2,4.9,2.8,6.9,4.8
	c0.6-0.3,1.1-0.8,1.3-1.4c0.3-0.8,1.5-0.3,1.2,0.5c-0.4,1.1-1.3,1.9-2.4,2.3c-0.2,0.1-0.4,0.1-0.6-0.1c-1.8-1.8-3.9-3.3-6.2-4.5
	c-2.1-1.1-4.6-1.3-6.9-0.6c-2.1,0.8-3.4,2.7-4.7,4.4c-1.4,1.8-3.2,3.3-5.2,4.2c-2.1,0.8-4.4,1.3-6.7,1.4c-2.6,0.1-5.2,0-7.7-0.4
	c-2.6-0.4-5.2-1-7.8-1.9c-2.4-0.9-4.8-2-7.2-3.2c-2.5-1.3-5.3-2-8.1-2c-2.8,0.1-5.5,0.9-7.8,2.4C-0.3,117.3-1.1,116.7-0.6,116z
	 M83.6,114.7c0.1,1.7,0.3,3.4,0.4,5.2h7.7h1c0.7-5.1,1.5-10.2,2.2-15.3c0.2-1.7,0.5-3.3,0.7-5c-4.3,1.1-8.8,1.3-13.2,0.6
	C82.8,105.1,83.2,109.9,83.6,114.7L83.6,114.7z M77.7,72.7c1.3,0.2,2.6,0.4,3.9,0.7c1.7-4.3,1.6-9.2-0.4-13.4
	c-2.1-4.6-5.5-8.6-9.8-11.2c-4.8-3-10.3-4.7-15.8-6c-6.1-1.4-12.3-2.5-18.4-3.8l-15.6-3c2.6,1.2,5.2,2.4,7.7,3.7
	c5.6,2.8,10.8,6.4,15.6,10.5c2.1,2.1,4.4,4,6.8,5.8c1.2,0.8,2.6,1.5,4,2c1.6,0.4,3.2,0.8,4.9,1c2.9,0.4,5.7,1.5,8.2,3
	c2.3,1.5,4.4,3.5,6,5.7C75.9,69.3,76.9,71,77.7,72.7L77.7,72.7z M61.9,79.3c1.4-2.6,3.8-4.7,6.7-5.7c2.4-0.9,5.1-1.2,7.7-1
	c-0.5-1-1-1.9-1.6-2.8c-1.5-2.3-3.4-4.4-5.6-6c-2.3-1.7-5-2.8-7.8-3.3c-3.1-0.6-6.2-1-9-2.6c-2.5-1.5-4.8-3.4-6.9-5.4
	c-2.2-2.1-4.6-4-7-5.8c-2.5-1.8-5.2-3.4-7.9-4.9c-4.5-2.4-9.1-4.6-13.8-6.6c2.8,4.7,3.6,10.3,5.4,15.5c1.6,4.8,4.5,10.1,9.7,11.6
	c2.4,0.5,4.8,0.8,7.2,1c2.2,0.3,4.5,1,6,2.8c1.9,2.4,1,5.6,1.9,8.4c1,2.4,3,4.3,5.5,5C55.4,80.4,58.8,80,61.9,79.3L61.9,79.3z"/>
<path d="M149.4,67.8c0.4,0.2,0.7,0.5,0.9,0.9c0.1,0.2,0.2,0.4,0.2,0.6c0,0.1,0,0.3,0.1,0.4c0.1,0.4,0.1,0.9-0.1,1.3
	c-0.1,0.2-0.2,0.4-0.4,0.5c-0.2,0.1-0.5,0-0.6-0.1c-0.9-0.8-1.3-2-1-3.1c0.1-0.4,0.4-0.6,0.8-0.5C149.3,67.8,149.4,67.8,149.4,67.8z
	"/>
<path d="M90.6,107.5c0.7-2.2,1.8-4.3,3.2-6.1c1.2-1.6,2.7-2.9,4.5-3.8c-1.5-2.2-0.9-5.3,0.8-7.3c1.1-1.2,2.5-2.2,4.1-2.8
	c1.8-0.8,3.7-1.4,5.7-1.7c1.7-0.3,3.4-0.4,5-0.6c1.5-0.1,2.9-0.7,3.9-1.7c1.2-1.3,1.3-3.1,1.2-4.8c0-1.7-0.1-3.4,0-5.2
	c0.1-3.5,1.2-6.9,3-9.8c1.7-2.4,4-4.3,6.6-5.5c0.6-0.3,1.2-0.6,1.7-0.9c1.4-0.7,2.9-1.4,4.4-2l0.2-0.1c5.7-2.5,11.9-4.3,17.7-1.8
	c1.7,0.8,3.3,1.8,4.7,3.1c1.4,1.2,2.8,2.5,3.9,3.9c2.3,3,1.6,7.5,0.3,10.8c-0.3,0.9-0.7,1.7-1.2,2.5c-0.1,0.1-0.2,0.2-0.4,0.3
	c0,0.9-0.3,1.9-0.9,2.6c-0.1,0.1-0.2,0.2-0.3,0.3c0.2,3.3,0.3,7.1-2.3,9.5c-1.9,1.8-4.6,2.6-7.2,1.9c-0.2,0.5-0.3,1.1-0.5,1.6
	c2.5,0.4,5.1,1,7.6,1.7c0.8,0.2,0.5,1.5-0.3,1.3c-2.5-0.7-5.1-1.3-7.7-1.8c-0.6,1.6-1.4,3.2-2.2,4.7c-0.4,0.7-1.6,0.1-1.2-0.6
	c1.4-2.5,2.5-5.1,3.2-7.9c0.1-0.4,0.4-0.6,0.8-0.5c0,0,0.1,0,0.1,0c2.3,0.7,4.9,0.1,6.6-1.7c0.6-0.7,1.1-1.4,1.4-2.3
	c-1.1-0.1-2.2-0.4-3.2-1c-1.1-0.6-2-1.4-2.8-2.4c-0.7-0.9-1.1-2.5-0.2-3.4c0.9-0.9,2.5-0.3,3.4,0.2c0.6,0.3,1.1,0.8,1.7,1.1
	c0.3,0.2,0.7,0.4,1,0.5c0.1,0,0.2,0.1,0.3,0.1c0-0.1,0.1-0.2,0.2-0.2c0-0.3,0-0.7-0.1-1c0-0.3,0.1-0.5,0.3-0.6c0-0.1,0-0.2,0.1-0.3
	c0.5-0.7,0.8-1.5,0.6-2.4c-0.3-0.8-1.2-0.7-1.8-1.1c-1.2-0.8-1.3-2.3-1.2-3.6c0.1-1.5-0.1-3-0.5-4.4c-0.5-1.4-1.2-2.7-2.2-3.9
	c-0.9-1.1-2.1-2.1-3.4-2.7c-1.3,4.8-4.2,9.1-8.2,12.2c-1.2,0.9-2.5,1.7-3.8,2.3c0.3,2,0.5,4.1,0.6,6.2c0.2,1.6-0.3,3.2-1.2,4.5
	c0,0.1,0,0.3,0,0.4c-0.4,1.4-1,2.8-1.6,4.2c-0.6,1.3-2,1.7-3.3,2.3c-1.4,0.6-2.8,1.2-4.3,1.7c-0.7,0.3-1.4,0.5-2.1,0.8l-1.2,0.4
	l-0.6,0.2c-0.1,0.2-0.3,0.3-0.5,0.4c-0.3,0.1-0.6,0.1-0.8-0.2c-1.9,0.6-3.6,1.5-5.2,2.7c-1.7,1.2-3.1,2.8-4.9,4
	c-0.9,0.5-1.7,1.1-2.5,1.9c-0.6,0.7-1.1,1.6-1.5,2.4c-0.4,0.9-0.8,1.8-1.3,2.6c-0.5,0.9-1.1,1.7-1.9,2.5c-1.5,1.7-3.2,3.3-4.8,5
	l-2.5,2.6c-0.6,0.6-1.4,1.9-2.5,1.6c-0.5-0.2-0.8-0.5-1.1-0.9c-0.4-0.4-0.7-0.9-1-1.3c-0.7-0.9-1.3-1.8-1.8-2.8
	C90.5,111.8,90.1,109.6,90.6,107.5z M157.4,79.5c-0.5-0.1-1.1-0.3-1.5-0.6c-0.9-0.6-1.9-1.2-2.9-1.8c-0.3-0.1-0.8-0.3-1.1,0
	c0.1,0,0.1,0.1,0.1,0.2c0.7,1.1,1.6,2,2.7,2.6c0.5,0.3,1.1,0.6,1.7,0.7c0.3,0.1,0.4,0.1,0.6-0.1c0.2-0.2,0.4-0.4,0.6-0.6v-0.6
	L157.4,79.5z"/>
<path d="M100.3,137.4c0.1-0.2,0.2-0.3,0.4-0.3c0.3-0.1,0.7,0.1,0.8,0.4c0.2,0.6,0.3,1.3,0.4,1.9c0.1,0.2,0.1,0.3,0,0.5
	c-0.1,0.2-0.2,0.3-0.4,0.3c-0.3,0.1-0.7-0.1-0.8-0.4c-0.1-0.6-0.3-1.3-0.4-2C100.3,137.7,100.3,137.5,100.3,137.4z"/>
<path class="st1" d="M81.6,166.1c11.6,1.9,17.9-7.4,21.4-12.5s10.5-14,10.7-14.3l-4.7,19.6l47.8,0.2l4.2-21.8c0,0,2.1-9.5,2.2-9.2
	s37.3,13.4,39.5,11.5c2.2-1.9,2.4-12.3,2.4-12.3s-14.8-12.6-17.7-15.6c-2.2-2.2-4.5-4.8-7-7.3l-0.2-0.2l-1.1-1
	c-0.5-0.5-1-0.9-1.5-1.3c-4.7-4.4-10.4-7.7-16.6-9.5c-2.3-0.6-4.6-1-6.9-1.2c0,0,4.4,5.7-2.2,9.4s-18.3,1.3-21.7-0.9
	c-5.3-3.4-6.8-6.9-6.8-6.9s-12.8,0.1-20.5,8.8c-7.6,8.7-19.9,27.8-23.6,35.8C72.4,152.3,71.7,164.5,81.6,166.1z"/>
<path class="st2" d="M178.2,115.2c0,1.6,0,3.2,0,4.9v0.2c0,0.3,0.4,0.6,0.7,0.5c0.1,0,0.1,0,0.2,0c0.1,0.2,0.3,0.3,0.5,0.4
	c1,0.2,1-1,1-1.6c0-2.1,0-4.1-0.1-6.2l-0.1-8.9l-0.2-0.2l-1.1-1c-0.5-0.5-1-0.9-1.5-1.3C177.9,106.2,178.1,110.7,178.2,115.2z"/>
<path class="st2" d="M165.3,113.5c0.2-0.9,0.5-1.8,0.8-2.6c0.6-2.1,1.2-4.2,1.8-6.3c0.1-0.3,0.4-0.5,0.8-0.4
	c0.3,0.1,0.5,0.4,0.5,0.8c-0.5,1.8-1.1,3.6-1.6,5.5l-0.8,2.7c-0.1,0.4-0.2,0.7-0.3,1.1c0.1,0.4,0.2,0.8,0.5,1.1
	c1.8,2.7,3.1,5.7,3.8,8.9c0.4,1.8,0.6,3.7,0.6,5.5c0,0.4-0.4,0.6-0.7,0.6c-0.3,0-0.5-0.3-0.6-0.6c0-3.3-0.7-6.6-2-9.7
	c-0.7-1.5-1.5-2.9-2.4-4.3C165.3,115.1,165.1,114.3,165.3,113.5z"/>
<path class="st2" d="M188.1,123c0,1.2,1,2.1,2.2,2.1c0.4,0,0.8-0.1,1.1-0.3c3,0.7,6.1,0.5,9-0.5c3.5-1.3,3.4-4.6,3.3-7.8
	c-0.2-1.8-0.2-3.6-0.2-5.4c0.2-1.7,0.7-3.4,1.6-4.9c0.8-1.3,1.4-2.7,2-4.1c0.5-1.3,0.6-2.8,1.6-3.8c0.2-0.2,0.3-0.4,0.4-0.6
	c0.3-0.2,0.5-0.4,0.7-0.6c1.5-2.1,3.6-8.5-1.1-8.5c-0.2-0.3-0.6-0.8-0.7-0.9c-0.5-0.7-1.1-1.2-1.8-1.6c-0.2-0.1-0.3-0.2-0.5-0.2
	c-1.1-0.9-2.4-1.4-3.8-1.3c-0.6-0.1-1.2-0.1-1.7-0.2s-1.3-0.5-1.9-0.6c1-2.5,1.9-4.9,3-7.3c1.1-2.4-2.2-4.6-3.7-2.2
	c-1.2,1.9-2.2,3.9-3,6c-0.6,1.2-0.9,2.4-1.1,3.7l-1.6,5.4c-0.1,0.1-0.1,0.3-0.2,0.4c-0.9,2.9-1.5,5.9-1.8,8.9
	c-0.7,1.6-1.1,3.4-1.1,5.2C188.2,110.3,188.1,116.7,188.1,123z"/>
<path d="M186.1,128.4c0-0.5,0.1-1.1,0.1-1.6c0.2-1.9,0.3-3.9,0.5-5.9c0.3-4,0.7-8,1-11.9c0.2-2.2,0.4-4.5,0.6-6.7
	c0-0.1,0.1-0.3,0.2-0.4c0.6-7.2,2.6-14.2,4.8-21.1c0.5-1.5,1.1-3,1.8-4.4c0.7-1.4,1.7-2.6,2.9-3.5c1.2-0.8,2.9-0.9,3.8,0.4
	s0.4,2.9-0.3,4.2c-1,1.7-1.8,3.5-2.4,5.3l-0.1,0.2c0.8,0,1.6,0.1,2.4,0.5c0.1,0,0.2-0.1,0.3-0.1c2.4-0.1,4.7,1,6.2,2.9
	c0.2,0.3,0.4,0.7,0.6,1.1c1.6,0,3.1,1,3.8,2.5c0.6,1.6,0.5,3.4-0.2,5c-0.5,1.7-1.6,3.2-3.2,4.1c-0.1,0.1-0.3,0.1-0.4,0.2
	c-0.5,2.5-1.4,4.9-2.8,7c-0.5,0.7-1,1.3-1.5,2s-0.2,1.9-0.1,2.7c0.1,1,0.1,2,0.2,3c0.1,2,0.1,4,0.1,6c0,2.3-0.1,4.5-0.2,6.8
	c0,0.8-1.3,0.9-1.3,0.1c0.2-4,0.3-8,0.2-12.1c0-1-0.1-2-0.1-3.1c-0.1-1-0.2-2-0.2-2.9c0.2-0.8,0.6-1.5,1.1-2.1
	c0.5-0.7,1-1.5,1.4-2.3c0.8-1.6,1.5-3.3,1.9-5c-0.8-0.1-1.5-0.6-1.9-1.4c-0.5,0-1,0-1.5-0.1c-0.3,0-0.6-0.1-0.9-0.1
	c-0.1,0.5-0.1,1.1,0,1.6c0.1,0.6,0.1,1.1,0,1.7c-0.4,3.6-3.5,6.3-7.1,6.4c-0.8,0-0.9-1.3-0.1-1.3c2.1,0,4.1-1.2,5.2-3
	c0.5-0.9,0.8-1.9,0.8-2.9c-0.1-0.9-0.1-1.9,0-2.8c-0.6-0.1-1.1-0.3-1.7-0.5c-0.8-0.3-0.2-1.4,0.6-1.2c1.6,0.7,3.4,1,5.2,0.9
	c0.6,0,1.2-0.4,1.5-0.9c0.2-0.8-0.1-1.6-0.8-2c-0.6-0.5-1.4-1-2.1-1.3c-0.8-0.4-1.6-0.7-2.5-0.9c-1.8-0.3-3.6,0-5.1,0.9
	c-1.6,1-3.1,2.3-4.2,3.8c-0.5,0.7-1.5-0.2-1-0.9c2-2.4,4.7-4.7,7.8-5.2c0-0.2,0-0.4,0-0.6c0-0.2-0.1-0.3-0.2-0.5
	c-0.1-0.2-0.1-0.3,0-0.5c0.1-0.1,0.2-0.3,0.4-0.3c0.2-0.1,0.3-0.1,0.5,0c0.1,0.1,0.3,0.2,0.3,0.4c0.2,0.5,0.3,0.9,0.2,1.4
	c0.6,0,1.2,0.1,1.8,0.2c0.5,0.1,1,0.3,1.4,0.5c0-0.7,0.1-1.4,0.1-2c0-0.9-0.2-1.7-0.8-2.4c-1-1.3-2.5-2.1-4.2-2
	c-0.4,1.4-0.6,2.8-0.7,4.3c0,0.8-1.3,0.9-1.3,0.1c0.2-3.2,1-6.3,2.3-9.2c0.3-0.7,0.7-1.4,1-2c0.5-0.7,0.8-1.4,1-2.2
	c0.1-0.6-0.1-1.1-0.5-1.5c-0.6-0.3-1.3-0.2-1.8,0.2c-1.2,0.9-2.1,2-2.7,3.3c-0.6,1.3-1.1,2.6-1.5,4c-1.1,3.3-2.1,6.5-2.9,9.8
	c-1,3.7-1.6,7.5-1.9,11.3c0,0.2-0.1,0.3-0.2,0.4c-0.6,7-1.2,14.1-1.9,21.1l-0.3,3c0,0.5-0.1,1-0.1,1.5c0,0.2,0,0.5-0.1,0.7
	c0,0.1,0,0.2,0,0.2c0.7,0.1,0.7,1.2-0.1,1.4c-0.8,0.1-1.1-0.6-1.2-1.2C186,129.2,186,128.8,186.1,128.4z M206.8,97.8
	c0.5,0.7,1.7,0.3,2.3-0.2c1-0.9,1.6-2.1,2-3.3c0.4-1.1,0.5-2.3,0.2-3.5c-0.4-1-1.3-1.7-2.3-1.9c0.1,1.6-0.1,3.3-0.7,4.8
	c0,0.1,0,0.1-0.1,0.2c0.8,1.2,0.4,2.9-0.9,3.6C207.1,97.6,206.9,97.7,206.8,97.8z M204,85.5c0.7,0.8,1.1,1.7,1.2,2.8
	c0,1.1,0,2.1-0.1,3.2l0.3,0.2c0.7,0.3,1.3,0.7,1.9,1.2c0.5-1.8,0.9-3.8-0.2-5.5c-0.8-1.2-2.1-2-3.5-2.2
	C203.7,85.2,203.8,85.3,204,85.5z"/>
<path class="st2" d="M131.2,70.7c0.2,0.2,0.5,0.4,0.7,0.3c0.4-0.1,0.9-0.2,1.3-0.2c0.4,0,0.6-0.3,0.6-0.7c0-0.1,0-0.2-0.1-0.3
	c-1.4-2.5-2.5-5.4-2-8.3c0.3-1.4,0.8-2.8,1.6-4c0.4-0.6,0.8-1.3,1.2-1.9l0.3-0.4c-1.6,0.6-3,1.3-4.4,2c-0.6,0.3-1.2,0.6-1.7,1
	c-0.2,0.7-0.3,1.4-0.3,2.2C128.2,64,129.2,67.6,131.2,70.7z"/>
<path class="st1" d="M130.1,81.5c2.6,2.3,6.4,2.6,9.2,0.6c2.9-2,3.3-5.6,2.6-8.7c-0.3-1.6-1.1-3-2.3-4c-3.4-2.7-10.4-1.5-11.9,3
	C126.7,75.7,127.6,79.2,130.1,81.5z"/>
<path class="st2" d="M91.8,150c0,0.7,0.2,1.5,0.4,2.1c0.6,1.3,2.2,1.8,3.4,2.3c1.6,0.6,3.2,1.1,4.8,1.6c0.7,0.3,1.5,0.3,2.2,0
	c0.5-0.3,0.9-0.7,1.1-1.1c0.4-0.6,0.6-1.3,1-1.9c0.4-0.6,0.8-1.2,1.3-1.7c1-1.1,2.3-1.8,3.3-2.9c0.2-0.2,0.4-0.6,0.6-0.8
	c0.3-0.1,0.7-0.1,1,0c0.7,0,1.4-0.1,2.1-0.2c1.4-0.3,2.8-1,3.9-2c0.1-0.1,0.2-0.3,0.2-0.4c1-0.6,2-1.3,3.1-1.9
	c1.5-0.8,3.1-1.4,4.8-1.8c0.7-0.1,1.3-0.5,1.8-1c0.4-0.5,0.5-1.2,0.2-1.7c-0.3-0.9-1.2-1.5-2.1-1.5c-1.2,0-2.4,0.1-3.6,0.4
	c-1.7,0.2-5,1-5.7-1.3c-0.1-0.2-0.3-0.4-0.5-0.4c0-1.4-0.1-2.8-0.2-4.2c-0.1-0.9-0.3-1.8-0.6-2.6c-0.1-0.4-0.3-0.8-0.3-1.2
	c0.6,0.6,1.2,1.2,1.8,1.8c0.7,0.7,1.6,1.3,2.6,1.4c1.2,0.2,2.4-0.6,2.6-1.8c0.1-0.4,0-0.8-0.1-1.1c-0.4-0.8-0.9-1.6-1.6-2.3
	c-0.6-0.7-1.3-1.4-2.1-1.9c-1.4-1.1-3.2-1.4-4.8-0.6c-1.2,0.8-2,2.1-2.3,3.5c-1.5,0-3,0.8-3.6,2.2c-1.3,0-2.6,0.5-3.4,1.6
	c-0.5,0.6-0.9,1.3-1.2,2.1c-0.2,0.4-0.3,0.8-0.5,1.1c-0.2,0.3-0.4,0.3-0.7,0.4c-1.4,0.6-2,2.1-2.4,3.5c-0.4,1.4-0.7,2.8-0.8,4.2
	c-1.3,0.4-2.5,1.1-3.5,2c-0.1,0.1-0.2,0.2-0.2,0.4c-0.6,0.1-1.3,0.3-1.6,0.9c-0.3,0.8-0.4,1.6-0.4,2.4
	C91.7,148.2,91.7,149.1,91.8,150z"/>
<path d="M96.6,142.7c0.1-0.2,0.1-0.4,0.2-0.6c0.1-0.4,0.1-0.7,0.2-1.1c0.1-0.6,0.1-1.1,0.1-1.7c0-0.1-0.1-0.1-0.1-0.2
	c0-2,0.2-4.2,2.1-5.4c0.5-0.3,1.1-0.6,1.7-0.7c0.1-1.5,0.7-2.8,1.8-3.9c0.8-0.9,1.9-1.4,3.1-1.4c0-0.1,0.1-0.3,0.2-0.4
	c1-0.9,2.2-1.4,3.5-1.7c0.7-1.7,1.9-3.4,3.8-3.8c1.9-0.4,3.8,0.5,5.3,1.6c1.5,1.1,3.3,2.8,3.3,4.9c0,1.7-1.3,3-2.9,3.1
	c-0.2,0-0.5,0-0.7-0.1c-1.1-0.3-2.1-0.9-2.9-1.7l-0.3-0.3c0.6,1.2,1,2.5,1.3,3.9c0.1,0.1,0.1,0.2,0.2,0.2v0.6
	c0.2,0.1,0.3,0.3,0.3,0.5c0.1,0.6,0.3,1.2,0.6,1.8c0.4,0.5,1,0.8,1.7,0.7c1.6-0.1,3.1-0.3,4.7-0.6c1.4-0.3,2.8,0,3.9,0.9
	c0.8,0.8,1.1,2,0.6,3c-0.6,1.1-1.9,1.3-3.1,1.5c-1.2,0.2-2.3,0.6-3.3,1.3c-2.1,1.3-3.8,3-6,4.1c-1.4,0.7-2.9,1.1-4.5,1.3
	c-1.8,0.2-3.6,0.2-5.5,0.4c-0.4,0-0.6-0.3-0.6-0.7c0-0.3,0.2-0.6,0.5-0.6c1.6-0.1,3.1-0.2,4.7-0.3c1.4-0.1,2.7-0.3,4-0.8
	c2.2-0.9,3.9-2.6,5.8-3.9c0.9-0.6,1.9-1.2,3-1.5c0.5-0.2,1.1-0.3,1.6-0.4c0.6,0,1.1-0.2,1.7-0.4c1-0.5,0.5-1.8-0.3-2.2
	c-1.3-0.7-3-0.1-4.4,0c-1.4,0.1-3.1,0.7-4.5,0.1c-0.5-0.2-0.9-0.5-1.1-0.9c-0.1,0.4-0.3,0.9-0.6,1.2c-0.7,0.6-1.6,0.7-2.4,0.3
	c-0.3-0.1-0.5-0.3-0.7-0.5c0,0.1,0,0.1,0,0.2c-0.3,0.9-1.1,1.6-2,1.8c-0.3,0.1-0.7,0.1-1,0c0.2,1.3,0,2.7-1.6,3
	c-1.2,0.1-2.3-0.3-3.1-1.1c-1.1-0.9-2.1-1.8-3-2.9c-0.6-0.6,0.5-1.4,1-0.8c0.6,0.7,1.3,1.4,2,2c0.6,0.6,1.3,1.1,2.1,1.5
	c0.7,0.2,1.4-0.1,1.4-0.8c0-0.7-0.2-1.5-0.5-2.2c-0.4-1.1-1.1-2.2-2-3c-0.2-0.1-0.3-0.2-0.4-0.4c-0.2-0.2-0.4-0.3-0.6-0.4
	c-0.9-0.5-1.9-0.7-2.9-0.7c-0.2,0.1-0.4,0.1-0.6,0.1c-0.3,0.1-0.6,0.1-0.9,0.3c-1.6,0.7-2,2.3-2,3.9c0,0.1,0,0.1,0.1,0.2
	c0,0.5,0,1,0,1.6c0,0.6-0.1,1.1-0.2,1.7C97.6,142.2,97.1,142.5,96.6,142.7z M117.3,129.7c0.6,0.4,1.4,0.6,2.1,0.4
	c0.6-0.2,1-0.8,1-1.5c0.2-1.6-1.4-3-2.5-3.9c-1.1-1-2.6-1.6-4.1-1.6c-1.5,0.1-2.4,1.4-3.1,2.6c0.7,0.1,1.4,0.4,1.9,0.9
	c0-0.4,0.3-0.6,0.6-0.6c0.2,0,0.4,0.1,0.5,0.3C114.7,127.6,115.9,128.8,117.3,129.7z M112.6,135.5c0.1,0.1,0.2,0.2,0.2,0.3
	c0.2,0.7,0.5,1.6,1.4,1.6c0.8,0,0.9-1,0.9-1.6c0-1.8-0.3-3.6-1.1-5.3c-0.5-1.4-1.5-2.7-2.9-3.4c-1.4-0.4-2.9-0.1-4,0.9
	c0.1,0,0.2,0.1,0.3,0.2c1.7,1.1,3.1,2.6,4,4.3C112,133.5,112.4,134.5,112.6,135.5L112.6,135.5z M104.7,133.5
	c0.1-0.1,0.2-0.2,0.3-0.3c0.2-0.1,0.3-0.1,0.5,0c0.1,0.1,0.3,0.2,0.3,0.4c0.1,0.3,0.3,0.6,0.4,0.9c1.1,0.9,2,2.1,2.6,3.5
	c0.1,0.1,0.2,0.1,0.2,0.2c0.4,0.5,1.1,0.6,1.6,0.3c0.1-0.1,0.2-0.1,0.2-0.2c0.5-0.7,0.7-1.5,0.5-2.3c-0.5-1.9-1.4-3.7-2.8-5.1
	c-0.6-0.7-1.3-1.2-2.1-1.7c-0.8-0.3-1.7-0.2-2.4,0.4c-1.1,0.8-1.8,2-2,3.3C102.9,132.9,103.9,133.1,104.7,133.5L104.7,133.5z"/>
<path d="M100,157.7c1.1-0.7,2-1.6,2.8-2.7c0.8-1,1.7-2,2.5-3c1.7-2,3.8-3.7,6-5c0.7-0.4,1.4,0.7,0.7,1.1c-2.3,1.4-4.3,3.1-6,5.1
	c-0.9,1-1.7,2-2.5,3c-0.8,1-1.7,1.9-2.8,2.6C100,159.2,99.3,158.1,100,157.7z"/>
<path d="M84.1,148c4.3-1.3,8.5-3.1,12.5-5.3c0.5-0.3,1-0.6,1.5-0.9l0.2-1.6c-0.5,0.3-0.9,0.6-1.4,0.8c-4.1,2.5-8.6,4.4-13.2,5.7
	C82.9,147,83.3,148.2,84.1,148z"/>
<path class="st1" d="M76.2,161.9c2.3,4.2,14.8,4.2,18.8,2.3s8.6-8,8.6-8s-3.1,0.1-7.8-4c-2.2-1.8-3.5-4.5-3.7-7.3c0-0.5,0-1,0.1-1.4
	c-4.2,0.6-8.2,2.2-11.7,4.7C76,151.8,73.9,157.8,76.2,161.9z"/>
<path d="M178.9,21.1c0.1-0.3,0.4-0.6,0.7-0.5c0,0,0.1,0,0.1,0c16.3-0.3,32.5-0.7,48.8-1c16.3-0.3,4.9-0.6,21.1-0.8l27.5-0.4
	c0.4,0,0.6,0.3,0.6,0.7c0,0.2-0.2,0.4-0.4,0.5c0.1,0.1,0.2,0.3,0.2,0.4c0.1,1.9,0.1,3.8,0.2,5.7c0,0.4,0,0.9,0,1.3
	c0.4,13.6,0.5,27.2,0.4,40.7c0,7.6-0.2,15.2-0.3,22.8c0,0.7,0,1.4-0.1,2.2c-0.2,7.6-0.5,15.2-0.8,22.7c-0.1,2-0.2,4-0.3,5.9
	c-0.1,1.7-0.1,3.4-0.3,5c-0.3,2.8-1.5,5.5-4.5,6.1c-1.8,0.2-3.6,0.3-5.4,0.2h-6c-4,0-7.9,0-11.9,0c-16,0.1-4.3,0.1-20.2,0.1
	l-40.8,0.1c-2,0-3.9,0-5.9,0c-0.8,0-1.2-0.1-1.2-0.3c0-1.2-0.1-2.7-0.1-3.8c0-1.8,0-3.5,0-5.3l-0.2-11.1c0-3-0.1-6-0.1-9
	c0,0-0.1-4.7-0.2-11.3c0-0.7,0-1.4,0-2.2c-0.2-15.6-0.6-39.2-0.6-39.2L179,30.2c0-0.4,0-0.9,0-1.3l-0.1-7.6
	C178.9,21.3,178.9,21.2,178.9,21.1z M181.3,92.3l0.5,34.5l0.1,4.9l40.4-0.1c15.7-0.1,3.8-0.1,19.5-0.1c7.8,0,15.7,0,23.5-0.1
	c1.9,0,3.8,0.1,5.6-0.1c1.5,0,2.8-0.9,3.5-2.2c0.5-1.2,0.9-2.5,0.9-3.8c0.2-1.8,0.2-3.7,0.3-5.5c0.4-9.1,0.8-18.1,1-27.2
	c0-0.7,0-1.4,0.1-2.2c0.1-5.9,0.2-11.7,0.2-17.5c0.1-15.3,0-30.6-0.4-45.9c-32.1,1-36.5,1.8-68.6,2.6c-9.2,0.2-18.4,0.4-27.6,0.6
	c0.2,14.6,0.5,29.3,0.7,43.9l0.3,16L181.3,92.3z"/>
<path class="st2" d="M133.4,157.8c2.2-4.7,4-9.5,5.8-14.4c1.8-5,3.7-10,5.5-15c1-2.8,2.1-5.7,3.1-8.5c0.2-0.5,0.6-0.8,1.2-0.8
	c0.1,0,0.2-0.1,0.4-0.1h70.2c0.6,0.1,1,0.6,1,1.2c0,0.5-0.5,0.9-1,1h-69.9c-1.8,4.8-3.5,9.6-5.3,14.5c-1.8,5-3.6,10-5.5,14.9
	c-1.1,2.8-2.2,5.6-3.5,8.3c-0.3,0.5-1,0.7-1.5,0.4C133.3,159,133.1,158.3,133.4,157.8C133.4,157.8,133.4,157.8,133.4,157.8z"/>
<path d="M163,164.6c0,0-27.4,0.1-28.7,0s2.7-8.5,8.4-24.6s5.8-19.5,7.8-19.3H182h10.2c0,0,27.7-0.6,28.7,0c1.1,0.7-2.7,8.5-8.4,24.6
	s-5.8,19.5-7.8,19.3h-31.5L163,164.6z"/>
<path d="M203.2,156c0,0,2.1,3.6,1,6c-1.1,2.4-2.6,2.8-4,2.7c-1.2-0.1-70.5,0-95.4,0c-5.5,0-7.4,0-8.8,0c-1.4,0-3.1-3.6-2.3-4.9
	s36.1-1.5,37.7-1.7C132.9,158,203.2,156,203.2,156z"/>
<path class="st2" d="M79.4,152c1.7-2.1,3.9-3.8,6.4-5c2-0.9,4.2-1.4,6.3-2.2c0-0.5,0-1,0.1-1.4c-2.3,1-4.9,1.5-7.2,2.6
	c-2.5,1.2-4.8,3-6.5,5.1C77.9,151.8,78.9,152.7,79.4,152z"/>
<path class="st2" d="M189.3,24c0.2-0.5,0.6-0.8,1.1-1c0.5-0.2,1-0.2,1.5,0c0.4,0.1,0.7,0.3,1.1,0.6c0.1,0,0.2,0.1,0.3,0.2
	c0.6,0.7,0.8,1.7,0.3,2.5c-0.5,0.8-1.5,1.2-2.4,1c-0.9-0.2-1.6-0.9-1.9-1.8C189.1,25,189.2,24.5,189.3,24z M190.5,24.9
	c0,0.1,0,0.3,0.1,0.4c0.1,0.1,0.2,0.3,0.3,0.4l0.3,0.2c0.1,0,0.2,0.1,0.3,0.1c0.1,0,0.2,0,0.3,0c0.1,0,0.2,0,0.3-0.1
	c0.1-0.1,0.2-0.1,0.3-0.2c0.1-0.1,0.1-0.3,0.2-0.4c0-0.1,0-0.3-0.1-0.4c-0.1-0.1-0.2-0.2-0.1-0.1c-0.1-0.1-0.2-0.1-0.3-0.2
	c-0.1-0.1-0.3-0.2-0.5-0.3c-0.2-0.1-0.5-0.1-0.8-0.1c-0.1,0-0.2,0.1-0.2,0.1C190.5,24.9,190.5,24.9,190.5,24.9z"/>
<path class="st2" d="M183.1,25.6l0.2-0.1c0.1-0.1,0.1-0.1,0.2-0.2l0.2-0.1c0-0.1,0.1-0.1,0.2-0.1l-0.8-0.5c-0.3-0.2-0.4-0.6-0.2-0.9
	s0.6-0.4,0.9-0.2l0,0c0.4,0.2,0.7,0.4,1,0.7l0.3-0.3c0.1-0.1,0.1-0.2,0.2-0.2c0.1-0.1,0.2-0.2,0.4-0.3c0.3-0.1,0.7,0.1,0.8,0.5
	c0,0.2,0,0.3-0.1,0.5c-0.2,0.3-0.4,0.5-0.6,0.7c0.3,0.3,0.6,0.5,0.9,0.8c0.2,0.3,0.2,0.7,0,0.9c-0.3,0.2-0.7,0.2-0.9,0
	c-0.2-0.2-0.4-0.4-0.6-0.6l-0.2-0.2c-0.2,0.2-0.4,0.3-0.6,0.5c-0.1,0.2-0.3,0.4-0.5,0.5c-0.3,0.1-0.6,0-0.8-0.2
	c-0.1-0.1-0.2-0.3-0.2-0.5C182.9,25.9,183,25.7,183.1,25.6z"/>
<path class="st2" d="M196.2,23.3c0.4-0.5,1.2-0.5,1.8-0.5c0.6,0,1.2,0.1,1.8,0.3c0.3,0.1,0.4,0.3,0.5,0.6c0,1.1,0,2,0,2.9
	c0,0.4-0.3,0.6-0.6,0.7l-2.9,0.3c-0.4,0-0.6-0.3-0.6-0.7c0-0.6,0-1.2,0-1.8v-0.9C196,23.9,196.1,23.5,196.2,23.3z M198.6,24.1
	c-0.2,0-0.3,0-0.5,0c-0.2,0-0.5,0-0.7,0c0,0.1,0,0.3,0,0.4c0,0.3,0,0.5,0,0.8s0,0.5,0,0.8L199,26v-1.8l-0.3-0.1L198.6,24.1z"/>
<path class="st2" d="M177.5,143.5c1.6,2.1,4.9,3.2,7.2,1.6c1.1-0.8,1.8-2.2,1.8-3.6c0.1-0.7,0-1.4-0.3-2c-1-2.1-3.6-2.8-5.8-2.3
	c-1.2,0.3-2.2,1-2.9,2.1C176.5,140.5,176.5,142.3,177.5,143.5z"/>
<path d="M191.7,74.6v-4.9c0-1.5-0.3-3.6,1.6-4c0.8-0.1,1.5-0.1,2.3-0.1c0.9,0,1.7,0,2.5,0c3.8,0,7.5,0.1,11.2,0.5
	c0.6,0,1.1,0.5,1.1,1.1c0.4,0.2,0.6,0.6,0.6,1l0.5,12.5c0,0.6-0.5,1.1-1.1,1c-0.1,0-0.1,0-0.2,0c-3.2-0.4-6.5-0.7-9.8-0.8
	c-1.7,0-3.4,0-5,0c-1.3,0-3.3,0.4-3.7-1.3c-0.1-0.7-0.1-1.5-0.1-2.2L191.7,74.6z M196.2,78.7c1.5,0,3,0,4.5,0
	c2.9,0.1,5.8,0.3,8.7,0.7c-0.2-3.7-0.3-7.5-0.5-11.2c-2.9-0.3-5.8-0.4-8.7-0.5c-1.5,0-3,0-4.5,0h-1.1c-0.1,0-0.7,0.1-0.9,0.1v1.3
	c0,3,0,6,0,9.1c0,4.5,0,0.4,0,0.6C194.7,78.8,195.4,78.7,196.2,78.7z"/>
<path d="M192,48.5c0.5-1.2,2.2-0.9,3.2-0.9h6.8c0.7,0,1.4,0,2.1,0c1.1,0.2,2.1,1.4,1.2,2.4c0,0.1,0,0.1,0,0.2v10.1
	c0,0.4-0.3,0.6-0.6,0.6h-8.5h-2.1c-0.6,0.1-1.1-0.1-1.5-0.5c-0.3-0.5-0.4-1-0.3-1.5c0-0.7,0-1.5-0.1-2.2c0-1.4-0.1-2.8-0.1-4.3
	l-0.1-2C191.8,49.8,191.9,49.1,192,48.5z M193.2,50l0.2,6.8l0.1,1.6c0,0.3,0,0.6,0,0.8c0,0.1,0,0.2,0,0.3c0.1,0.2-0.1,0.1,0.2,0.2
	s0.5,0,0.7,0h2.7h7c0-3.2,0-6.3,0-9.4c0-0.2,0.1-0.4,0.2-0.5c-0.1-0.2,0-0.4,0.1-0.6c0.1-0.1-0.7-0.2-0.8-0.2c-0.6,0-1.1,0-1.7,0
	h-8.4c-0.3,0-0.3,0-0.4,0.2C193.2,49.5,193.2,49.7,193.2,50z"/>
<path d="M205.7,39.7v2.5c0.1,0.8,0.1,1.5-0.2,2.3c-0.4,0.6-1,0.5-1.6,0.5h-7.7c-0.8,0-1.7,0-2.5,0c-0.6,0-1.2-0.4-1.4-1
	c-0.1-0.8-0.1-1.5-0.1-2.3c0-0.9,0-1.8,0.1-2.7s0.1-1.6,0.2-2.3c0-0.8,0.1-1.6,0.4-2.4c0.6-1.2,2-1.2,3.2-1.3l5.8-0.3
	c1.4-0.1,3.3-0.4,4.4,0.8c0.2,0.3,0.2,0.7-0.1,1c-0.1,0.1-0.3,0.2-0.4,0.2C205.7,36.3,205.7,38,205.7,39.7z M202.1,33.9l-4.2,0.2
	l-2,0.1c-0.5,0-1,0-1.5,0.2c-0.5,0.3-0.5,1-0.5,1.5c-0.1,0.7-0.1,1.4-0.2,2.1c-0.1,1.4-0.1,2.8-0.1,4.2c0,0.3,0,0.6,0,1
	c0,0.4-0.1,0.5,0.3,0.5c0.7,0,1.4,0,2.2,0h7.7c0.2,0,0.5,0,0.7,0c0.1,0,0,0.1,0-0.2c0-0.2,0-0.4,0-0.6c0-0.4,0-0.8,0-1.2
	c0-0.8,0-1.6,0-2.3c0-1.6,0-3.2,0-4.8c0-0.3,0.2-0.5,0.4-0.6C204,33.8,203,33.8,202.1,33.9z"/>
<path class="st1" d="M210.3,34.7c-0.4,0.6-0.1,1.7-0.1,2.6c0,0.3,0.2,0.7,0.5,0.7l12.8-0.1l22.9-0.2l22.9-0.2c0.3,0,0.6-0.2,0.6-0.5
	c0,0,0-0.1,0-0.1c0-0.6,0-1.3,0-1.9c0.2-0.4,0.1-1-0.4-1c-4.3,0.2-8.6,0.4-12.9,0.4c-7.6,0.1-15.3,0.1-22.9-0.1
	c-3.8-0.1-7.6-0.4-11.4-0.4c-2,0-4,0-6,0.1c-1.6,0.1-3.9-0.3-5.5,0.4C210.6,34.3,210.4,34.5,210.3,34.7z"/>
<path class="st1" d="M210.4,43c1,1.4,4.9,0.6,5.9,0.5c6.4-0.1,12.8,0,19.3,0.5c0.3,0,0.5-0.3,0.5-0.7v-1.9c0.2-0.4,0.1-1-0.3-1.1
	c-0.1,0-0.2,0-0.3,0l-5.1-0.1c-3.5,0-7.1,0-10.7,0c-1.8,0-3.6,0-5.5,0.1c-1.1,0-2.9-1-3.6,0.6C210,41.9,210.1,42.5,210.4,43z"/>
<path class="st1" d="M211.4,54.1c0.1,0.9,0.7,0.6,1.2,0.4c1.7-0.6,3.3-0.2,5-0.3s3.6-0.1,5.5-0.1c9,0,11.6,0.1,20.7,0.4
	c5,0.2,10,0.4,15,0.7c2.5,0.1,3.5,0,6,0.1c1.2,0.1,3,0,4.1,0c1.1,0,1-1.1,1.1-2.3c0-2.3-2.4-1.9-3.7-1.9h-42.4h-5.8
	c-1,0-1.9,0-2.9,0c-0.5,0-1,0.1-1.5,0.1s-1.4-0.3-1.8,0.9c-0.2,0.6-0.3,0.4-0.3,1C211.4,53.5,211.4,53.8,211.4,54.1z"/>
<path class="st1" d="M234.7,78c-0.1,0.9-0.8,0.8-1.4,0.8l-2.3-0.1c-1.5,0-3,0-4.5,0c-3.1,0-6.1,0.1-9.2,0.2c-0.3,0-0.6-0.2-0.7-0.5
	c-0.1-0.7-0.2-1.5-0.1-2.3c-0.1-0.4,0.1-1,0.6-1c2.8,0,5.6,0,8.4,0h4.3c1.2,0.2,2.4,0.2,3.6,0c0.6-0.1,1.3-0.2,1.3,0.6
	c0,0.4,0,0.8-0.1,1.1C234.7,77.3,234.8,77.6,234.7,78z"/>
<path class="st1" d="M257.1,67.6c3.2,0,6.4-0.2,9.6-0.4c0.4,0,0.9-0.1,1.3-0.2c0.2-0.1,0.5-0.2,0.8-0.3c0.4,0,0.7,0.5,0.7,1.1
	c0,1.2-0.1,2.3-0.3,3.5c-0.4,1.1-1.2,1-1.9,1c-1.8,0.1-3.6,0.1-5.5,0.2c-3.7,0.1-7.4,0.2-11,0.2c-7.3,0-14.6-0.2-21.9-0.5
	c-2.6-0.1-5.2-0.2-7.7-0.4c-1.3-0.1-2.7,0.5-4-0.1c-0.6-0.2-1.1-0.8-1.2-1.4c-0.2-0.7-0.2-2.9,0.6-2.8
	C230,68.8,243.6,68.3,257.1,67.6z"/>
<path class="st1" d="M187,59.4c4.8,4.9,9.8,9.5,15,13.9c2.2-2.5,4.5-4.9,7-7.1c1-0.9,2.6,0.6,1.5,1.5c-2.7,2.4-5.3,5.1-7.6,7.9
	c-0.4,0.4-1.1,0.4-1.5,0c-5.6-4.6-10.9-9.4-15.9-14.6C184.6,60,186.1,58.4,187,59.4z"/>
<path class="st1" d="M193.9,48.4c2.2,1.3,4.2,3,5.8,5l1.2-2.4c0.3-0.5,1-0.7,1.5-0.4c0.5,0.3,0.7,1,0.4,1.5l-1.9,3.9
	c-0.3,0.5-1,0.7-1.5,0.4c-0.1-0.1-0.3-0.2-0.4-0.4c-1.6-2.3-3.6-4.3-6.1-5.7c-0.5-0.3-0.7-1-0.4-1.5
	C192.7,48.3,193.4,48.1,193.9,48.4L193.9,48.4z"/>
<path class="st1" d="M190.7,32.7l6.5,4.3l1.6,1.1l0.8,0.5c0.5-1,1.1-1.9,1.8-2.8c0.4-0.4,1.1-0.4,1.5,0c0.4,0.4,0.4,1.1,0,1.5
	c-0.4,0.5-0.7,1-1,1.6c-0.3,0.6-0.6,1.1-1,1.6c-1.3,1.2-2.9-0.4-3.9-1.1l-7.4-4.9C188.5,33.8,189.6,31.9,190.7,32.7z"/>
<path class="st1" d="M213.6,164.6c0.6,0.4,1.3,0.6,2.1,0.5l3,0.1l6.2,0.1c0.4,0,0.7-0.2,0.7-0.6c0.6-2.8,1.1-5.7,1.5-8.5
	c0.7-5.1,1-10.2,1.5-15.3l1.4-15.7c0-0.4-0.2-0.7-0.6-0.7c-0.4,0-0.7,0.2-0.7,0.6c-1.1,2.9-2.1,5.6-3.1,8.3
	c-3.7,9.5-7.4,19-11.1,28.5c0,0.1,0,0.1,0,0.2l-0.6,0.7C213.3,163.1,213.1,164,213.6,164.6C213.6,164.6,213.6,164.6,213.6,164.6z"/>
<path class="st2" d="M226.7,164.8c1.1-0.4,2.3-0.5,3.5-0.3l3.7,0.1l7.7,0.2c0.4,0,0.7-0.2,0.7-0.6c0,0,0-0.1,0-0.1
	c-0.4-3.1-0.9-6.2-1.5-9.2c-2.1-10.8-5.4-21.4-9.7-31.5c-0.3-0.8-1.5-0.2-1.2,0.5l0.1,0.2c-0.2,0.1-0.3,0.3-0.3,0.5
	c0,2.9,0,5.9-0.2,8.8c-0.4,10.3-1.7,20.6-3.7,30.8c0,0.4,0.2,0.7,0.6,0.7C226.5,164.9,226.6,164.9,226.7,164.8z"/>
<path d="M240.3,154c0.1,0.4,0.2,0.8,0.3,1.2s0.1,0.6,0.2,0.9c0,0.1,0,0.1,0,0.2l1.1,5.2c0.2,0.8,1.4,0.6,1.3-0.2l-0.1-0.3
	c0.2,0.2,0.3,0.4,0.5,0.6c1.8,2.1,4.7,2.9,7.3,2.2c2.6-0.8,4.3-3.2,5.2-5.6c0.4-1,0.6-2.1,0.6-3.2c0.5-2.5-1.2-5-3.4-6.4
	c-0.9-0.6-1.9-1-3-1.3c-0.9-0.5-2-0.6-3-0.4c-0.9,0.1-1.9,0.2-2.8,0.5c-1.3,0.4-2.4,1.2-3.2,2.3c-0.6,0.3-1.1,0.9-1.3,1.6
	C239.9,152.2,240.1,153.1,240.3,154z"/>
<path class="st2" d="M275.2,160.3c0,0.4,0.2,0.7,0.6,0.7c0,0,0.1,0,0.1,0c1.6-0.3,3.2-0.4,4.8-0.3c0.4,0,0.7-0.2,0.7-0.6
	c0,0,0-0.1,0-0.1c-0.3-1.8-0.5-3.7-0.5-5.6c-0.1-0.4-0.4-0.6-0.7-0.5c-0.3,0-0.5,0.3-0.5,0.5c-0.6-0.1-1.3-0.1-2-0.1
	c-0.8,0-1.5,0.5-1.9,1.2c-0.3,0.7-0.4,1.4-0.4,2.1L275.2,160.3z"/>
<path class="st1" d="M270.4,159.8c0,0.3,0.3,0.5,0.6,0.5h0.4c0.3,0.3,0.6,0.5,1,0.7c0.6,0.3,1.3,0.5,2,0.5c0.4,0,0.7-0.3,0.7-0.6
	c0,0,0-0.1,0-0.1c-0.1-1.5-0.1-3-0.2-4.4c0.3-0.2,0.4-0.6,0.2-0.9c0-0.1-0.1-0.1-0.1-0.2c-0.1-0.4-0.5-0.6-0.9-0.6
	c-0.8-0.4-1.8-0.5-2.7-0.5c-0.3,0.1-0.5,0.3-0.5,0.6c0,0.6,0,1.3,0,1.9C270.5,157.7,270.4,158.7,270.4,159.8z"/>
<path d="M212.4,164.3c0-0.1,0.1-0.2,0.1-0.3c4.8-10.8,9.2-21.8,13.4-32.8c1.2-3.2,2.3-6.3,3.4-9.5c0.1-0.3,0.5-0.5,0.8-0.3
	c0.1,0,0.1,0.1,0.2,0.1c0.2,0,0.3,0.2,0.4,0.3c3.5,9.1,6.4,18.4,8.8,27.9c1.6-2,3.9-3.4,6.5-3.9c3.1-0.5,6.3,0.4,8.7,2.4
	c2.8,2.3,4,5.9,3.2,9.4c-1.4,5.1-6.6,8-11.7,6.7c-1.3-0.3-2.5-1-3.5-1.8c0.2,0.6,0.3,1.3,0.5,1.9s-0.9,1-1.2,0.4
	c-5.4-0.2-10.8,0.2-16.2,1.3c-0.2,0.1-0.3,0.1-0.5,0.1c-4-0.5-7.9-0.9-11.9-1.1C212.8,165.2,212.2,164.8,212.4,164.3z M242.8,160.9
	c3.3,3.2,8.5,3.2,11.7-0.1c0.8-0.8,1.4-1.7,1.8-2.7c2.4-5.9-3.4-11.8-9.3-11.2c-2.9,0.3-5.5,1.9-7,4.4c0.3,1.2,0.6,2.3,0.9,3.5
	c0.5,2,1,4,1.4,5.9C242.4,160.7,242.6,160.8,242.8,160.9z M241.5,163.5c-0.9-3.9-1.8-7.7-2.8-11.6c-0.2-0.2-0.3-0.5-0.2-0.8
	c-1.7-6.7-3.5-13.3-5.7-19.8c-0.7-2.1-1.4-4.2-2.2-6.2c-0.5,10.3-1.5,20.6-2.9,30.8c-0.4,2.9-0.9,5.8-1.4,8.7
	C231.3,163.7,236.4,163.3,241.5,163.5L241.5,163.5z M225,164.8c1.9-11,3.2-22.1,4-33.2c0.1-2,0.3-4.1,0.4-6.1
	c-3.6,10.1-7.5,20-11.7,29.9c-1.2,2.8-2.4,5.6-3.6,8.4C217.7,164,221.3,164.4,225,164.8z"/>
<path d="M270.3,153.3c0.8,0,1.5,0.1,2.3,0.2l2.3,0.2c0.2,0,0.3,0.1,0.4,0.2c1.9-0.3,3.9-0.5,5.8-0.3c0.3,0.1,0.6,0.4,0.5,0.7
	c0,0.1-0.1,0.2-0.1,0.3c0.2,2,0.5,4,0.7,6c0.1,0.3-0.2,0.7-0.5,0.7c0,0,0,0,0,0l-6.4,0.8c-0.2,0-0.3,0-0.5-0.1
	c-1.4,0-2.9-0.3-4.2-0.9c-0.4-0.1-0.7-0.3-0.9-0.7c-0.1-0.4-0.2-0.7-0.2-1.1c0-0.8-0.1-1.5-0.1-2.3c0-0.8-0.1-1.5-0.1-2.3
	c-0.1-0.3-0.1-0.7,0-1C269.5,153.5,269.9,153.3,270.3,153.3z M280.8,160.2l-0.6-5.3c-1.5-0.1-3,0-4.4,0.3v5.7L280.8,160.2z
	 M270.7,154.7v0.7l0.1,1.3c0.1,0.9,0.1,1.8,0.1,2.7c0,0.2,0,0.4,0,0.5l0.4,0.1c0.4,0.1,0.8,0.3,1.2,0.4c0.7,0.2,1.4,0.3,2.1,0.3V155
	l-2.1-0.2l-1.1-0.1L270.7,154.7C270.7,154.6,270.7,154.7,270.7,154.7L270.7,154.7z"/>
<path d="M271,153.4c1.7-0.3,3.3-0.5,5-0.6c0.8,0,1.7,0,2.5,0.2c0.3,0.1,1.5,0.5,1.7,0.2c0.5-0.7,1.6,0.1,1,0.8
	c-0.5,0.6-1.3,0.8-2,0.5c-0.8-0.2-1.7-0.3-2.5-0.4c-1.9,0-3.7,0.2-5.5,0.6c-0.4,0-0.6-0.3-0.6-0.7
	C270.5,153.7,270.7,153.4,271,153.4z"/>
<path class="st2" d="M249.3,149.3c0.3-0.3,0.6-0.4,1-0.4c0.4,0,0.8,0.2,1.1,0.5c0.3,0,0.5,0.2,0.7,0.4c0.3,0.3,0.4,0.8,0.3,1.2
	c-0.1,0.4-0.4,0.7-0.8,0.8c-0.4,0.1-0.9,0.1-1.3,0c-0.2,0-0.3-0.1-0.5-0.2c-0.2-0.1-0.4-0.2-0.5-0.3c-0.3-0.3-0.5-0.7-0.5-1.1
	C248.8,149.9,249,149.6,249.3,149.3z M250.3,150.5l0.2,0.1l0.2,0.1c0-0.1,0-0.1-0.1-0.2C250.2,150.5,250.2,150.5,250.3,150.5z"/>
</svg>
